SplineFontDB: 3.0
FontName: SourceCodePro-Regular
FullName: Source Code Pro
FamilyName: Source Code Pro
Weight: Book
Copyright: Copyright 2010, 2012 Adobe Systems Incorporated. All Rights Reserved.
Version: 1.0
ItalicAngle: 0
UnderlinePosition: -100
UnderlineWidth: 50
Ascent: 750
Descent: 250
InvalidEm: 0
sfntRevision: 0x000207ae
LayerCount: 2
Layer: 0 0 "Back" 1
Layer: 1 0 "Fore" 0
XUID: [1021 358 -292253009 4887591]
BaseHoriz: 2 'ideo' 'romn'
BaseScript: 'DFLT' 1  -170 0
BaseScript: 'cyrl' 1  -170 0
BaseScript: 'grek' 1  -170 0
BaseScript: 'latn' 1  -170 0
StyleMap: 0x0040
FSType: 0
OS2Version: 3
OS2_WeightWidthSlopeOnly: 0
OS2_UseTypoMetrics: 0
CreationTime: 1465456846
ModificationTime: 1465456846
PfmFamily: 17
TTFWeight: 400
TTFWidth: 5
LineGap: 0
VLineGap: 0
Panose: 2 11 5 9 3 4 3 2 2 4
OS2TypoAscent: 750
OS2TypoAOffset: 0
OS2TypoDescent: -250
OS2TypoDOffset: 0
OS2TypoLinegap: 0
OS2WinAscent: 984
OS2WinAOffset: 0
OS2WinDescent: 273
OS2WinDOffset: 0
HheadAscent: 984
HheadAOffset: 0
HheadDescent: -273
HheadDOffset: 0
OS2SubXSize: 650
OS2SubYSize: 600
OS2SubXOff: 0
OS2SubYOff: 75
OS2SupXSize: 650
OS2SupYSize: 600
OS2SupXOff: 0
OS2SupYOff: 350
OS2StrikeYSize: 50
OS2StrikeYPos: 288
OS2CapHeight: 660
OS2XHeight: 480
OS2Vendor: 'ADBO'
OS2CodePages: 6000019f.00000000
OS2UnicodeRanges: 200002f7.02003803.00000000.00000000
Lookup: 1 0 0 "'ss02' Style Set 2 lookup 0" { "'ss02' Style Set 2 lookup 0 subtable"  } ['cv01' ('DFLT' <'dflt' > 'cyrl' <'SRB ' 'dflt' > 'grek' <'dflt' > 'latn' <'ATH ' 'NSM ' 'SKS ' 'dflt' > ) 'salt' ('DFLT' <'dflt' > 'cyrl' <'SRB ' 'dflt' > 'grek' <'dflt' > 'latn' <'ATH ' 'NSM ' 'SKS ' 'dflt' > ) 'ss02' ('DFLT' <'dflt' > 'cyrl' <'SRB ' 'dflt' > 'grek' <'dflt' > 'latn' <'ATH ' 'NSM ' 'SKS ' 'dflt' > ) ]

StartChar: .notdef
Encoding: 1114112 -1 0
Width: 600
Flags: MW
HStem: 0 58<170 427 170 538> 600 60<182 417 182 182>
VStem: 62 65<110 110 110 572> 472 66<110 572 572 572>
LayerCount: 2
Fore
SplineSet
62 0 m 1
 62 660 l 1
 538 660 l 1
 538 0 l 1
 62 0 l 1
170 58 m 1
 427 58 l 1
 354 190 l 1
 302 293 l 1
 298 293 l 1
 244 190 l 1
 170 58 l 1
127 110 m 1
 255 340 l 1
 127 572 l 1
 127 110 l 1
298 387 m 1
 302 387 l 1
 351 481 l 1
 417 600 l 1
 182 600 l 1
 248 481 l 1
 298 387 l 1
345 340 m 1
 472 110 l 1
 472 572 l 1
 345 340 l 1
EndSplineSet
EndChar

StartChar: A
Encoding: 65 65 2
Width: 600
GlyphClass: 2
Flags: MW
HStem: 0 21G<32 32 32 117 480 480 480 568> 200 67<201 397 201 418 180 397> 588 68<297 301 297 297>
VStem: 32 536<0 0>
AnchorPoint: "Anchor-6" 504 0 basechar 0
AnchorPoint: "Anchor-3" 300 -20 basechar 0
AnchorPoint: "Anchor-2" 520 0 basechar 0
AnchorPoint: "Anchor-0" 300 676 basechar 0
LayerCount: 2
Fore
SplineSet
232 367 m 2
 201 267 l 1
 397 267 l 1
 366 367 l 2
 343 440 321 512 301 588 c 1
 297 588 l 1
 276 512 255 440 232 367 c 2
32 0 m 1
 253 656 l 1
 347 656 l 1
 568 0 l 1
 480 0 l 1
 418 200 l 1
 180 200 l 1
 117 0 l 1
 32 0 l 1
EndSplineSet
EndChar

StartChar: B
Encoding: 66 66 3
Width: 600
GlyphClass: 2
Flags: MW
HStem: 0 70<182 288 288 300> 310 70<182 271 271 288 182 271> 586 70<182 275 182 182>
VStem: 99 83<70 70 70 310 380 586> 428 82<463.5 524.5> 465 82<151.5 236.5>
AnchorPoint: "Anchor-3" 307 -20 basechar 0
AnchorPoint: "Anchor-0" 301 676 basechar 0
LayerCount: 2
Fore
SplineSet
99 0 m 1xf4
 99 656 l 1
 285 656 l 2
 419 656 510 611 510 496 c 0xf8
 510 431 473 373 395 353 c 1
 395 349 l 1
 491 334 547 282 547 192 c 0
 547 63 447 0 300 0 c 2
 99 0 l 1xf4
182 380 m 1
 271 380 l 2
 383 380 428 416 428 489 c 0
 428 560 376 586 275 586 c 2
 182 586 l 1
 182 380 l 1
182 70 m 1
 288 70 l 2
 400 70 465 107 465 196 c 0xf4
 465 277 403 310 288 310 c 2
 182 310 l 1
 182 70 l 1
EndSplineSet
EndChar

StartChar: C
Encoding: 67 67 4
Width: 600
GlyphClass: 2
Flags: MW
HStem: -12 73<296 389 296 394.5> 595 73<296 386.5>
VStem: 65 86<247.5 411.5 247.5 433.5>
AnchorPoint: "Anchor-3" 344 -20 basechar 0
AnchorPoint: "Anchor-2" 350 0 basechar 0
AnchorPoint: "Anchor-0" 346 676 basechar 0
LayerCount: 2
Fore
SplineSet
351 -12 m 0
 189 -12 65 114 65 328 c 0
 65 539 188 668 359 668 c 0
 437 668 500 630 538 588 c 1
 491 535 l 1
 457 571 414 595 359 595 c 0
 233 595 151 493 151 330 c 0
 151 165 233 61 359 61 c 0
 419 61 465 87 507 134 c 1
 554 83 l 1
 502 23 438 -12 351 -12 c 0
EndSplineSet
EndChar

StartChar: D
Encoding: 68 68 5
Width: 600
GlyphClass: 2
Flags: MW
HStem: 0 68<170 243 243 253> 588 68<170 243 170 170>
VStem: 87 83<68 68 68 588> 467 86<248 413.5>
AnchorPoint: "Anchor-3" 294 -20 basechar 0
AnchorPoint: "Anchor-2" 286 0 basechar 0
AnchorPoint: "Anchor-0" 300 676 basechar 0
LayerCount: 2
Fore
SplineSet
87 0 m 1
 87 656 l 1
 249 656 l 2
 446 656 553 539 553 331 c 0
 553 122 446 0 253 0 c 2
 87 0 l 1
170 68 m 1
 243 68 l 2
 393 68 467 165 467 331 c 0
 467 496 393 588 243 588 c 2
 170 588 l 1
 170 68 l 1
EndSplineSet
EndChar

StartChar: E
Encoding: 69 69 6
Width: 600
GlyphClass: 2
Flags: MW
HStem: 0 71<198 530 198 530> 309 71<198 470 198 470> 586 70<198 520 198 198>
VStem: 114 84<71 309 380 586>
AnchorPoint: "Anchor-6" 430 0 basechar 0
AnchorPoint: "Anchor-3" 333 -20 basechar 0
AnchorPoint: "Anchor-2" 326 0 basechar 0
AnchorPoint: "Anchor-0" 331 676 basechar 0
LayerCount: 2
Fore
SplineSet
114 0 m 1
 114 656 l 1
 520 656 l 1
 520 586 l 1
 198 586 l 1
 198 380 l 1
 470 380 l 1
 470 309 l 1
 198 309 l 1
 198 71 l 1
 530 71 l 1
 530 0 l 1
 114 0 l 1
EndSplineSet
EndChar

StartChar: F
Encoding: 70 70 7
Width: 600
GlyphClass: 2
Flags: MW
HStem: 0 21G<133 133 133 217> 294 70<217 487 217 487> 586 70<217 536 217 217>
VStem: 133 84<0 294 364 586>
AnchorPoint: "Anchor-3" 181 -20 basechar 0
AnchorPoint: "Anchor-2" 170 0 basechar 0
AnchorPoint: "Anchor-0" 342 676 basechar 0
LayerCount: 2
Fore
SplineSet
133 0 m 1
 133 656 l 1
 536 656 l 1
 536 586 l 1
 217 586 l 1
 217 364 l 1
 487 364 l 1
 487 294 l 1
 217 294 l 1
 217 0 l 1
 133 0 l 1
EndSplineSet
EndChar

StartChar: G
Encoding: 71 71 8
Width: 600
GlyphClass: 2
Flags: MW
HStem: -12 73<277.5 365 277.5 379.5> 271 69<325 456 325 533> 595 73<282.5 375.5>
VStem: 53 87<247.5 411.5 247.5 434> 456 77<100 271 271 271>
AnchorPoint: "Anchor-3" 330 -20 basechar 0
AnchorPoint: "Anchor-0" 330 676 basechar 0
LayerCount: 2
Fore
SplineSet
337 -12 m 0
 172 -12 53 114 53 328 c 0
 53 540 174 668 344 668 c 0
 431 668 488 627 525 588 c 1
 478 535 l 1
 446 569 407 595 344 595 c 0
 221 595 140 493 140 330 c 0
 140 165 213 61 342 61 c 0
 388 61 431 76 456 100 c 1
 456 271 l 1
 325 271 l 1
 325 340 l 1
 533 340 l 1
 533 64 l 1
 492 22 422 -12 337 -12 c 0
EndSplineSet
EndChar

StartChar: H
Encoding: 72 72 9
Width: 600
GlyphClass: 2
Flags: MW
HStem: 0 21G<79 79 79 163 437 437 437 521> 309 72<163 437 163 437> 636 20G<79 163 163 163 437 521 521 521>
VStem: 79 84<0 309 381 656> 437 84<0 309 309 309 381 656 0 656>
AnchorPoint: "Anchor-3" 300 -20 basechar 0
AnchorPoint: "Anchor-2" 122 0 basechar 0
AnchorPoint: "Anchor-0" 300 676 basechar 0
LayerCount: 2
Fore
SplineSet
79 0 m 1
 79 656 l 1
 163 656 l 1
 163 381 l 1
 437 381 l 1
 437 656 l 1
 521 656 l 1
 521 0 l 1
 437 0 l 1
 437 309 l 1
 163 309 l 1
 163 0 l 1
 79 0 l 1
EndSplineSet
EndChar

StartChar: I
Encoding: 73 73 10
Width: 600
GlyphClass: 2
Flags: MW
HStem: 0 71<95 258 95 258 342 505> 586 70<95 258 95 505 342 342 342 505>
VStem: 258 84<71 586 71 586>
AnchorPoint: "Anchor-6" 300 0 basechar 0
AnchorPoint: "Anchor-3" 300 -20 basechar 0
AnchorPoint: "Anchor-2" 300 0 basechar 0
AnchorPoint: "Anchor-0" 300 676 basechar 0
LayerCount: 2
Fore
SplineSet
95 0 m 1
 95 71 l 1
 258 71 l 1
 258 586 l 1
 95 586 l 1
 95 656 l 1
 505 656 l 1
 505 586 l 1
 342 586 l 1
 342 71 l 1
 505 71 l 1
 505 0 l 1
 95 0 l 1
EndSplineSet
EndChar

StartChar: J
Encoding: 74 74 11
Width: 600
GlyphClass: 2
Flags: MW
HStem: -12 73<248.5 321 248.5 357.5> 587 70<135 410 135 493>
VStem: 410 83<217 587 587 587>
AnchorPoint: "Anchor-3" 300 -20 basechar 0
AnchorPoint: "Anchor-0" 324 676 basechar 0
LayerCount: 2
Fore
SplineSet
276 -12 m 0
 203 -12 126 22 81 97 c 1
 133 148 l 1
 170 89 223 61 274 61 c 0
 368 61 410 109 410 217 c 2
 410 587 l 1
 135 587 l 1
 135 657 l 1
 493 657 l 1
 493 210 l 2
 493 88 439 -12 276 -12 c 0
EndSplineSet
EndChar

StartChar: K
Encoding: 75 75 12
Width: 600
GlyphClass: 2
Flags: MW
HStem: 0 21G<98 98 98 182 486 486 486 580> 636 20G<98 182 182 182 461 556 556 556>
VStem: 98 84<0 209 327 656>
AnchorPoint: "Anchor-3" 338 -20 basechar 0
AnchorPoint: "Anchor-0" 326 676 basechar 0
LayerCount: 2
Fore
SplineSet
98 0 m 1
 98 656 l 1
 182 656 l 1
 182 327 l 1
 185 327 l 1
 461 656 l 1
 556 656 l 1
 348 407 l 1
 580 0 l 1
 486 0 l 1
 295 344 l 1
 182 209 l 1
 182 0 l 1
 98 0 l 1
EndSplineSet
EndChar

StartChar: L
Encoding: 76 76 13
Width: 600
GlyphClass: 2
Flags: MW
HStem: 0 71<216 541 216 541> 636 20G<134 216 216 216>
VStem: 134 82<71 656 71 656 71 656>
AnchorPoint: "Anchor-4" 176 337 basechar 0
AnchorPoint: "Anchor-3" 349 -20 basechar 0
AnchorPoint: "Anchor-2" 349 0 basechar 0
AnchorPoint: "Anchor-0" 189 676 basechar 0
LayerCount: 2
Fore
SplineSet
134 0 m 1
 134 656 l 1
 216 656 l 1
 216 71 l 1
 541 71 l 1
 541 0 l 1
 134 0 l 1
EndSplineSet
EndChar

StartChar: M
Encoding: 77 77 14
Width: 600
GlyphClass: 2
Flags: MW
HStem: 0 21G<72 72 72 150 448 448 448 528> 174 96<298 302 298 328 268 302> 560 96<136 138 136 136 459 462 459 459>
VStem: 72 78<0 328 0 656> 448 80<0 328 328 360>
AnchorPoint: "Anchor-3" 300 -20 basechar 0
AnchorPoint: "Anchor-2" 486 0 basechar 0
AnchorPoint: "Anchor-0" 300 676 basechar 0
LayerCount: 2
Fore
SplineSet
72 0 m 1
 72 656 l 1
 174 656 l 1
 266 376 l 1
 298 270 l 1
 302 270 l 1
 333 376 l 1
 426 656 l 1
 528 656 l 1
 528 0 l 1
 448 0 l 1
 448 328 l 2
 448 392 458 504 462 560 c 1
 459 560 l 1
 422 432 l 1
 328 174 l 1
 268 174 l 1
 176 432 l 1
 138 560 l 1
 136 560 l 1
 142 504 150 392 150 328 c 2
 150 0 l 1
 72 0 l 1
EndSplineSet
EndChar

StartChar: N
Encoding: 78 78 15
Width: 600
GlyphClass: 2
Flags: MW
HStem: 0 21G<82 82 82 162 426 426 426 518> 0 108<426 449 447 449 447 518> 548 108<151 153 151 151> 636 20G<82 174 174 174 438 518 518 518>
VStem: 82 80<0 343 0 656> 438 80<316 656 0 656>
AnchorPoint: "Anchor-3" 300 -20 basechar 0
AnchorPoint: "Anchor-2" 473 0 basechar 0
AnchorPoint: "Anchor-0" 310 676 basechar 0
LayerCount: 2
Fore
SplineSet
82 0 m 1x9c
 82 656 l 1
 174 656 l 1
 384 244 l 1
 447 108 l 1
 449 108 l 1x5c
 446 173 438 247 438 316 c 2
 438 656 l 1
 518 656 l 1
 518 0 l 1
 426 0 l 1
 216 412 l 1
 153 548 l 1
 151 548 l 1xac
 154 481 162 411 162 343 c 2
 162 0 l 1
 82 0 l 1x9c
EndSplineSet
EndChar

StartChar: O
Encoding: 79 79 16
Width: 600
GlyphClass: 2
Flags: MW
HStem: -12 73<250 350 250 374> 595 73<250 350>
VStem: 48 86<247 413.5 247 437> 466 86<247 413.5>
AnchorPoint: "Anchor-6" 300 0 basechar 0
AnchorPoint: "Anchor-5" 420 646 basechar 0
AnchorPoint: "Anchor-3" 300 -20 basechar 0
AnchorPoint: "Anchor-2" 300 0 basechar 0
AnchorPoint: "Anchor-0" 300 676 basechar 0
LayerCount: 2
Fore
SplineSet
300 -12 m 0
 152 -12 48 116 48 331 c 0
 48 543 152 668 300 668 c 0
 448 668 552 543 552 331 c 0
 552 116 448 -12 300 -12 c 0
300 61 m 0
 400 61 466 163 466 331 c 0
 466 496 400 595 300 595 c 0
 200 595 134 496 134 331 c 0
 134 163 200 61 300 61 c 0
EndSplineSet
EndChar

StartChar: P
Encoding: 80 80 17
Width: 600
GlyphClass: 2
Flags: MW
HStem: 0 21G<102 102 102 185> 260 68<185 290 290 300 185 290> 589 67<185 290 185 185>
VStem: 102 83<0 260 328 589> 459 84<416.5 510.5>
AnchorPoint: "Anchor-3" 140 -20 basechar 0
AnchorPoint: "Anchor-0" 320 676 basechar 0
LayerCount: 2
Fore
SplineSet
102 0 m 1
 102 656 l 1
 300 656 l 2
 445 656 543 607 543 463 c 0
 543 325 444 260 300 260 c 2
 185 260 l 1
 185 0 l 1
 102 0 l 1
185 328 m 1
 290 328 l 2
 405 328 459 370 459 463 c 0
 459 558 403 589 290 589 c 2
 185 589 l 1
 185 328 l 1
EndSplineSet
EndChar

StartChar: Q
Encoding: 81 81 18
Width: 600
GlyphClass: 2
Flags: MW
HStem: -163 71<456 495> -7 64 595 73<250 350>
VStem: 48 86<244 413.5 244 437> 466 86<244 413.5>
AnchorPoint: "Anchor-0" 302 685 basechar 0
LayerCount: 2
Fore
SplineSet
300 57 m 0
 400 57 466 157 466 331 c 0
 466 496 400 595 300 595 c 0
 200 595 134 496 134 331 c 0
 134 157 200 57 300 57 c 0
481 -163 m 0
 365 -163 292 -97 260 -9 c 1
 133 13 48 136 48 331 c 0
 48 543 152 668 300 668 c 0
 448 668 552 543 552 331 c 0
 552 140 470 18 348 -7 c 1
 371 -64 422 -92 490 -92 c 0
 510 -92 527 -87 539 -82 c 1
 555 -149 l 1
 533 -157 509 -163 481 -163 c 0
EndSplineSet
EndChar

StartChar: R
Encoding: 82 82 19
Width: 600
GlyphClass: 2
Flags: MW
HStem: 0 21G<100 100 100 183 458 458 458 553> 277 68<183 292 292 300 183 292> 589 67<183 292 183 183>
VStem: 100 83<0 277 345 589> 450 83<429.5 515>
AnchorPoint: "Anchor-3" 320 -20 basechar 0
AnchorPoint: "Anchor-2" 137 0 basechar 0
AnchorPoint: "Anchor-0" 304 676 basechar 0
LayerCount: 2
Fore
SplineSet
100 0 m 1
 100 656 l 1
 304 656 l 2
 437 656 533 608 533 472 c 0
 533 370 475 309 386 286 c 1
 553 0 l 1
 458 0 l 1
 300 277 l 1
 183 277 l 1
 183 0 l 1
 100 0 l 1
183 345 m 1
 292 345 l 2
 394 345 450 387 450 472 c 0
 450 558 394 589 292 589 c 2
 183 589 l 1
 183 345 l 1
EndSplineSet
EndChar

StartChar: S
Encoding: 83 83 20
Width: 600
GlyphClass: 2
Flags: MW
HStem: -12 73<271.5 354 271.5 377> 595 73<272 344>
VStem: 98 85<467.5 528.5 467.5 544> 452 85<134.5 200>
AnchorPoint: "Anchor-3" 313 -20 basechar 0
AnchorPoint: "Anchor-2" 319 0 basechar 0
AnchorPoint: "Anchor-0" 316 676 basechar 0
LayerCount: 2
Fore
SplineSet
305 -12 m 0
 209 -12 126 26 67 85 c 1
 117 143 l 1
 166 94 234 61 309 61 c 0
 399 61 452 104 452 165 c 0
 452 235 401 255 334 284 c 2
 240 325 l 2
 174 351 98 398 98 494 c 0
 98 594 188 668 313 668 c 0
 395 668 467 635 515 587 c 1
 471 533 l 1
 428 571 378 595 310 595 c 0
 234 595 183 558 183 499 c 0
 183 436 244 413 300 390 c 2
 392 350 l 2
 473 317 537 272 537 175 c 0
 537 71 449 -12 305 -12 c 0
EndSplineSet
EndChar

StartChar: T
Encoding: 84 84 21
Width: 600
GlyphClass: 2
Flags: MW
HStem: 0 21G<258 258 258 342> 586 70<42 258 42 558 342 342 342 558>
VStem: 258 84<0 586 0 586>
AnchorPoint: "Anchor-3" 300 -20 basechar 0
AnchorPoint: "Anchor-2" 300 0 basechar 0
AnchorPoint: "Anchor-0" 300 676 basechar 0
LayerCount: 2
Fore
SplineSet
258 0 m 1
 258 586 l 1
 42 586 l 1
 42 656 l 1
 558 656 l 1
 558 586 l 1
 342 586 l 1
 342 0 l 1
 258 0 l 1
EndSplineSet
EndChar

StartChar: U
Encoding: 85 85 22
Width: 600
GlyphClass: 2
Flags: MW
HStem: -12 73<261.5 340.5 261.5 365> 636 20G<79 163 163 163 440 521 521 521>
VStem: 79 84<248 656> 440 81<246 248 248 656>
AnchorPoint: "Anchor-6" 300 0 basechar 0
AnchorPoint: "Anchor-5" 503 666 basechar 0
AnchorPoint: "Anchor-3" 300 -20 basechar 0
AnchorPoint: "Anchor-2" 300 0 basechar 0
AnchorPoint: "Anchor-0" 300 676 basechar 0
LayerCount: 2
Fore
SplineSet
301 -12 m 0
 172 -12 79 60 79 248 c 2
 79 656 l 1
 163 656 l 1
 163 246 l 2
 163 110 222 61 301 61 c 0
 380 61 440 110 440 246 c 2
 440 656 l 1
 521 656 l 1
 521 248 l 2
 521 60 429 -12 301 -12 c 0
EndSplineSet
EndChar

StartChar: V
Encoding: 86 86 23
Width: 600
GlyphClass: 2
Flags: MW
HStem: 0 85<252 304 300 304 300 349> 636 20G<43 131 131 131 472 557 557 557>
VStem: 43 514<656 656>
AnchorPoint: "Anchor-3" 302 -20 basechar 0
AnchorPoint: "Anchor-0" 300 676 basechar 0
LayerCount: 2
Fore
SplineSet
252 0 m 1
 43 656 l 1
 131 656 l 1
 237 302 l 2
 260 224 276 162 300 85 c 1
 304 85 l 1
 328 162 345 224 367 302 c 2
 472 656 l 1
 557 656 l 1
 349 0 l 1
 252 0 l 1
EndSplineSet
EndChar

StartChar: W
Encoding: 87 87 24
Width: 600
GlyphClass: 2
Flags: MW
HStem: 0 93<110 168 165 168 165 212 438 442> 382 106<299 302 299 299> 637 20G<10 104 104 104 500 590 590 590>
VStem: 10 580<657 657>
AnchorPoint: "Anchor-3" 303 -20 basechar 0
AnchorPoint: "Anchor-0" 300 676 basechar 0
LayerCount: 2
Fore
SplineSet
110 0 m 1
 10 657 l 1
 104 657 l 1
 152 245 l 2
 158 190 162 158 165 93 c 1
 168 93 l 1
 180 158 187 190 200 244 c 2
 264 488 l 1
 344 488 l 1
 406 244 l 2
 420 190 426 158 438 93 c 1
 442 93 l 1
 446 158 448 190 454 244 c 2
 500 657 l 1
 590 657 l 1
 494 0 l 1
 390 0 l 1
 326 264 l 2
 316 304 308 342 302 382 c 1
 299 382 l 1
 292 342 286 304 276 264 c 2
 212 0 l 1
 110 0 l 1
EndSplineSet
EndChar

StartChar: X
Encoding: 88 88 25
Width: 600
GlyphClass: 2
Flags: MW
HStem: 0 21G<54 54 54 142 454 454 454 546> 636 20G<67 159 159 159 445 533 533 533>
VStem: 54 492<0 0>
AnchorPoint: "Anchor-3" 300 -20 basechar 0
AnchorPoint: "Anchor-2" 495 0 basechar 0
AnchorPoint: "Anchor-0" 300 676 basechar 0
LayerCount: 2
Fore
SplineSet
54 0 m 1
 250 339 l 1
 67 656 l 1
 159 656 l 1
 251 488 l 2
 268 458 283 431 304 393 c 1
 308 393 l 1
 326 431 339 458 355 488 c 2
 445 656 l 1
 533 656 l 1
 350 335 l 1
 546 0 l 1
 454 0 l 1
 355 177 l 2
 337 209 319 242 297 282 c 1
 293 282 l 1
 274 242 257 209 240 177 c 2
 142 0 l 1
 54 0 l 1
EndSplineSet
EndChar

StartChar: Y
Encoding: 89 89 26
Width: 600
GlyphClass: 2
Flags: MW
HStem: 0 21G<258 258 258 342> 636 20G<38 126 126 126 476 562 562 562>
VStem: 258 84<0 234 0 234>
AnchorPoint: "Anchor-6" 300 0 basechar 0
AnchorPoint: "Anchor-3" 300 -20 basechar 0
AnchorPoint: "Anchor-0" 300 676 basechar 0
LayerCount: 2
Fore
SplineSet
258 0 m 1
 258 234 l 1
 38 656 l 1
 126 656 l 1
 225 461 l 2
 250 411 273 361 300 308 c 1
 304 308 l 1
 330 361 356 411 381 462 c 2
 476 656 l 1
 562 656 l 1
 342 234 l 1
 342 0 l 1
 258 0 l 1
EndSplineSet
EndChar

StartChar: Z
Encoding: 90 90 27
Width: 600
GlyphClass: 2
Flags: MW
HStem: 0 71<167 539 167 539> 587 70<97 431 97 534>
VStem: 65 474<0 50 50 50>
AnchorPoint: "Anchor-3" 316 -20 basechar 0
AnchorPoint: "Anchor-2" 320 0 basechar 0
AnchorPoint: "Anchor-0" 317 676 basechar 0
LayerCount: 2
Fore
SplineSet
65 0 m 1
 65 50 l 1
 431 587 l 1
 97 587 l 1
 97 657 l 1
 534 657 l 1
 534 607 l 1
 167 71 l 1
 539 71 l 1
 539 0 l 1
 65 0 l 1
EndSplineSet
EndChar

StartChar: a
Encoding: 97 97 28
Width: 600
GlyphClass: 2
Flags: MW
HStem: -12 66<240 280.5> 0 21G<448 515 448 448> 430 68<275.5 351>
VStem: 81 80<104.5 164 104.5 180.5> 433 82<126 254 254 254> 444.5 70.5
AnchorPoint: "Anchor-6" 436 0 basechar 0
AnchorPoint: "Anchor-3" 300 -20 basechar 0
AnchorPoint: "Anchor-2" 473 0 basechar 0
AnchorPoint: "Anchor-0" 320 507 basechar 0
LayerCount: 2
Fore
SplineSet
246 -12 m 0xb8
 155 -12 81 39 81 126 c 0
 81 235 182 288 433 308 c 1
 431 374 398 430 304 430 c 0
 241 430 179 400 134 372 c 1
 102 428 l 1
 151 460 233 498 318 498 c 0
 451 498 515 419 515 298 c 2
 515 0 l 1x78
 448 0 l 1x74
 441 66 l 1
 438 66 l 1xb4
 384 24 315 -12 246 -12 c 0xb8
268 54 m 0
 323 54 378 80 433 126 c 1
 433 254 l 1
 225 237 161 196 161 132 c 0
 161 77 212 54 268 54 c 0
EndSplineSet
Substitution2: "'sups' Superscript lookup 26 subtable" a.sups
Substitution2: "'ss02' Style Set 2 lookup 0 subtable" a.a
EndChar

StartChar: b
Encoding: 98 98 29
Width: 600
GlyphClass: 2
Flags: MW
HStem: -12 69<296.5 349.5 289.5 378> 0 21G<93 159 93 93> 429 69<309.5 366.5> 692 20G<93 175 175 175>
VStem: 93 69.5 93 82<114 356 114 424 518 712> 455 85<190 303.5>
AnchorPoint: "Anchor-3" 310 -20 basechar 0
AnchorPoint: "Anchor-0" 137 736 basechar 0
LayerCount: 2
Fore
SplineSet
320 -12 m 0xb6
 273 -12 215 13 169 54 c 1
 166 54 l 1xba
 159 0 l 1x7a
 93 0 l 1x76
 93 712 l 1
 175 712 l 1
 175 518 l 1
 172 424 l 1
 175 424 l 1
 219 469 281 498 338 498 c 0
 469 498 540 401 540 251 c 0
 540 85 436 -12 320 -12 c 0xb6
307 57 m 0
 392 57 455 130 455 250 c 0
 455 357 415 429 318 429 c 0
 275 429 225 406 175 356 c 1
 175 114 l 1
 221 73 272 57 307 57 c 0
EndSplineSet
Substitution2: "'sups' Superscript lookup 26 subtable" b.sups
EndChar

StartChar: c
Encoding: 99 99 30
Width: 600
GlyphClass: 2
Flags: MW
HStem: -12 68<296 382 296 382> 430 68<298 379.5>
VStem: 80 85<186.5 298 186.5 323.5>
AnchorPoint: "Anchor-3" 340 -20 basechar 0
AnchorPoint: "Anchor-2" 346 0 basechar 0
AnchorPoint: "Anchor-0" 346 507 basechar 0
LayerCount: 2
Fore
SplineSet
346 -12 m 0
 194 -12 80 81 80 242 c 0
 80 405 204 498 351 498 c 0
 430 498 488 466 528 427 c 1
 487 374 l 1
 447 409 405 430 354 430 c 0
 242 430 165 354 165 242 c 0
 165 131 240 56 352 56 c 0
 412 56 462 83 502 117 c 1
 539 64 l 1
 485 16 418 -12 346 -12 c 0
EndSplineSet
Substitution2: "'sups' Superscript lookup 26 subtable" c.sups
EndChar

StartChar: d
Encoding: 100 100 31
Width: 600
GlyphClass: 2
Flags: MW
HStem: -12 69<243 301> 0 21G<439 507 439 439> 429 69<255 310 223.5 318> 692 20G<425 507 507 507>
VStem: 60 85<185 298.5 185 321> 425 82<130 372 372 372 525 712 0 712> 435.5 71.5
AnchorPoint: "Anchor-3" 304 -20 basechar 0
AnchorPoint: "Anchor-2" 295 0 basechar 0
AnchorPoint: "Anchor-0" 459 736 basechar 0
LayerCount: 2
Fore
SplineSet
271 -12 m 0xbc
 144 -12 60 80 60 242 c 0
 60 400 166 498 281 498 c 0
 339 498 384 475 426 435 c 1
 429 435 l 1
 425 525 l 1
 425 712 l 1
 507 712 l 1
 507 0 l 1x7c
 439 0 l 1x7a
 432 64 l 1
 429 64 l 1xba
 389 23 331 -12 271 -12 c 0xbc
288 57 m 0
 336 57 382 82 425 130 c 1
 425 372 l 1
 381 413 339 429 297 429 c 0
 213 429 145 354 145 243 c 0
 145 127 198 57 288 57 c 0
EndSplineSet
Substitution2: "'sups' Superscript lookup 26 subtable" d.sups
EndChar

StartChar: e
Encoding: 101 101 32
Width: 600
GlyphClass: 2
Flags: MW
HStem: -12 66<289.5 369 289.5 369> 220 64<153 463 153 534 151 463> 433 65<278 359.5>
VStem: 68 83<220 220 220 323> 463 75<284 284>
AnchorPoint: "Anchor-6" 404 0 basechar 0
AnchorPoint: "Anchor-3" 316 -20 basechar 0
AnchorPoint: "Anchor-2" 316 0 basechar 0
AnchorPoint: "Anchor-0" 316 507 basechar 0
LayerCount: 2
Fore
SplineSet
330 -12 m 0
 184 -12 68 82 68 244 c 0
 68 402 186 498 316 498 c 0
 456 498 538 407 538 270 c 0
 538 251 536 233 534 220 c 1
 151 220 l 1
 161 110 239 54 340 54 c 0
 398 54 444 72 488 100 c 1
 518 46 l 1
 470 14 408 -12 330 -12 c 0
318 433 m 0
 238 433 168 380 153 284 c 1
 463 284 l 1
 456 384 401 433 318 433 c 0
EndSplineSet
Substitution2: "'sups' Superscript lookup 26 subtable" e.sups
EndChar

StartChar: f
Encoding: 102 102 33
Width: 600
GlyphClass: 2
Flags: MW
HStem: 0 21G<242 242 242 323> 419 67<103 242 323 527> 657 67<402.5 462 371 467>
VStem: 242 81<0 419 0 419 486 527 527 530>
AnchorPoint: "Anchor-3" 291 -20 basechar 0
AnchorPoint: "Anchor-2" 298 0 basechar 0
AnchorPoint: "Anchor-0" 420 736 basechar 0
LayerCount: 2
Fore
SplineSet
242 0 m 1
 242 419 l 1
 103 419 l 1
 103 481 l 1
 242 486 l 1
 242 527 l 2
 242 646 304 724 438 724 c 0
 486 724 532 715 578 696 c 1
 559 634 l 1
 519 652 488 657 446 657 c 0
 359 657 323 609 323 530 c 2
 323 486 l 1
 527 486 l 1
 527 419 l 1
 323 419 l 1
 323 0 l 1
 242 0 l 1
EndSplineSet
Substitution2: "'sups' Superscript lookup 26 subtable" f.sups
EndChar

StartChar: g
Encoding: 103 103 34
Width: 600
GlyphClass: 2
Flags: MW
HStem: -224 60<250 358.5 250 378.5> -8 68<272 279 279 374> 0 21G 154 55<278.5 322 260.5 343.5> 419 67<438 564 438 438> 438 60<260.5 305 239.5 322>
VStem: 72 71<-106.5 -69.5> 100 79<295 358 289 377> 102 69<97 118.5> 403 76<289 340.5 269 358> 485 81<-92 -44>
AnchorPoint: "Anchor-3" 308 -219 basechar 0
AnchorPoint: "Anchor-0" 307 507 basechar 0
LayerCount: 2
Fore
SplineSet
296 -224 m 0xda20
 154 -224 72 -175 72 -89 c 0xba40
 72 -50 100 -11 152 19 c 1
 152 23 l 1
 126 37 102 62 102 103 c 0xb8c0
 102 134 123 169 160 194 c 1
 160 198 l 1
 127 223 100 266 100 324 c 0
 100 430 188 498 291 498 c 0xd540
 319 498 342 494 363 486 c 1
 564 486 l 1
 564 419 l 1
 438 419 l 1
 460 396 479 360 479 321 c 0
 479 217 396 154 291 154 c 0
 266 154 236 160 209 172 c 1
 185 157 171 139 171 116 c 0xd8c0
 171 78 208 60 272 60 c 2
 381 60 l 2
 506 60 566 28 566 -54 c 0
 566 -145 461 -224 296 -224 c 0xda20
291 209 m 0xd540
 353 209 403 254 403 324 c 0
 403 392 353 438 291 438 c 0
 230 438 179 392 179 324 c 0
 179 254 230 209 291 209 c 0xd540
302 -164 m 0xba20
 415 -164 485 -117 485 -67 c 0
 485 -21 448 -8 374 -8 c 2
 279 -8 l 2xd920
 251 -8 226 -6 205 0 c 1
 159 -25 143 -53 143 -81 c 0
 143 -132 198 -164 302 -164 c 0xba20
EndSplineSet
Substitution2: "'sups' Superscript lookup 26 subtable" g.sups
Substitution2: "'ss03' Style Set 3 lookup 1 subtable" g.a
EndChar

StartChar: h
Encoding: 104 104 35
Width: 600
GlyphClass: 2
Flags: MW
HStem: 0 21G<93 93 93 175 441 441 441 523> 427 71<317 369> 692 20G<93 175 175 175>
VStem: 93 82<0 339 518 712> 441 82<0 291 291 302 0 337>
AnchorPoint: "Anchor-3" 314 -20 basechar 0
AnchorPoint: "Anchor-2" 134 0 basechar 0
AnchorPoint: "Anchor-0" 131 736 basechar 0
LayerCount: 2
Fore
SplineSet
93 0 m 1
 93 712 l 1
 175 712 l 1
 175 518 l 1
 170 403 l 1
 173 403 l 1
 223 457 279 498 355 498 c 0
 470 498 523 430 523 302 c 2
 523 0 l 1
 441 0 l 1
 441 291 l 2
 441 383 409 427 329 427 c 0
 271 427 232 398 175 339 c 1
 175 0 l 1
 93 0 l 1
EndSplineSet
Substitution2: "'sups' Superscript lookup 26 subtable" h.sups
EndChar

StartChar: i
Encoding: 105 105 36
Width: 600
GlyphClass: 2
Flags: MW
HStem: 0 21G<316 316 316 398> 419 67<90 316 90 398> 588 128<329.5 366.5>
VStem: 282 132<632.5 671> 316 82<0 419 419 419>
AnchorPoint: "Anchor-6" 356 0 basechar 0
AnchorPoint: "Anchor-3" 348 -20 basechar 0
AnchorPoint: "Anchor-2" 354 0 basechar 0
AnchorPoint: "Anchor-0" 348 738 basechar 0
LayerCount: 2
Fore
SplineSet
316 0 m 1xe8
 316 419 l 1
 90 419 l 1
 90 486 l 1
 398 486 l 1
 398 0 l 1
 316 0 l 1xe8
348 588 m 0xf0
 311 588 282 613 282 652 c 0
 282 690 311 716 348 716 c 0
 385 716 414 690 414 652 c 0
 414 613 385 588 348 588 c 0xf0
EndSplineSet
Substitution2: "Single Substitution lookup 34 subtable" dotlessi
Substitution2: "'sups' Superscript lookup 26 subtable" i.sups
Substitution2: "'ss04' Style Set 4 lookup 2 subtable" i.a
EndChar

StartChar: j
Encoding: 106 106 37
Width: 600
GlyphClass: 2
Flags: MW
HStem: -217 67<174.5 241.5 174.5 272.5> 419 67<90 316 90 398> 588 128<329.5 366.5>
VStem: 282 132<632.5 671> 316 82<-18 -12 -12 419 419 419>
AnchorPoint: "Anchor-3" 237 -219 basechar 0
AnchorPoint: "Anchor-0" 348 738 basechar 0
LayerCount: 2
Fore
SplineSet
194 -217 m 0xe8
 143 -217 94 -203 55 -184 c 1
 82 -123 l 1
 117 -140 156 -150 193 -150 c 0
 290 -150 316 -101 316 -18 c 2
 316 419 l 1
 90 419 l 1
 90 486 l 1
 398 486 l 1
 398 -12 l 2
 398 -132 351 -217 194 -217 c 0xe8
348 588 m 0xf0
 311 588 282 613 282 652 c 0
 282 690 311 716 348 716 c 0
 385 716 414 690 414 652 c 0
 414 613 385 588 348 588 c 0xf0
EndSplineSet
Substitution2: "Single Substitution lookup 34 subtable" uni0237
Substitution2: "'sups' Superscript lookup 26 subtable" j.sups
EndChar

StartChar: k
Encoding: 107 107 38
Width: 600
GlyphClass: 2
Flags: MW
HStem: 0 21G<106 106 106 188 482 482 482 574> 466 20G<454 548 548 548> 692 20G<106 188 188 188>
VStem: 106 82<0 132 230 712>
AnchorPoint: "Anchor-3" 335 -20 basechar 0
AnchorPoint: "Anchor-0" 178 736 basechar 0
LayerCount: 2
Fore
SplineSet
106 0 m 1
 106 712 l 1
 188 712 l 1
 188 230 l 1
 192 230 l 1
 454 486 l 1
 548 486 l 1
 354 295 l 1
 574 0 l 1
 482 0 l 1
 303 245 l 1
 188 132 l 1
 188 0 l 1
 106 0 l 1
EndSplineSet
Substitution2: "'sups' Superscript lookup 26 subtable" k.sups
EndChar

StartChar: l
Encoding: 108 108 39
Width: 600
GlyphClass: 2
Flags: MW
HStem: -12 68<396 433.5> 645 67<74 247 74 329>
VStem: 247 82<163 645 645 645>
AnchorPoint: "Anchor-4" 288 385 basechar 0
AnchorPoint: "Anchor-3" 385 -20 basechar 0
AnchorPoint: "Anchor-2" 363 0 basechar 0
AnchorPoint: "Anchor-0" 285 736 basechar 0
LayerCount: 2
Fore
SplineSet
407 -12 m 0
 304 -12 247 48 247 163 c 2
 247 645 l 1
 74 645 l 1
 74 712 l 1
 329 712 l 1
 329 157 l 2
 329 86 367 56 425 56 c 0
 453 56 483 63 516 78 c 1
 537 17 l 1
 492 -2 460 -12 407 -12 c 0
EndSplineSet
Substitution2: "'sups' Superscript lookup 26 subtable" l.sups
Substitution2: "'ss04' Style Set 4 lookup 2 subtable" l.a
EndChar

StartChar: m
Encoding: 109 109 40
Width: 600
GlyphClass: 2
Flags: MW
HStem: 0 21G<58 58 58 140 270 270 270 346 476 476 476 558> 427 71<216 238 422 442> 466 20G<58 124 124 124>
VStem: 58 82<0 352 0 486> 270 76<0 342 342 352 0 370> 476 82<0 342 342 348 0 370>
CounterMasks: 1 1c
AnchorPoint: "Anchor-3" 308 -20 basechar 0
AnchorPoint: "Anchor-2" 514 0 basechar 0
AnchorPoint: "Anchor-0" 315 508 basechar 0
LayerCount: 2
Fore
SplineSet
58 0 m 1xdc
 58 486 l 1
 124 486 l 1xbc
 131 422 l 1
 133 422 l 1
 158 467 188 498 244 498 c 0
 292 498 322 470 336 414 c 1
 364 466 394 498 450 498 c 0
 518 498 558 445 558 348 c 2
 558 0 l 1
 476 0 l 1
 476 342 l 2
 476 398 460 427 424 427 c 0
 390 427 372 402 346 352 c 1
 346 0 l 1
 270 0 l 1
 270 342 l 2
 270 398 256 427 220 427 c 0
 186 427 164 402 140 352 c 1
 140 0 l 1
 58 0 l 1xdc
EndSplineSet
Substitution2: "'sups' Superscript lookup 26 subtable" m.sups
EndChar

StartChar: n
Encoding: 110 110 41
Width: 600
GlyphClass: 2
Flags: MW
HStem: 0 21G<93 93 93 175 441 441 441 523> 427 71<317 369> 466 20G<93 161 161 161>
VStem: 93 71.5 93 82<0 339 0 486> 441 82<0 291 291 302 0 337>
AnchorPoint: "Anchor-3" 313 -20 basechar 0
AnchorPoint: "Anchor-2" 480 0 basechar 0
AnchorPoint: "Anchor-0" 318 507 basechar 0
LayerCount: 2
Fore
SplineSet
93 0 m 1xcc
 93 486 l 1xac
 161 486 l 1xb4
 168 403 l 1
 172 403 l 1xd4
 223 457 279 498 355 498 c 0
 470 498 523 430 523 302 c 2
 523 0 l 1
 441 0 l 1
 441 291 l 2
 441 383 409 427 329 427 c 0
 271 427 232 398 175 339 c 1
 175 0 l 1
 93 0 l 1xcc
EndSplineSet
Substitution2: "'sups' Superscript lookup 26 subtable" n.sups
EndChar

StartChar: o
Encoding: 111 111 42
Width: 600
GlyphClass: 2
Flags: MW
HStem: -12 68<253.5 346.5 253.5 364> 430 68<253.5 346.5>
VStem: 60 85<186.5 298 186.5 323.5> 455 85<186.5 298>
AnchorPoint: "Anchor-6" 300 0 basechar 0
AnchorPoint: "Anchor-5" 411 486 basechar 0
AnchorPoint: "Anchor-3" 300 -20 basechar 0
AnchorPoint: "Anchor-2" 300 0 basechar 0
AnchorPoint: "Anchor-0" 300 507 basechar 0
LayerCount: 2
Fore
SplineSet
300 -12 m 0
 172 -12 60 81 60 242 c 0
 60 405 172 498 300 498 c 0
 428 498 540 405 540 242 c 0
 540 81 428 -12 300 -12 c 0
300 56 m 0
 393 56 455 131 455 242 c 0
 455 354 393 430 300 430 c 0
 207 430 145 354 145 242 c 0
 145 131 207 56 300 56 c 0
EndSplineSet
Substitution2: "'sups' Superscript lookup 26 subtable" o.sups
EndChar

StartChar: p
Encoding: 112 112 43
Width: 600
GlyphClass: 2
Flags: MW
HStem: -205 21G<93 93 93 175> -12 69<296.5 348.5 288.5 377.5> 429 69<309 366.5> 466 20G<93 161 161 161>
VStem: 93 71.5 93 82<-205 -41 114 356> 455 85<190 303.5>
AnchorPoint: "Anchor-3" 137 -219 basechar 0
AnchorPoint: "Anchor-0" 321 507 basechar 0
LayerCount: 2
Fore
SplineSet
93 -205 m 1xe6
 93 486 l 1xd6
 161 486 l 1xda
 168 424 l 1
 171 424 l 1xea
 216 467 279 498 339 498 c 0
 470 498 540 401 540 250 c 0
 540 85 436 -12 319 -12 c 0
 274 -12 217 11 174 51 c 1
 171 51 l 1
 175 -41 l 1
 175 -205 l 1
 93 -205 l 1xe6
305 57 m 0
 392 57 455 130 455 250 c 0
 455 357 415 429 318 429 c 0
 275 429 225 406 175 356 c 1xe6
 175 114 l 1
 221 73 272 57 305 57 c 0
EndSplineSet
Substitution2: "'sups' Superscript lookup 26 subtable" p.sups
EndChar

StartChar: q
Encoding: 113 113 44
Width: 600
GlyphClass: 2
Flags: MW
HStem: -205 21G<425 425 425 507> -12 69<243 300> 429 69<255 310.5 223.5 318> 466 20G<441 507 507 507>
VStem: 60 85<185 298.5 185 321> 425 82<-205 -28 -28 -28 130 372 372 372> 437.5 69.5
AnchorPoint: "Anchor-3" 461 -219 basechar 0
AnchorPoint: "Anchor-0" 304 507 basechar 0
LayerCount: 2
Fore
SplineSet
425 -205 m 1xec
 425 -28 l 1
 429 62 l 1
 426 62 l 1xec
 386 21 330 -12 270 -12 c 0
 144 -12 60 80 60 242 c 0
 60 400 166 498 281 498 c 0
 340 498 385 475 431 432 c 1
 434 432 l 1xea
 441 486 l 1xda
 507 486 l 1xdc
 507 -205 l 1
 425 -205 l 1xec
288 57 m 0
 336 57 382 82 425 130 c 1
 425 372 l 1
 381 413 339 429 297 429 c 0
 213 429 145 354 145 243 c 0
 145 127 198 57 288 57 c 0
EndSplineSet
Substitution2: "'sups' Superscript lookup 26 subtable" q.sups
EndChar

StartChar: r
Encoding: 114 114 45
Width: 600
GlyphClass: 2
Flags: MW
HStem: 0 21G<146 146 146 228> 424 74<396 447> 466 20G<146 214 214 214> 478 20
VStem: 146 71.5 146 82<0 285 0 486>
AnchorPoint: "Anchor-3" 191 -20 basechar 0
AnchorPoint: "Anchor-2" 183 0 basechar 0
AnchorPoint: "Anchor-0" 356 507 basechar 0
LayerCount: 2
Fore
SplineSet
146 0 m 1xc4
 146 486 l 1xa4
 214 486 l 1xa8
 221 371 l 1
 224 371 l 1
 275 449 351 498 441 498 c 0xc8
 477 498 507 493 537 478 c 1x94
 518 407 l 1
 484 419 466 424 428 424 c 0
 355 424 286 386 228 285 c 1
 228 0 l 1
 146 0 l 1xc4
EndSplineSet
Substitution2: "'sups' Superscript lookup 26 subtable" r.sups
EndChar

StartChar: s
Encoding: 115 115 46
Width: 600
GlyphClass: 2
Flags: MW
HStem: -12 64<275 361 275 379.5> 434 64<254.5 327>
VStem: 101 83<343 382.5 343 399> 443 83<107.5 146.5>
AnchorPoint: "Anchor-3" 309 -20 basechar 0
AnchorPoint: "Anchor-2" 314 0 basechar 0
AnchorPoint: "Anchor-0" 303 507 basechar 0
LayerCount: 2
Fore
SplineSet
310 -12 m 0
 215 -12 130 23 71 64 c 1
 109 118 l 1
 165 78 230 52 320 52 c 0
 402 52 443 87 443 128 c 0
 443 165 423 191 291 218 c 0
 165 244 101 287 101 360 c 0
 101 438 170 498 303 498 c 0
 377 498 451 469 499 436 c 1
 459 383 l 1
 414 414 358 434 296 434 c 0
 213 434 184 401 184 364 c 0
 184 322 226 304 325 283 c 0
 487 248 526 207 526 133 c 0
 526 54 449 -12 310 -12 c 0
EndSplineSet
Substitution2: "'sups' Superscript lookup 26 subtable" s.sups
EndChar

StartChar: t
Encoding: 116 116 47
Width: 600
GlyphClass: 2
Flags: MW
HStem: -12 67<364 424.5> 419 67<69 209 288 527>
VStem: 206 82<189 419> 214.5 73.5
AnchorPoint: "Anchor-3" 380 -20 basechar 0
AnchorPoint: "Anchor-2" 389 0 basechar 0
AnchorPoint: "Anchor-0" 256 643 basechar 0
LayerCount: 2
Fore
SplineSet
394 -12 m 0xe0
 252 -12 206 69 206 189 c 2
 206 419 l 1xe0
 69 419 l 1
 69 481 l 1
 209 486 l 1
 220 642 l 1xd0
 288 642 l 1
 288 486 l 1
 527 486 l 1
 527 419 l 1
 288 419 l 1
 288 188 l 2
 288 101 317 55 411 55 c 0
 457 55 493 64 528 77 c 1
 546 17 l 1
 502 1 455 -12 394 -12 c 0xe0
EndSplineSet
Substitution2: "'sups' Superscript lookup 26 subtable" t.sups
EndChar

StartChar: u
Encoding: 117 117 48
Width: 600
GlyphClass: 2
Flags: MW
HStem: -12 71<231.5 283.5> 0 21G<438 505 438 438> 466 20G<77 160 160 160 423 505 505 505>
VStem: 77 83<184 195 195 486> 423 82<149 486 0 486> 434.5 70.5
AnchorPoint: "Anchor-6" 426 0 basechar 0
AnchorPoint: "Anchor-3" 300 -20 basechar 0
AnchorPoint: "Anchor-2" 464 0 basechar 0
AnchorPoint: "Anchor-0" 295 507 basechar 0
LayerCount: 2
Fore
SplineSet
246 -12 m 0xb8
 130 -12 77 56 77 184 c 2
 77 486 l 1
 160 486 l 1
 160 195 l 2
 160 103 191 59 272 59 c 0
 328 59 369 86 423 149 c 1xb8
 423 486 l 1
 505 486 l 1
 505 0 l 1x78
 438 0 l 1x74
 431 85 l 1
 427 85 l 1xb4
 378 28 321 -12 246 -12 c 0xb8
EndSplineSet
Substitution2: "'sups' Superscript lookup 26 subtable" u.sups
EndChar

StartChar: v
Encoding: 118 118 49
Width: 600
GlyphClass: 2
Flags: MW
HStem: 0 67<256 305 301 305 301 348> 466 20G<51 134 134 134 470 549 549 549>
VStem: 51 498<486 486>
AnchorPoint: "Anchor-3" 300 -20 basechar 0
AnchorPoint: "Anchor-0" 300 507 basechar 0
LayerCount: 2
Fore
SplineSet
256 0 m 1
 51 486 l 1
 134 486 l 1
 246 210 l 2
 266 161 284 113 301 67 c 1
 305 67 l 1
 322 113 338 161 358 210 c 2
 470 486 l 1
 549 486 l 1
 348 0 l 1
 256 0 l 1
EndSplineSet
Substitution2: "'sups' Superscript lookup 26 subtable" v.sups
EndChar

StartChar: w
Encoding: 119 119 50
Width: 600
GlyphClass: 2
Flags: MW
HStem: 0 70<114 174 170 174 170 220 432 436> 376 80<298 302 298 298> 466 20G<8 90 90 90 516 592 592 592>
VStem: 8 584<486 486>
AnchorPoint: "Anchor-3" 300 -20 basechar 0
AnchorPoint: "Anchor-0" 300 507 basechar 0
LayerCount: 2
Fore
SplineSet
114 0 m 1
 8 486 l 1
 90 486 l 1xb0
 148 204 l 2
 157 158 164 116 170 70 c 1
 174 70 l 1
 180 116 191 159 202 204 c 2
 262 456 l 1
 344 456 l 1xf0
 402 204 l 2
 413 158 426 116 432 70 c 1
 436 70 l 1
 444 116 449 158 458 204 c 2
 516 486 l 1
 592 486 l 1xb0
 488 0 l 1
 382 0 l 1
 326 232 l 2
 318 266 310 314 302 376 c 1
 298 376 l 1xf0
 290 314 282 266 274 232 c 2
 220 0 l 1
 114 0 l 1
EndSplineSet
Substitution2: "'sups' Superscript lookup 26 subtable" w.sups
EndChar

StartChar: x
Encoding: 120 120 51
Width: 600
GlyphClass: 2
Flags: MW
HStem: 0 21G<64 64 64 152 445 445 445 535> 466 20G<78 169 169 169 435 522 522 522>
VStem: 64 471<0 0>
AnchorPoint: "Anchor-3" 300 -20 basechar 0
AnchorPoint: "Anchor-2" 480 0 basechar 0
AnchorPoint: "Anchor-0" 300 507 basechar 0
LayerCount: 2
Fore
SplineSet
64 0 m 1
 249 252 l 1
 78 486 l 1
 169 486 l 1
 246 379 l 2
 263 353 283 324 303 297 c 1
 307 297 l 1
 325 324 345 354 362 381 c 2
 435 486 l 1
 522 486 l 1
 349 245 l 1
 535 0 l 1
 445 0 l 1
 360 112 l 2
 340 140 317 172 296 200 c 1
 292 200 l 1
 272 171 252 143 232 112 c 2
 152 0 l 1
 64 0 l 1
EndSplineSet
Substitution2: "'sups' Superscript lookup 26 subtable" x.sups
EndChar

StartChar: y
Encoding: 121 121 52
Width: 600
GlyphClass: 2
Flags: MW
HStem: -209 68<120.5 162 120.5 186> 466 20G<49 132 132 132 473 551 551 551>
VStem: 49 502<486 486>
AnchorPoint: "Anchor-6" 262 -105 basechar 0
AnchorPoint: "Anchor-3" 267 -219 basechar 0
AnchorPoint: "Anchor-0" 304 507 basechar 0
LayerCount: 2
Fore
SplineSet
131 -209 m 0
 108 -209 84 -205 67 -199 c 1
 84 -134 l 1
 97 -138 113 -141 128 -141 c 0
 196 -141 237 -97 261 -37 c 2
 276 -1 l 1
 49 486 l 1
 132 486 l 1
 251 217 l 2
 270 174 291 123 311 76 c 1
 315 76 l 1
 332 122 351 173 367 217 c 2
 473 486 l 1
 551 486 l 1
 337 -40 l 2
 301 -136 241 -209 131 -209 c 0
EndSplineSet
Substitution2: "'sups' Superscript lookup 26 subtable" y.sups
EndChar

StartChar: z
Encoding: 122 122 53
Width: 600
GlyphClass: 2
Flags: MW
HStem: 0 67<188 531 188 531> 419 67<108 404 108 522>
VStem: 71 460<0 44 44 44>
AnchorPoint: "Anchor-3" 314 -20 basechar 0
AnchorPoint: "Anchor-2" 320 0 basechar 0
AnchorPoint: "Anchor-0" 322 507 basechar 0
LayerCount: 2
Fore
SplineSet
71 0 m 1
 71 44 l 1
 404 419 l 1
 108 419 l 1
 108 486 l 1
 522 486 l 1
 522 442 l 1
 188 67 l 1
 531 67 l 1
 531 0 l 1
 71 0 l 1
EndSplineSet
Substitution2: "'sups' Superscript lookup 26 subtable" z.sups
EndChar

StartChar: Agrave
Encoding: 192 192 54
Width: 600
Flags: MW
HStem: 0 21G<32 32 32 117 480 480 480 568> 200 67<201 397 201 418 180 397> 588 68<297 301 297 297>
VStem: 32 536<0 0>
LayerCount: 2
Fore
SplineSet
232 367 m 2
 201 267 l 1
 397 267 l 1
 366 367 l 2
 343 440 321 512 301 588 c 1
 297 588 l 1
 276 512 255 440 232 367 c 2
32 0 m 1
 253 656 l 1
 347 656 l 1
 568 0 l 1
 480 0 l 1
 418 200 l 1
 180 200 l 1
 117 0 l 1
 32 0 l 1
329 697 m 1
 177 812 l 1
 224 867 l 1
 365 739 l 1
 329 697 l 1
EndSplineSet
EndChar

StartChar: Aacute
Encoding: 193 193 55
Width: 600
GlyphClass: 2
Flags: MW
HStem: 0 21G<32 32 32 117 480 480 480 568> 200 67<201 397 201 418 180 397> 588 68<297 301 297 297>
VStem: 32 536<0 0>
AnchorPoint: "Anchor-6" 504 0 basechar 0
LayerCount: 2
Fore
SplineSet
232 367 m 2
 201 267 l 1
 397 267 l 1
 366 367 l 2
 343 440 321 512 301 588 c 1
 297 588 l 1
 276 512 255 440 232 367 c 2
32 0 m 1
 253 656 l 1
 347 656 l 1
 568 0 l 1
 480 0 l 1
 418 200 l 1
 180 200 l 1
 117 0 l 1
 32 0 l 1
271 697 m 1
 235 739 l 1
 376 867 l 1
 423 812 l 1
 271 697 l 1
EndSplineSet
EndChar

StartChar: Acircumflex
Encoding: 194 194 56
Width: 600
Flags: MW
HStem: 0 21G<32 32 32 117 480 480 480 568> 200 67<201 397 201 418 180 397> 588 68<297 301 297 297> 705 20G<152 152 448 448> 792 46<298 302 298 298>
VStem: 32 536<0 0>
LayerCount: 2
Fore
SplineSet
232 367 m 2
 201 267 l 1
 397 267 l 1
 366 367 l 2
 343 440 321 512 301 588 c 1
 297 588 l 1
 276 512 255 440 232 367 c 2
32 0 m 1
 253 656 l 1
 347 656 l 1
 568 0 l 1
 480 0 l 1
 418 200 l 1
 180 200 l 1
 117 0 l 1
 32 0 l 1
188 699 m 1
 152 725 l 1
 257 838 l 1
 343 838 l 1
 448 725 l 1
 412 699 l 1
 302 792 l 1
 298 792 l 1
 188 699 l 1
EndSplineSet
EndChar

StartChar: Atilde
Encoding: 195 195 57
Width: 600
Flags: MW
HStem: 0 21G<32 32 32 117 480 480 480 568> 200 67<201 397 201 418 180 397> 588 68<297 301 297 297> 698 20G<123 123> 709 61<349.5 385.5 349.5 405> 780 61<214.5 250.5>
VStem: 123 56<714 718> 421 56<832 836>
LayerCount: 2
Fore
SplineSet
232 367 m 2xf7
 201 267 l 1
 397 267 l 1
 366 367 l 2
 343 440 321 512 301 588 c 1
 297 588 l 1
 276 512 255 440 232 367 c 2xf7
32 0 m 1
 253 656 l 1
 347 656 l 1
 568 0 l 1
 480 0 l 1
 418 200 l 1
 180 200 l 1
 117 0 l 1
 32 0 l 1
375 709 m 0xef
 300 709 274 780 227 780 c 0
 202 780 183 757 179 714 c 1
 123 718 l 1xf7
 127 794 165 841 225 841 c 0
 300 841 326 770 373 770 c 0
 398 770 416 793 421 836 c 1
 477 832 l 1
 473 755 435 709 375 709 c 0xef
EndSplineSet
EndChar

StartChar: Adieresis
Encoding: 196 196 58
Width: 600
GlyphClass: 2
Flags: MW
HStem: 0 21G<32 32 32 117 480 480 480 568> 200 67<201 397 201 418 180 397> 588 68<297 301 297 297> 715 101<194.5 223.5 376.5 405.5>
VStem: 158 101<751 781> 341 101<751 781>
AnchorPoint: "Anchor-6" 504 0 basechar 0
LayerCount: 2
Fore
SplineSet
232 367 m 2
 201 267 l 1
 397 267 l 1
 366 367 l 2
 343 440 321 512 301 588 c 1
 297 588 l 1
 276 512 255 440 232 367 c 2
32 0 m 1
 253 656 l 1
 347 656 l 1
 568 0 l 1
 480 0 l 1
 418 200 l 1
 180 200 l 1
 117 0 l 1
 32 0 l 1
209 715 m 0
 180 715 158 736 158 766 c 0
 158 796 180 816 209 816 c 0
 238 816 259 796 259 766 c 0
 259 736 238 715 209 715 c 0
391 715 m 0
 362 715 341 736 341 766 c 0
 341 796 362 816 391 816 c 0
 420 816 442 796 442 766 c 0
 442 736 420 715 391 715 c 0
EndSplineSet
EndChar

StartChar: Amacron
Encoding: 256 256 59
Width: 600
Flags: MW
HStem: 0 21G<32 32 32 117 480 480 480 568> 200 67<201 397 201 418 180 397> 588 68<297 301 297 297> 735 57<166 434 166 434>
VStem: 32 536<0 0> 166 268<735 792 735 792>
LayerCount: 2
Fore
SplineSet
232 367 m 2xf8
 201 267 l 1
 397 267 l 1
 366 367 l 2
 343 440 321 512 301 588 c 1
 297 588 l 1
 276 512 255 440 232 367 c 2xf8
32 0 m 1
 253 656 l 1
 347 656 l 1
 568 0 l 1
 480 0 l 1
 418 200 l 1
 180 200 l 1
 117 0 l 1
 32 0 l 1
166 735 m 1xf4
 166 792 l 1
 434 792 l 1
 434 735 l 1
 166 735 l 1xf4
EndSplineSet
EndChar

StartChar: Abreve
Encoding: 258 258 60
Width: 600
Flags: MW
HStem: 0 21G<32 32 32 117 480 480 480 568> 200 67<201 397 201 418 180 397> 588 68<297 301 297 297> 705 53<271.5 328.5 271.5 346.5>
VStem: 154 50<834 842> 396 50<834 842>
LayerCount: 2
Fore
SplineSet
232 367 m 2
 201 267 l 1
 397 267 l 1
 366 367 l 2
 343 440 321 512 301 588 c 1
 297 588 l 1
 276 512 255 440 232 367 c 2
32 0 m 1
 253 656 l 1
 347 656 l 1
 568 0 l 1
 480 0 l 1
 418 200 l 1
 180 200 l 1
 117 0 l 1
 32 0 l 1
300 705 m 0
 207 705 162 764 154 834 c 1
 204 842 l 1
 212 795 243 758 300 758 c 0
 357 758 388 795 396 842 c 1
 446 834 l 1
 438 764 393 705 300 705 c 0
EndSplineSet
EndChar

StartChar: Aring
Encoding: 197 197 61
Width: 600
GlyphClass: 2
Flags: MW
HStem: 0 21G<32 32 32 117 480 480 480 568> 200 67<201 397 201 418 180 397> 588 68<297 301 297 297> 699 36<285.5 313.5 285.5 327.5> 843 37<285.5 313.5>
VStem: 203 45<771.5 806 771.5 816.5> 351 46<771.5 806>
AnchorPoint: "Anchor-6" 504 0 basechar 0
LayerCount: 2
Fore
SplineSet
232 367 m 2
 201 267 l 1
 397 267 l 1
 366 367 l 2
 343 440 321 512 301 588 c 1
 297 588 l 1
 276 512 255 440 232 367 c 2
32 0 m 1
 253 656 l 1
 347 656 l 1
 568 0 l 1
 480 0 l 1
 418 200 l 1
 180 200 l 1
 117 0 l 1
 32 0 l 1
300 699 m 0
 244 699 203 735 203 789 c 0
 203 844 244 880 300 880 c 0
 355 880 397 844 397 789 c 0
 397 735 355 699 300 699 c 0
300 735 m 0
 327 735 351 754 351 789 c 0
 351 823 327 843 300 843 c 0
 271 843 248 823 248 789 c 0
 248 754 271 735 300 735 c 0
EndSplineSet
EndChar

StartChar: Aringacute
Encoding: 506 506 62
Width: 600
Flags: MW
HStem: 0 21G<32 32 32 117 480 480 480 568> 200 67<201 397 201 418 180 397> 588 68<297 301 297 297> 699 36<285.5 313.5 285.5 327.5>
VStem: 203 45<771.5 805> 351 46<771.5 806>
LayerCount: 2
Fore
SplineSet
232 367 m 2
 201 267 l 1
 397 267 l 1
 366 367 l 2
 343 440 321 512 301 588 c 1
 297 588 l 1
 276 512 255 440 232 367 c 2
32 0 m 1
 253 656 l 1
 347 656 l 1
 568 0 l 1
 480 0 l 1
 418 200 l 1
 180 200 l 1
 117 0 l 1
 32 0 l 1
300 699 m 0
 244 699 203 735 203 789 c 0
 203 821 217 847 240 863 c 2
 372 968 l 1
 409 918 l 1
 330 876 l 1
 370 865 397 833 397 789 c 0
 397 735 355 699 300 699 c 0
300 735 m 0
 327 735 351 754 351 789 c 0
 351 823 327 843 300 843 c 0
 271 843 248 823 248 789 c 0
 248 754 271 735 300 735 c 0
EndSplineSet
EndChar

StartChar: uni01CD
Encoding: 461 461 63
Width: 600
Flags: MW
HStem: 0 21G<32 32 32 117 480 480 480 568> 200 67<201 397 201 418 180 397> 588 68<297 301 297 297> 706 47<257 302 298 302 298 343>
VStem: 32 536<0 0>
LayerCount: 2
Fore
SplineSet
232 367 m 2
 201 267 l 1
 397 267 l 1
 366 367 l 2
 343 440 321 512 301 588 c 1
 297 588 l 1
 276 512 255 440 232 367 c 2
32 0 m 1
 253 656 l 1
 347 656 l 1
 568 0 l 1
 480 0 l 1
 418 200 l 1
 180 200 l 1
 117 0 l 1
 32 0 l 1
257 706 m 1
 152 819 l 1
 188 845 l 1
 298 753 l 1
 302 753 l 1
 412 845 l 1
 448 819 l 1
 343 706 l 1
 257 706 l 1
EndSplineSet
EndChar

StartChar: Aogonek
Encoding: 260 260 64
Width: 600
GlyphClass: 2
Flags: MW
HStem: -225 58<516.5 534> 0 21G<32 117 32 32 480 499 480 480 568 568> 200 67<201 397 201 418 180 397> 588 68<297 301 297 297>
VStem: 412 65<-133 -103>
AnchorPoint: "Anchor-0" 300 676 basechar 0
LayerCount: 2
Fore
SplineSet
515 -225 m 0
 457 -225 412 -195 412 -134 c 0
 412 -72 459 -26 499 0 c 1
 480 0 l 1
 418 200 l 1
 180 200 l 1
 117 0 l 1
 32 0 l 1
 253 656 l 1
 347 656 l 1
 568 0 l 1
 517 -23 477 -67 477 -116 c 0
 477 -150 502 -167 531 -167 c 0
 553 -167 569 -157 581 -146 c 1
 607 -189 l 1
 584 -209 553 -225 515 -225 c 0
232 367 m 2
 201 267 l 1
 397 267 l 1
 366 367 l 2
 343 440 321 512 301 588 c 1
 297 588 l 1
 276 512 255 440 232 367 c 2
EndSplineSet
Ligature2: "'ccmp' Glyph Composition/Decomposition lookup 19 subtable" A uni0328
EndChar

StartChar: uni1EA0
Encoding: 7840 7840 65
Width: 600
Flags: MW
HStem: -215 128<281.5 318.5> 0 21G<32 32 32 117 480 480 480 568> 200 67<201 397 201 418 180 397> 588 68<297 301 297 297>
VStem: 234 132<-170.5 -132>
LayerCount: 2
Fore
SplineSet
232 367 m 2
 201 267 l 1
 397 267 l 1
 366 367 l 2
 343 440 321 512 301 588 c 1
 297 588 l 1
 276 512 255 440 232 367 c 2
32 0 m 1
 253 656 l 1
 347 656 l 1
 568 0 l 1
 480 0 l 1
 418 200 l 1
 180 200 l 1
 117 0 l 1
 32 0 l 1
300 -215 m 0
 263 -215 234 -190 234 -151 c 0
 234 -113 263 -87 300 -87 c 0
 337 -87 366 -113 366 -151 c 0
 366 -190 337 -215 300 -215 c 0
EndSplineSet
EndChar

StartChar: uni1EA2
Encoding: 7842 7842 66
Width: 600
Flags: MW
HStem: 0 21G<32 32 32 117 480 480 480 568> 200 67<201 397 201 418 180 397> 588 68<297 301 297 297> 824 48<232 241>
VStem: 315 64<769.5 795>
LayerCount: 2
Fore
SplineSet
232 367 m 2
 201 267 l 1
 397 267 l 1
 366 367 l 2
 343 440 321 512 301 588 c 1
 297 588 l 1
 276 512 255 440 232 367 c 2
32 0 m 1
 253 656 l 1
 347 656 l 1
 568 0 l 1
 480 0 l 1
 418 200 l 1
 180 200 l 1
 117 0 l 1
 32 0 l 1
268 698 m 1
 259 736 l 1
 291 745 315 757 315 782 c 0
 315 808 288 822 232 824 c 1
 241 872 l 1
 328 869 379 842 379 791 c 0
 379 733 326 708 268 698 c 1
EndSplineSet
EndChar

StartChar: uni1EA4
Encoding: 7844 7844 67
Width: 600
Flags: MW
HStem: 0 21G<32 32 32 117 480 480 480 568> 200 67<201 397 201 418 180 397> 588 68<297 301 297 297> 705 20G<171 171 429 429> 768 47<298 302 298 298>
VStem: 32 536<0 0>
LayerCount: 2
Fore
SplineSet
232 367 m 2
 201 267 l 1
 397 267 l 1
 366 367 l 2
 343 440 321 512 301 588 c 1
 297 588 l 1
 276 512 255 440 232 367 c 2
32 0 m 1
 253 656 l 1
 347 656 l 1
 568 0 l 1
 480 0 l 1
 418 200 l 1
 180 200 l 1
 117 0 l 1
 32 0 l 1
205 699 m 1
 171 725 l 1
 264 815 l 1
 336 815 l 1
 429 725 l 1
 395 699 l 1
 302 768 l 1
 298 768 l 1
 205 699 l 1
421 763 m 1
 391 795 l 1
 488 888 l 1
 523 849 l 1
 421 763 l 1
EndSplineSet
EndChar

StartChar: uni1EA6
Encoding: 7846 7846 68
Width: 600
Flags: MW
HStem: 0 21G<32 32 32 117 480 480 480 568> 200 67<201 397 201 418 180 397> 588 68<297 301 297 297> 705 20G<171 171 429 429> 768 47<298 302 298 298>
VStem: 32 536<0 0>
LayerCount: 2
Fore
SplineSet
232 367 m 2
 201 267 l 1
 397 267 l 1
 366 367 l 2
 343 440 321 512 301 588 c 1
 297 588 l 1
 276 512 255 440 232 367 c 2
32 0 m 1
 253 656 l 1
 347 656 l 1
 568 0 l 1
 480 0 l 1
 418 200 l 1
 180 200 l 1
 117 0 l 1
 32 0 l 1
205 699 m 1
 171 725 l 1
 264 815 l 1
 336 815 l 1
 429 725 l 1
 395 699 l 1
 302 768 l 1
 298 768 l 1
 205 699 l 1
179 763 m 1
 89 851 l 1
 124 888 l 1
 209 793 l 1
 179 763 l 1
EndSplineSet
EndChar

StartChar: uni1EA8
Encoding: 7848 7848 69
Width: 600
Flags: MW
HStem: 0 21G<32 32 32 117 480 480 480 568> 200 67<201 397 201 418 180 397> 588 68<297 301 297 297> 705 20G<171 171 429 429> 768 47<298 302 298 298> 864 42<378 387>
VStem: 449 58<814.5 838>
LayerCount: 2
Fore
SplineSet
232 367 m 2
 201 267 l 1
 397 267 l 1
 366 367 l 2
 343 440 321 512 301 588 c 1
 297 588 l 1
 276 512 255 440 232 367 c 2
32 0 m 1
 253 656 l 1
 347 656 l 1
 568 0 l 1
 480 0 l 1
 418 200 l 1
 180 200 l 1
 117 0 l 1
 32 0 l 1
205 699 m 1
 171 725 l 1
 264 815 l 1
 336 815 l 1
 429 725 l 1
 395 699 l 1
 302 768 l 1
 298 768 l 1
 205 699 l 1
415 754 m 1
 404 789 l 1
 429 795 449 804 449 825 c 0
 449 851 428 861 378 864 c 1
 387 906 l 1
 465 903 507 879 507 833 c 0
 507 782 463 762 415 754 c 1
EndSplineSet
EndChar

StartChar: uni1EAA
Encoding: 7850 7850 70
Width: 600
Flags: MW
HStem: 0 21G<32 32 32 117 480 480 480 568> 200 67<201 397 201 418 180 397> 588 68<297 301 297 297> 705 20G<171 171 429 429> 765 47<298 302 298 298> 839 51<341.5 374 341.5 393> 889 50<226 258.5>
VStem: 155 45<843 848> 400 45<931 936>
LayerCount: 2
Fore
SplineSet
232 367 m 2xfb80
 201 267 l 1
 397 267 l 1
 366 367 l 2
 343 440 321 512 301 588 c 1
 297 588 l 1
 276 512 255 440 232 367 c 2xfb80
32 0 m 1
 253 656 l 1
 347 656 l 1
 568 0 l 1
 480 0 l 1
 418 200 l 1
 180 200 l 1
 117 0 l 1
 32 0 l 1
205 699 m 1
 171 725 l 1
 264 812 l 1
 336 812 l 1
 429 725 l 1
 395 699 l 1
 302 765 l 1
 298 765 l 1
 205 699 l 1
366 839 m 0xfd80
 302 839 279 889 238 889 c 0
 214 889 204 872 200 843 c 1
 155 848 l 1
 158 899 180 939 234 939 c 0xfb80
 298 939 321 890 362 890 c 0
 386 890 396 907 400 936 c 1
 445 931 l 1
 442 879 420 839 366 839 c 0xfd80
EndSplineSet
EndChar

StartChar: uni1EAC
Encoding: 7852 7852 71
Width: 600
Flags: MW
HStem: -215 128<281.5 318.5> 0 21G<32 32 32 117 480 480 480 568> 200 67<201 397 201 418 180 397> 588 68<297 301 297 297> 705 20G<152 152 448 448> 792 46<298 302 298 298>
VStem: 234 132<-170.5 -132>
LayerCount: 2
Fore
SplineSet
232 367 m 2
 201 267 l 1
 397 267 l 1
 366 367 l 2
 343 440 321 512 301 588 c 1
 297 588 l 1
 276 512 255 440 232 367 c 2
32 0 m 1
 253 656 l 1
 347 656 l 1
 568 0 l 1
 480 0 l 1
 418 200 l 1
 180 200 l 1
 117 0 l 1
 32 0 l 1
188 699 m 1
 152 725 l 1
 257 838 l 1
 343 838 l 1
 448 725 l 1
 412 699 l 1
 302 792 l 1
 298 792 l 1
 188 699 l 1
300 -215 m 0
 263 -215 234 -190 234 -151 c 0
 234 -113 263 -87 300 -87 c 0
 337 -87 366 -113 366 -151 c 0
 366 -190 337 -215 300 -215 c 0
EndSplineSet
EndChar

StartChar: uni1EAE
Encoding: 7854 7854 72
Width: 600
Flags: MW
HStem: 0 21G<32 32 32 117 480 480 480 568> 200 67<201 397 201 418 180 397> 588 68<297 301 297 297> 705 49<270.5 329.5 270.5 346.5>
VStem: 154 47 399 47<834 842>
LayerCount: 2
Fore
SplineSet
232 367 m 2
 201 267 l 1
 397 267 l 1
 366 367 l 2
 343 440 321 512 301 588 c 1
 297 588 l 1
 276 512 255 440 232 367 c 2
32 0 m 1
 253 656 l 1
 347 656 l 1
 568 0 l 1
 480 0 l 1
 418 200 l 1
 180 200 l 1
 117 0 l 1
 32 0 l 1
300 705 m 0
 207 705 162 764 154 834 c 1
 201 842 l 1
 209 793 241 754 300 754 c 0
 359 754 391 793 399 842 c 1
 446 834 l 1
 438 764 393 705 300 705 c 0
303 803 m 1
 262 832 l 1
 357 948 l 1
 410 912 l 1
 303 803 l 1
EndSplineSet
EndChar

StartChar: uni1EB0
Encoding: 7856 7856 73
Width: 600
Flags: MW
HStem: 0 21G<32 32 32 117 480 480 480 568> 200 67<201 397 201 418 180 397> 588 68<297 301 297 297> 705 49<270.5 329.5 270.5 346.5>
VStem: 154 47 399 47<834 842>
LayerCount: 2
Fore
SplineSet
232 367 m 2
 201 267 l 1
 397 267 l 1
 366 367 l 2
 343 440 321 512 301 588 c 1
 297 588 l 1
 276 512 255 440 232 367 c 2
32 0 m 1
 253 656 l 1
 347 656 l 1
 568 0 l 1
 480 0 l 1
 418 200 l 1
 180 200 l 1
 117 0 l 1
 32 0 l 1
300 705 m 0
 207 705 162 764 154 834 c 1
 201 842 l 1
 209 793 241 754 300 754 c 0
 359 754 391 793 399 842 c 1
 446 834 l 1
 438 764 393 705 300 705 c 0
297 803 m 1
 190 912 l 1
 243 948 l 1
 338 832 l 1
 297 803 l 1
EndSplineSet
EndChar

StartChar: uni1EB2
Encoding: 7858 7858 74
Width: 600
Flags: MW
HStem: 0 21G<32 32 32 117 480 480 480 568> 200 67<201 397 201 418 180 397> 588 68<297 301 297 297> 705 49<270.5 329.5 270.5 346.5> 910 42<241 249>
VStem: 154 47 311 59<860.5 884> 399 47<834 842>
LayerCount: 2
Fore
SplineSet
232 367 m 2
 201 267 l 1
 397 267 l 1
 366 367 l 2
 343 440 321 512 301 588 c 1
 297 588 l 1
 276 512 255 440 232 367 c 2
32 0 m 1
 253 656 l 1
 347 656 l 1
 568 0 l 1
 480 0 l 1
 418 200 l 1
 180 200 l 1
 117 0 l 1
 32 0 l 1
300 705 m 0
 207 705 162 764 154 834 c 1
 201 842 l 1
 209 793 241 754 300 754 c 0
 359 754 391 793 399 842 c 1
 446 834 l 1xff
 438 764 393 705 300 705 c 0
277 800 m 1
 267 835 l 1
 291 841 311 850 311 871 c 0
 311 897 290 907 241 910 c 1
 249 952 l 1
 327 949 370 926 370 879 c 0
 370 828 325 808 277 800 c 1
EndSplineSet
EndChar

StartChar: uni1EB4
Encoding: 7860 7860 75
Width: 600
Flags: MW
HStem: 0 21G<32 32 32 117 480 480 480 568> 200 67<201 397 201 418 180 397> 588 68<297 301 297 297> 708 45<269.5 330.5 269.5 346.5> 843 50<341.5 374> 893 50<226 258.5>
VStem: 155 45<846 851> 157 43<814 846> 157 46<814 822> 397 46<814 822> 400 45<934 939>
LayerCount: 2
Fore
SplineSet
232 367 m 2xf620
 201 267 l 1
 397 267 l 1
 366 367 l 2
 343 440 321 512 301 588 c 1
 297 588 l 1
 276 512 255 440 232 367 c 2xf620
32 0 m 1
 253 656 l 1
 347 656 l 1
 568 0 l 1
 480 0 l 1
 418 200 l 1
 180 200 l 1
 117 0 l 1
 32 0 l 1
300 708 m 0xf540
 207 708 164 758 157 814 c 1xf520
 203 822 l 1xf4a0
 210 786 239 753 300 753 c 0
 361 753 390 786 397 822 c 1
 443 814 l 1
 436 758 393 708 300 708 c 0xf540
366 843 m 0xfa20
 302 843 279 893 238 893 c 0
 214 893 204 876 200 846 c 1
 155 851 l 1
 158 903 180 943 234 943 c 0xf620
 298 943 321 893 362 893 c 0
 386 893 396 910 400 939 c 1
 445 934 l 1
 442 883 420 843 366 843 c 0xfa20
EndSplineSet
EndChar

StartChar: uni1EB6
Encoding: 7862 7862 76
Width: 600
Flags: MW
HStem: -215 128<281.5 318.5> 0 21G<32 32 32 117 480 480 480 568> 200 67<201 397 201 418 180 397> 588 68<297 301 297 297> 705 53<271.5 328.5 271.5 346.5>
VStem: 154 50<834 842> 234 132<-170.5 -132> 396 50<834 842>
LayerCount: 2
Fore
SplineSet
232 367 m 2
 201 267 l 1
 397 267 l 1
 366 367 l 2
 343 440 321 512 301 588 c 1
 297 588 l 1
 276 512 255 440 232 367 c 2
32 0 m 1
 253 656 l 1
 347 656 l 1
 568 0 l 1
 480 0 l 1
 418 200 l 1
 180 200 l 1
 117 0 l 1
 32 0 l 1
300 705 m 0xff
 207 705 162 764 154 834 c 1
 204 842 l 1
 212 795 243 758 300 758 c 0
 357 758 388 795 396 842 c 1
 446 834 l 1
 438 764 393 705 300 705 c 0xff
300 -215 m 0xfa
 263 -215 234 -190 234 -151 c 0
 234 -113 263 -87 300 -87 c 0
 337 -87 366 -113 366 -151 c 0
 366 -190 337 -215 300 -215 c 0xfa
EndSplineSet
EndChar

StartChar: AE
Encoding: 198 198 77
Width: 600
GlyphClass: 2
Flags: MW
HStem: 0 71<393 591 393 591> 191 67<185 317 185 317 159 317> 310 71<393 540 393 540> 586 70<393 582 393 393>
VStem: 317 76<71 191 191 191 258 310 381 586>
AnchorPoint: "Anchor-3" 336 -20 basechar 0
AnchorPoint: "Anchor-2" 464 0 basechar 0
AnchorPoint: "Anchor-0" 420 676 basechar 0
LayerCount: 2
Fore
SplineSet
231 377 m 2
 185 258 l 1
 317 258 l 1
 317 590 l 1
 314 590 l 1
 287 518 258 448 231 377 c 2
-1 0 m 1
 263 656 l 1
 582 656 l 1
 582 586 l 1
 393 586 l 1
 393 381 l 1
 540 381 l 1
 540 310 l 1
 393 310 l 1
 393 71 l 1
 591 71 l 1
 591 0 l 1
 317 0 l 1
 317 191 l 1
 159 191 l 1
 86 0 l 1
 -1 0 l 1
EndSplineSet
EndChar

StartChar: AEacute
Encoding: 508 508 78
Width: 600
Flags: MW
HStem: 0 71<393 591 393 591> 191 67<185 317 185 317 159 317> 310 71<393 540 393 540> 586 70<393 582 393 393>
VStem: 317 76<71 191 191 191 258 310 381 586>
LayerCount: 2
Fore
SplineSet
231 377 m 2
 185 258 l 1
 317 258 l 1
 317 590 l 1
 314 590 l 1
 287 518 258 448 231 377 c 2
-1 0 m 1
 263 656 l 1
 582 656 l 1
 582 586 l 1
 393 586 l 1
 393 381 l 1
 540 381 l 1
 540 310 l 1
 393 310 l 1
 393 71 l 1
 591 71 l 1
 591 0 l 1
 317 0 l 1
 317 191 l 1
 159 191 l 1
 86 0 l 1
 -1 0 l 1
391 697 m 1
 355 739 l 1
 496 867 l 1
 543 812 l 1
 391 697 l 1
EndSplineSet
EndChar

StartChar: uni01E2
Encoding: 482 482 79
Width: 600
Flags: MW
HStem: 0 71<393 591 393 591> 191 67<185 317 185 317 159 317> 310 71<393 540 393 540> 586 70<393 582 393 393> 735 57<286 554 286 554>
VStem: 286 268<735 792 735 792> 317 76<71 191 191 191 258 310 381 586>
LayerCount: 2
Fore
SplineSet
231 377 m 2xfa
 185 258 l 1
 317 258 l 1
 317 590 l 1
 314 590 l 1
 287 518 258 448 231 377 c 2xfa
-1 0 m 1
 263 656 l 1
 582 656 l 1
 582 586 l 1
 393 586 l 1
 393 381 l 1
 540 381 l 1
 540 310 l 1
 393 310 l 1
 393 71 l 1
 591 71 l 1
 591 0 l 1
 317 0 l 1
 317 191 l 1
 159 191 l 1
 86 0 l 1
 -1 0 l 1
286 735 m 1xfc
 286 792 l 1
 554 792 l 1
 554 735 l 1
 286 735 l 1xfc
EndSplineSet
EndChar

StartChar: uni0243
Encoding: 579 579 80
Width: 600
Flags: MW
HStem: 0 70<188 294 294 306> 162 62<26 105 188 330> 310 70<188 277 277 294 188 277> 586 70<188 281 188 188>
VStem: 105 83<70 70 70 162 224 310 380 586> 434 82<463.5 524.5> 471 82<151.5 236.5>
LayerCount: 2
Fore
SplineSet
105 0 m 1xfa
 105 162 l 1
 26 162 l 1
 26 218 l 1
 105 224 l 1
 105 656 l 1
 291 656 l 2
 425 656 516 611 516 496 c 0xfc
 516 431 479 373 401 353 c 1
 401 349 l 1
 497 334 553 282 553 192 c 0
 553 63 453 0 306 0 c 2
 105 0 l 1xfa
188 70 m 1
 294 70 l 2
 406 70 471 107 471 196 c 0xfa
 471 277 409 310 294 310 c 2
 188 310 l 1
 188 224 l 1
 330 224 l 1
 330 162 l 1
 188 162 l 1
 188 70 l 1
188 380 m 1
 277 380 l 2
 389 380 434 416 434 489 c 0xfc
 434 560 382 586 281 586 c 2
 188 586 l 1
 188 380 l 1
EndSplineSet
EndChar

StartChar: uni1E06
Encoding: 7686 7686 81
Width: 600
Flags: MW
HStem: -170 57<174 440 174 440> 0 70<182 288 288 300> 310 70<182 271 271 288 182 271> 586 70<182 275 182 182>
VStem: 99 83<70 70 70 310 380 586> 174 266<-170 -113 -170 -113> 428 82<463.5 524.5> 465 82<151.5 236.5>
LayerCount: 2
Fore
SplineSet
99 0 m 1xf9
 99 656 l 1
 285 656 l 2
 419 656 510 611 510 496 c 0xfa
 510 431 473 373 395 353 c 1
 395 349 l 1
 491 334 547 282 547 192 c 0
 547 63 447 0 300 0 c 2
 99 0 l 1xf9
182 380 m 1
 271 380 l 2
 383 380 428 416 428 489 c 0
 428 560 376 586 275 586 c 2
 182 586 l 1
 182 380 l 1
182 70 m 1
 288 70 l 2
 400 70 465 107 465 196 c 0xf9
 465 277 403 310 288 310 c 2
 182 310 l 1
 182 70 l 1
174 -170 m 1xf5
 174 -113 l 1
 440 -113 l 1
 440 -170 l 1
 174 -170 l 1xf5
EndSplineSet
EndChar

StartChar: Ccedilla
Encoding: 199 199 82
Width: 600
Flags: MW
HStem: -226 40<255 263> -10 21G<319 319> -10 71<319 319> 595 73<296 386.5>
VStem: 65 86<247.5 411.5 247.5 433.5> 364 64<-150.5 -123>
LayerCount: 2
Fore
SplineSet
263 -226 m 1xdc
 255 -186 l 1
 339 -180 364 -165 364 -136 c 0
 364 -110 344 -96 287 -88 c 1
 319 -10 l 1
 173 5 65 128 65 328 c 0
 65 539 188 668 359 668 c 0
 437 668 500 630 538 588 c 1
 491 535 l 1
 457 571 414 595 359 595 c 0
 233 595 151 493 151 330 c 0
 151 165 233 61 359 61 c 0
 419 61 465 87 507 134 c 1
 554 83 l 1
 507 28 449 -5 374 -11 c 1xbc
 355 -64 l 1
 401 -75 428 -94 428 -135 c 0
 428 -193 369 -221 263 -226 c 1xdc
EndSplineSet
EndChar

StartChar: Cacute
Encoding: 262 262 83
Width: 600
Flags: MW
HStem: -12 73<296 389 296 394.5> 595 73<296 386.5>
VStem: 65 86<247.5 411.5 247.5 433.5>
LayerCount: 2
Fore
SplineSet
351 -12 m 0
 189 -12 65 114 65 328 c 0
 65 539 188 668 359 668 c 0
 437 668 500 630 538 588 c 1
 491 535 l 1
 457 571 414 595 359 595 c 0
 233 595 151 493 151 330 c 0
 151 165 233 61 359 61 c 0
 419 61 465 87 507 134 c 1
 554 83 l 1
 502 23 438 -12 351 -12 c 0
317 697 m 1
 281 739 l 1
 422 867 l 1
 469 812 l 1
 317 697 l 1
EndSplineSet
EndChar

StartChar: Ccircumflex
Encoding: 264 264 84
Width: 600
Flags: MW
HStem: -12 73<296 389 296 394.5> 595 73<296 386.5> 705 20G<198 198 494 494> 792 46<344 348 344 344>
VStem: 65 86<247.5 411.5 247.5 433.5>
LayerCount: 2
Fore
SplineSet
351 -12 m 0
 189 -12 65 114 65 328 c 0
 65 539 188 668 359 668 c 0
 437 668 500 630 538 588 c 1
 491 535 l 1
 457 571 414 595 359 595 c 0
 233 595 151 493 151 330 c 0
 151 165 233 61 359 61 c 0
 419 61 465 87 507 134 c 1
 554 83 l 1
 502 23 438 -12 351 -12 c 0
234 699 m 1
 198 725 l 1
 303 838 l 1
 389 838 l 1
 494 725 l 1
 458 699 l 1
 348 792 l 1
 344 792 l 1
 234 699 l 1
EndSplineSet
EndChar

StartChar: Ccaron
Encoding: 268 268 85
Width: 600
Flags: MW
HStem: -12 73<296 389 296 394.5> 595 73<296 386.5> 706 47<303 348 344 348 344 389>
VStem: 65 86<247.5 411.5 247.5 433.5>
LayerCount: 2
Fore
SplineSet
351 -12 m 0
 189 -12 65 114 65 328 c 0
 65 539 188 668 359 668 c 0
 437 668 500 630 538 588 c 1
 491 535 l 1
 457 571 414 595 359 595 c 0
 233 595 151 493 151 330 c 0
 151 165 233 61 359 61 c 0
 419 61 465 87 507 134 c 1
 554 83 l 1
 502 23 438 -12 351 -12 c 0
303 706 m 1
 198 819 l 1
 234 845 l 1
 344 753 l 1
 348 753 l 1
 458 845 l 1
 494 819 l 1
 389 706 l 1
 303 706 l 1
EndSplineSet
EndChar

StartChar: Cdotaccent
Encoding: 266 266 86
Width: 600
Flags: MW
HStem: -12 73<296 389 296 394.5> 595 73<296 386.5> 714 113<329.5 362.5>
VStem: 65 86<247.5 411.5 247.5 433.5> 287 118<754 787.5>
LayerCount: 2
Fore
SplineSet
351 -12 m 0
 189 -12 65 114 65 328 c 0
 65 539 188 668 359 668 c 0
 437 668 500 630 538 588 c 1
 491 535 l 1
 457 571 414 595 359 595 c 0
 233 595 151 493 151 330 c 0
 151 165 233 61 359 61 c 0
 419 61 465 87 507 134 c 1
 554 83 l 1
 502 23 438 -12 351 -12 c 0
346 714 m 0
 313 714 287 737 287 771 c 0
 287 804 313 827 346 827 c 0
 379 827 405 804 405 771 c 0
 405 737 379 714 346 714 c 0
EndSplineSet
EndChar

StartChar: Dcaron
Encoding: 270 270 87
Width: 600
Flags: MW
HStem: 0 68<170 243 243 253> 588 68<170 243 170 170> 706 47<257 302 298 302 298 343>
VStem: 87 83<68 68 68 588> 467 86<248 413.5>
LayerCount: 2
Fore
SplineSet
87 0 m 1
 87 656 l 1
 249 656 l 2
 446 656 553 539 553 331 c 0
 553 122 446 0 253 0 c 2
 87 0 l 1
170 68 m 1
 243 68 l 2
 393 68 467 165 467 331 c 0
 467 496 393 588 243 588 c 2
 170 588 l 1
 170 68 l 1
257 706 m 1
 152 819 l 1
 188 845 l 1
 298 753 l 1
 302 753 l 1
 412 845 l 1
 448 819 l 1
 343 706 l 1
 257 706 l 1
EndSplineSet
EndChar

StartChar: uni1E0C
Encoding: 7692 7692 88
Width: 600
Flags: MW
HStem: -215 128<275.5 312.5> 0 68<170 243 243 253> 588 68<170 243 170 170>
VStem: 87 83<68 68 68 588> 228 132<-170.5 -132> 467 86<248 413.5>
LayerCount: 2
Fore
SplineSet
87 0 m 1
 87 656 l 1
 249 656 l 2
 446 656 553 539 553 331 c 0
 553 122 446 0 253 0 c 2
 87 0 l 1
170 68 m 1
 243 68 l 2
 393 68 467 165 467 331 c 0
 467 496 393 588 243 588 c 2
 170 588 l 1
 170 68 l 1
294 -215 m 0
 257 -215 228 -190 228 -151 c 0
 228 -113 257 -87 294 -87 c 0
 331 -87 360 -113 360 -151 c 0
 360 -190 331 -215 294 -215 c 0
EndSplineSet
EndChar

StartChar: uni1E0E
Encoding: 7694 7694 89
Width: 600
Flags: MW
HStem: -170 57<161 427 161 427> 0 68<170 243 243 253> 588 68<170 243 170 170>
VStem: 87 83<68 68 68 588> 161 266<-170 -113 -170 -113> 467 86<248 413.5>
LayerCount: 2
Fore
SplineSet
87 0 m 1xf4
 87 656 l 1
 249 656 l 2
 446 656 553 539 553 331 c 0
 553 122 446 0 253 0 c 2
 87 0 l 1xf4
170 68 m 1
 243 68 l 2
 393 68 467 165 467 331 c 0
 467 496 393 588 243 588 c 2
 170 588 l 1
 170 68 l 1
161 -170 m 1xec
 161 -113 l 1
 427 -113 l 1
 427 -170 l 1
 161 -170 l 1xec
EndSplineSet
EndChar

StartChar: uni1E10
Encoding: 7696 7696 90
Width: 600
Flags: MW
HStem: -226 40<191 199> 0 68<170 243 243 253 253 260> 588 68<170 243 170 170>
VStem: 87 83<68 68 68 588> 300 64<-150.5 -123> 467 86<248 413.5>
LayerCount: 2
Fore
SplineSet
170 68 m 1
 243 68 l 2
 393 68 467 165 467 331 c 0
 467 496 393 588 243 588 c 2
 170 588 l 1
 170 68 l 1
199 -226 m 1
 191 -186 l 1
 275 -180 300 -165 300 -136 c 0
 300 -110 280 -96 223 -88 c 1
 260 0 l 2
 257 0 255 0 253 0 c 2
 87 0 l 1
 87 656 l 1
 249 656 l 2
 446 656 553 539 553 331 c 0
 553 146 469 29 316 5 c 1
 291 -64 l 1
 337 -75 364 -94 364 -135 c 0
 364 -193 305 -221 199 -226 c 1
EndSplineSet
EndChar

StartChar: Dcroat
Encoding: 272 272 91
Width: 600
GlyphClass: 2
Flags: MW
HStem: 0 68<170 243 243 253> 314 62<12 87 170 314> 588 68<170 243 170 170>
VStem: 87 83<68 68 68 314 376 588> 466 87<248 413.5>
AnchorPoint: "Anchor-3" 290 -20 basechar 0
AnchorPoint: "Anchor-0" 299 676 basechar 0
LayerCount: 2
Fore
SplineSet
87 0 m 1
 87 314 l 1
 12 314 l 1
 12 370 l 1
 87 376 l 1
 87 656 l 1
 249 656 l 2
 446 656 553 539 553 331 c 0
 553 122 446 0 253 0 c 2
 87 0 l 1
170 68 m 1
 243 68 l 2
 392 68 466 165 466 331 c 0
 466 496 392 588 243 588 c 2
 170 588 l 1
 170 376 l 1
 314 376 l 1
 314 314 l 1
 170 314 l 1
 170 68 l 1
EndSplineSet
EndChar

StartChar: uni018A
Encoding: 394 394 92
Width: 600
Flags: MW
HStem: 0 68<292 308> 599 69<292 292>
VStem: 20 74<417 485.5 417 509.5> 209 83<68 68 68 595 595 595> 481 86<252.5 419>
LayerCount: 2
Fore
SplineSet
209 0 m 1
 209 595 l 1
 133 580 94 522 94 449 c 0
 94 385 120 350 170 320 c 1
 130 262 l 1
 62 296 20 353 20 445 c 0
 20 574 104 668 269 668 c 0
 470 668 567 549 567 338 c 0
 567 123 470 0 308 0 c 2
 209 0 l 1
292 68 m 1
 313 68 l 2
 422 68 481 167 481 338 c 0
 481 500 424 593 292 599 c 1
 292 68 l 1
EndSplineSet
EndChar

StartChar: Egrave
Encoding: 200 200 93
Width: 600
Flags: MW
HStem: 0 71<198 530 198 530> 309 71<198 470 198 470> 586 70<198 520 198 198>
VStem: 114 84<71 309 380 586>
LayerCount: 2
Fore
SplineSet
114 0 m 1
 114 656 l 1
 520 656 l 1
 520 586 l 1
 198 586 l 1
 198 380 l 1
 470 380 l 1
 470 309 l 1
 198 309 l 1
 198 71 l 1
 530 71 l 1
 530 0 l 1
 114 0 l 1
360 697 m 1
 208 812 l 1
 255 867 l 1
 396 739 l 1
 360 697 l 1
EndSplineSet
EndChar

StartChar: Eacute
Encoding: 201 201 94
Width: 600
GlyphClass: 2
Flags: MW
HStem: 0 71<198 530 198 530> 309 71<198 470 198 470> 586 70<198 520 198 198>
VStem: 114 84<71 309 380 586>
AnchorPoint: "Anchor-6" 429 0 basechar 0
LayerCount: 2
Fore
SplineSet
114 0 m 1
 114 656 l 1
 520 656 l 1
 520 586 l 1
 198 586 l 1
 198 380 l 1
 470 380 l 1
 470 309 l 1
 198 309 l 1
 198 71 l 1
 530 71 l 1
 530 0 l 1
 114 0 l 1
302 697 m 1
 266 739 l 1
 407 867 l 1
 454 812 l 1
 302 697 l 1
EndSplineSet
EndChar

StartChar: Ecircumflex
Encoding: 202 202 95
Width: 600
Flags: MW
HStem: 0 71<198 530 198 530> 309 71<198 470 198 470> 586 70<198 520 198 198> 705 20G<183 183 479 479> 792 46<329 333 329 329>
VStem: 114 84<71 309 380 586>
LayerCount: 2
Fore
SplineSet
114 0 m 1
 114 656 l 1
 520 656 l 1
 520 586 l 1
 198 586 l 1
 198 380 l 1
 470 380 l 1
 470 309 l 1
 198 309 l 1
 198 71 l 1
 530 71 l 1
 530 0 l 1
 114 0 l 1
219 699 m 1
 183 725 l 1
 288 838 l 1
 374 838 l 1
 479 725 l 1
 443 699 l 1
 333 792 l 1
 329 792 l 1
 219 699 l 1
EndSplineSet
MultipleSubs2: "Multiple Substitution lookup 15 subtable" E uni0302
EndChar

StartChar: Ecaron
Encoding: 282 282 96
Width: 600
Flags: MW
HStem: 0 71<198 530 198 530> 309 71<198 470 198 470> 586 70<198 520 198 198> 706 47<288 333 329 333 329 374>
VStem: 114 84<71 309 380 586>
LayerCount: 2
Fore
SplineSet
114 0 m 1
 114 656 l 1
 520 656 l 1
 520 586 l 1
 198 586 l 1
 198 380 l 1
 470 380 l 1
 470 309 l 1
 198 309 l 1
 198 71 l 1
 530 71 l 1
 530 0 l 1
 114 0 l 1
288 706 m 1
 183 819 l 1
 219 845 l 1
 329 753 l 1
 333 753 l 1
 443 845 l 1
 479 819 l 1
 374 706 l 1
 288 706 l 1
EndSplineSet
EndChar

StartChar: Edieresis
Encoding: 203 203 97
Width: 600
Flags: MW
HStem: 0 71<198 530 198 530> 309 71<198 470 198 470> 586 70<198 520 198 198> 715 101<225.5 254.5 407.5 436.5>
VStem: 114 84<71 309 380 586> 189 101<751 781> 372 101<751 781>
LayerCount: 2
Fore
SplineSet
114 0 m 1xe8
 114 656 l 1
 520 656 l 1
 520 586 l 1
 198 586 l 1
 198 380 l 1
 470 380 l 1
 470 309 l 1
 198 309 l 1
 198 71 l 1
 530 71 l 1
 530 0 l 1
 114 0 l 1xe8
240 715 m 0xf6
 211 715 189 736 189 766 c 0
 189 796 211 816 240 816 c 0
 269 816 290 796 290 766 c 0
 290 736 269 715 240 715 c 0xf6
422 715 m 0
 393 715 372 736 372 766 c 0
 372 796 393 816 422 816 c 0
 451 816 473 796 473 766 c 0
 473 736 451 715 422 715 c 0
EndSplineSet
EndChar

StartChar: Emacron
Encoding: 274 274 98
Width: 600
Flags: MW
HStem: 0 71<198 530 198 530> 309 71<198 470 198 470> 586 70<198 520 198 198> 735 57<197 465 197 465>
VStem: 114 84<71 309 380 586> 197 268<735 792 735 792>
LayerCount: 2
Fore
SplineSet
114 0 m 1xf8
 114 656 l 1
 520 656 l 1
 520 586 l 1
 198 586 l 1
 198 380 l 1
 470 380 l 1
 470 309 l 1
 198 309 l 1
 198 71 l 1
 530 71 l 1
 530 0 l 1
 114 0 l 1xf8
197 735 m 1xf4
 197 792 l 1
 465 792 l 1
 465 735 l 1
 197 735 l 1xf4
EndSplineSet
MultipleSubs2: "Multiple Substitution lookup 15 subtable" E uni0304
EndChar

StartChar: Ebreve
Encoding: 276 276 99
Width: 600
Flags: MW
HStem: 0 71<198 530 198 530> 309 71<198 470 198 470> 586 70<198 520 198 198> 705 53<302.5 359.5 302.5 377.5>
VStem: 114 84<71 309 380 586> 185 50<834 842> 427 50<834 842>
LayerCount: 2
Fore
SplineSet
114 0 m 1xf8
 114 656 l 1
 520 656 l 1
 520 586 l 1
 198 586 l 1
 198 380 l 1
 470 380 l 1
 470 309 l 1
 198 309 l 1
 198 71 l 1
 530 71 l 1
 530 0 l 1
 114 0 l 1xf8
331 705 m 0xf6
 238 705 193 764 185 834 c 1
 235 842 l 1
 243 795 274 758 331 758 c 0
 388 758 419 795 427 842 c 1
 477 834 l 1
 469 764 424 705 331 705 c 0xf6
EndSplineSet
EndChar

StartChar: Edotaccent
Encoding: 278 278 100
Width: 600
Flags: MW
HStem: 0 71<198 530 198 530> 309 71<198 470 198 470> 586 70<198 520 198 198> 714 113<314.5 347.5>
VStem: 114 84<71 309 380 586> 272 118<754 787.5>
LayerCount: 2
Fore
SplineSet
114 0 m 1
 114 656 l 1
 520 656 l 1
 520 586 l 1
 198 586 l 1
 198 380 l 1
 470 380 l 1
 470 309 l 1
 198 309 l 1
 198 71 l 1
 530 71 l 1
 530 0 l 1
 114 0 l 1
331 714 m 0
 298 714 272 737 272 771 c 0
 272 804 298 827 331 827 c 0
 364 827 390 804 390 771 c 0
 390 737 364 714 331 714 c 0
EndSplineSet
EndChar

StartChar: Eogonek
Encoding: 280 280 101
Width: 600
GlyphClass: 2
Flags: MW
HStem: -225 58<464 481> 0 71<199 445 526 526 526 530> 309 71<199 470 199 470> 586 70<199 520 199 199>
VStem: 115 84<71 309 380 586> 359 64<-133.5 -104>
AnchorPoint: "Anchor-0" 331 676 basechar 0
LayerCount: 2
Fore
SplineSet
462 -225 m 0
 403 -225 359 -195 359 -134 c 0
 359 -74 401 -26 445 0 c 1
 115 0 l 1
 115 656 l 1
 520 656 l 1
 520 586 l 1
 199 586 l 1
 199 380 l 1
 470 380 l 1
 470 309 l 1
 199 309 l 1
 199 71 l 1
 530 71 l 1
 530 0 l 1
 526 0 l 1
 475 -8 423 -63 423 -116 c 0
 423 -151 450 -167 478 -167 c 0
 499 -167 515 -157 528 -146 c 1
 553 -189 l 1
 530 -209 500 -225 462 -225 c 0
EndSplineSet
Ligature2: "'ccmp' Glyph Composition/Decomposition lookup 19 subtable" E uni0328
EndChar

StartChar: uni1EB8
Encoding: 7864 7864 102
Width: 600
Flags: MW
HStem: -215 128<314.5 351.5> 0 71<198 530 198 530> 309 71<198 470 198 470> 586 70<198 520 198 198>
VStem: 114 84<71 309 380 586> 267 132<-170.5 -132>
LayerCount: 2
Fore
SplineSet
114 0 m 1
 114 656 l 1
 520 656 l 1
 520 586 l 1
 198 586 l 1
 198 380 l 1
 470 380 l 1
 470 309 l 1
 198 309 l 1
 198 71 l 1
 530 71 l 1
 530 0 l 1
 114 0 l 1
333 -215 m 0
 296 -215 267 -190 267 -151 c 0
 267 -113 296 -87 333 -87 c 0
 370 -87 399 -113 399 -151 c 0
 399 -190 370 -215 333 -215 c 0
EndSplineSet
EndChar

StartChar: uni1EBA
Encoding: 7866 7866 103
Width: 600
Flags: MW
HStem: 0 71<198 530 198 530> 309 71<198 470 198 470> 586 70<198 520 198 198> 824 48<263 272>
VStem: 114 84<71 309 380 586> 346 64<769.5 795>
LayerCount: 2
Fore
SplineSet
114 0 m 1
 114 656 l 1
 520 656 l 1
 520 586 l 1
 198 586 l 1
 198 380 l 1
 470 380 l 1
 470 309 l 1
 198 309 l 1
 198 71 l 1
 530 71 l 1
 530 0 l 1
 114 0 l 1
299 698 m 1
 290 736 l 1
 322 745 346 757 346 782 c 0
 346 808 319 822 263 824 c 1
 272 872 l 1
 359 869 410 842 410 791 c 0
 410 733 357 708 299 698 c 1
EndSplineSet
EndChar

StartChar: uni1EBC
Encoding: 7868 7868 104
Width: 600
Flags: MW
HStem: 0 71<198 530 198 530> 309 71<198 470 198 470> 586 70<198 520 198 198> 698 20G<154 154> 709 61<380.5 416.5 380.5 436> 780 61<245.5 281.5>
VStem: 114 84<71 309 380 586> 154 56<714 718> 452 56<832 836>
LayerCount: 2
Fore
SplineSet
114 0 m 1xf6
 114 656 l 1
 520 656 l 1
 520 586 l 1
 198 586 l 1
 198 380 l 1
 470 380 l 1
 470 309 l 1
 198 309 l 1
 198 71 l 1
 530 71 l 1
 530 0 l 1
 114 0 l 1xf6
406 709 m 0xee80
 331 709 305 780 258 780 c 0
 233 780 214 757 210 714 c 1
 154 718 l 1xf5
 158 794 196 841 256 841 c 0
 331 841 357 770 404 770 c 0
 429 770 447 793 452 836 c 1
 508 832 l 1
 504 755 466 709 406 709 c 0xee80
EndSplineSet
EndChar

StartChar: uni1EBE
Encoding: 7870 7870 105
Width: 600
Flags: MW
HStem: 0 71<198 530 198 530> 309 71<198 470 198 470> 586 70<198 520 198 198> 705 20G<202 202 460 460> 768 47<329 333 329 329>
VStem: 114 84<71 309 380 586>
LayerCount: 2
Fore
SplineSet
114 0 m 1
 114 656 l 1
 520 656 l 1
 520 586 l 1
 198 586 l 1
 198 380 l 1
 470 380 l 1
 470 309 l 1
 198 309 l 1
 198 71 l 1
 530 71 l 1
 530 0 l 1
 114 0 l 1
236 699 m 1
 202 725 l 1
 295 815 l 1
 367 815 l 1
 460 725 l 1
 426 699 l 1
 333 768 l 1
 329 768 l 1
 236 699 l 1
452 763 m 1
 422 795 l 1
 519 888 l 1
 554 849 l 1
 452 763 l 1
EndSplineSet
EndChar

StartChar: uni1EC0
Encoding: 7872 7872 106
Width: 600
Flags: MW
HStem: 0 71<198 530 198 530> 309 71<198 470 198 470> 586 70<198 520 198 198> 705 20G<202 202 460 460> 768 47<329 333 329 329>
VStem: 114 84<71 309 380 586>
LayerCount: 2
Fore
SplineSet
114 0 m 1
 114 656 l 1
 520 656 l 1
 520 586 l 1
 198 586 l 1
 198 380 l 1
 470 380 l 1
 470 309 l 1
 198 309 l 1
 198 71 l 1
 530 71 l 1
 530 0 l 1
 114 0 l 1
236 699 m 1
 202 725 l 1
 295 815 l 1
 367 815 l 1
 460 725 l 1
 426 699 l 1
 333 768 l 1
 329 768 l 1
 236 699 l 1
210 763 m 1
 120 851 l 1
 155 888 l 1
 240 793 l 1
 210 763 l 1
EndSplineSet
EndChar

StartChar: uni1EC2
Encoding: 7874 7874 107
Width: 600
Flags: MW
HStem: 0 71<198 530 198 530> 309 71<198 470 198 470> 586 70<198 520 198 198> 705 20G<202 202 460 460> 768 47<329 333 329 329> 864 42<409 418>
VStem: 114 84<71 309 380 586> 480 58<814.5 838>
LayerCount: 2
Fore
SplineSet
114 0 m 1
 114 656 l 1
 520 656 l 1
 520 586 l 1
 198 586 l 1
 198 380 l 1
 470 380 l 1
 470 309 l 1
 198 309 l 1
 198 71 l 1
 530 71 l 1
 530 0 l 1
 114 0 l 1
236 699 m 1
 202 725 l 1
 295 815 l 1
 367 815 l 1
 460 725 l 1
 426 699 l 1
 333 768 l 1
 329 768 l 1
 236 699 l 1
446 754 m 1
 435 789 l 1
 460 795 480 804 480 825 c 0
 480 851 459 861 409 864 c 1
 418 906 l 1
 496 903 538 879 538 833 c 0
 538 782 494 762 446 754 c 1
EndSplineSet
EndChar

StartChar: uni1EC4
Encoding: 7876 7876 108
Width: 600
Flags: MW
HStem: 0 71<198 530 198 530> 309 71<198 470 198 470> 586 70<198 520 198 198> 705 20G<202 202 460 460> 765 47<329 333 329 329> 839 51<372.5 405 372.5 424> 889 50<257 289.5>
VStem: 114 84<71 309 380 586> 186 45<843 848> 431 45<931 936>
LayerCount: 2
Fore
SplineSet
114 0 m 1xfb
 114 656 l 1
 520 656 l 1
 520 586 l 1
 198 586 l 1
 198 380 l 1
 470 380 l 1
 470 309 l 1
 198 309 l 1
 198 71 l 1
 530 71 l 1
 530 0 l 1
 114 0 l 1xfb
236 699 m 1
 202 725 l 1
 295 812 l 1
 367 812 l 1
 460 725 l 1
 426 699 l 1
 333 765 l 1
 329 765 l 1
 236 699 l 1
397 839 m 0xfd40
 333 839 310 889 269 889 c 0
 245 889 235 872 231 843 c 1
 186 848 l 1
 189 899 211 939 265 939 c 0xfa80
 329 939 352 890 393 890 c 0
 417 890 427 907 431 936 c 1
 476 931 l 1
 473 879 451 839 397 839 c 0xfd40
EndSplineSet
EndChar

StartChar: uni1EC6
Encoding: 7878 7878 109
Width: 600
Flags: MW
HStem: -215 128<314.5 351.5> 0 71<198 530 198 530> 309 71<198 470 198 470> 586 70<198 520 198 198> 705 20G<183 183 479 479> 792 46<329 333 329 329>
VStem: 114 84<71 309 380 586> 267 132<-170.5 -132>
LayerCount: 2
Fore
SplineSet
114 0 m 1
 114 656 l 1
 520 656 l 1
 520 586 l 1
 198 586 l 1
 198 380 l 1
 470 380 l 1
 470 309 l 1
 198 309 l 1
 198 71 l 1
 530 71 l 1
 530 0 l 1
 114 0 l 1
219 699 m 1
 183 725 l 1
 288 838 l 1
 374 838 l 1
 479 725 l 1
 443 699 l 1
 333 792 l 1
 329 792 l 1
 219 699 l 1
333 -215 m 0
 296 -215 267 -190 267 -151 c 0
 267 -113 296 -87 333 -87 c 0
 370 -87 399 -113 399 -151 c 0
 399 -190 370 -215 333 -215 c 0
EndSplineSet
EndChar

StartChar: uni1E16
Encoding: 7702 7702 110
Width: 600
Flags: MW
HStem: 0 71<198 530 198 530> 309 71<198 470 198 470> 586 70<198 520 198 198> 735 57<197 465 197 465>
VStem: 114 84<71 309 380 586> 197 268<735 792 735 792>
LayerCount: 2
Fore
SplineSet
114 0 m 1xf8
 114 656 l 1
 520 656 l 1
 520 586 l 1
 198 586 l 1
 198 380 l 1
 470 380 l 1
 470 309 l 1
 198 309 l 1
 198 71 l 1
 530 71 l 1
 530 0 l 1
 114 0 l 1xf8
197 735 m 1xf4
 197 792 l 1
 465 792 l 1
 465 735 l 1
 197 735 l 1xf4
313 827 m 1
 282 865 l 1
 403 968 l 1
 442 920 l 1
 313 827 l 1
EndSplineSet
EndChar

StartChar: uni01F4
Encoding: 500 500 111
Width: 600
Flags: MW
HStem: -12 73<277.5 365 277.5 379.5> 271 69<325 456 325 533> 595 73<282.5 375.5>
VStem: 53 87<247.5 411.5 247.5 434> 456 77<100 271 271 271>
LayerCount: 2
Fore
SplineSet
337 -12 m 0
 172 -12 53 114 53 328 c 0
 53 540 174 668 344 668 c 0
 431 668 488 627 525 588 c 1
 478 535 l 1
 446 569 407 595 344 595 c 0
 221 595 140 493 140 330 c 0
 140 165 213 61 342 61 c 0
 388 61 431 76 456 100 c 1
 456 271 l 1
 325 271 l 1
 325 340 l 1
 533 340 l 1
 533 64 l 1
 492 22 422 -12 337 -12 c 0
301 697 m 1
 265 739 l 1
 406 867 l 1
 453 812 l 1
 301 697 l 1
EndSplineSet
EndChar

StartChar: Gcircumflex
Encoding: 284 284 112
Width: 600
Flags: MW
HStem: -12 73<277.5 365 277.5 379.5> 271 69<325 456 325 533> 595 73<282.5 375.5> 705 20G<182 182 478 478> 792 46<328 332 328 328>
VStem: 53 87<247.5 411.5 247.5 434> 456 77<100 271 271 271>
LayerCount: 2
Fore
SplineSet
337 -12 m 0
 172 -12 53 114 53 328 c 0
 53 540 174 668 344 668 c 0
 431 668 488 627 525 588 c 1
 478 535 l 1
 446 569 407 595 344 595 c 0
 221 595 140 493 140 330 c 0
 140 165 213 61 342 61 c 0
 388 61 431 76 456 100 c 1
 456 271 l 1
 325 271 l 1
 325 340 l 1
 533 340 l 1
 533 64 l 1
 492 22 422 -12 337 -12 c 0
218 699 m 1
 182 725 l 1
 287 838 l 1
 373 838 l 1
 478 725 l 1
 442 699 l 1
 332 792 l 1
 328 792 l 1
 218 699 l 1
EndSplineSet
EndChar

StartChar: Gbreve
Encoding: 286 286 113
Width: 600
Flags: MW
HStem: -12 73<277.5 365 277.5 379.5> 271 69<325 456 325 533> 595 73<282.5 375.5> 705 53<301.5 358.5 301.5 376.5>
VStem: 53 87<247.5 411.5 247.5 434> 184 50<834 842> 426 50<834 842> 456 77<100 271 271 271>
LayerCount: 2
Fore
SplineSet
337 -12 m 0xfd
 172 -12 53 114 53 328 c 0
 53 540 174 668 344 668 c 0
 431 668 488 627 525 588 c 1
 478 535 l 1
 446 569 407 595 344 595 c 0
 221 595 140 493 140 330 c 0
 140 165 213 61 342 61 c 0
 388 61 431 76 456 100 c 1
 456 271 l 1
 325 271 l 1
 325 340 l 1
 533 340 l 1
 533 64 l 1
 492 22 422 -12 337 -12 c 0xfd
330 705 m 0
 237 705 192 764 184 834 c 1
 234 842 l 1
 242 795 273 758 330 758 c 0
 387 758 418 795 426 842 c 1
 476 834 l 1xfe
 468 764 423 705 330 705 c 0
EndSplineSet
EndChar

StartChar: Gdotaccent
Encoding: 288 288 114
Width: 600
Flags: MW
HStem: -12 73<277.5 365 277.5 379.5> 271 69<325 456 325 533> 595 73<282.5 375.5> 714 113<313.5 346.5>
VStem: 53 87<247.5 411.5 247.5 434> 271 118<754 787.5> 456 77<100 271 271 271>
LayerCount: 2
Fore
SplineSet
337 -12 m 0
 172 -12 53 114 53 328 c 0
 53 540 174 668 344 668 c 0
 431 668 488 627 525 588 c 1
 478 535 l 1
 446 569 407 595 344 595 c 0
 221 595 140 493 140 330 c 0
 140 165 213 61 342 61 c 0
 388 61 431 76 456 100 c 1
 456 271 l 1
 325 271 l 1
 325 340 l 1
 533 340 l 1
 533 64 l 1
 492 22 422 -12 337 -12 c 0
330 714 m 0
 297 714 271 737 271 771 c 0
 271 804 297 827 330 827 c 0
 363 827 389 804 389 771 c 0
 389 737 363 714 330 714 c 0
EndSplineSet
EndChar

StartChar: uni0122
Encoding: 290 290 115
Width: 600
Flags: MW
HStem: -226 40<235 243> -96 38<273 291> -12 73<277.5 365 277.5 379.5> 271 69<325 456 325 533> 595 73<282.5 375.5>
VStem: 53 87<247.5 411.5 247.5 434> 344 64<-151.5 -125> 456 77<100 271 271 271>
LayerCount: 2
Fore
SplineSet
337 -12 m 0
 172 -12 53 114 53 328 c 0
 53 540 174 668 344 668 c 0
 431 668 488 627 525 588 c 1
 478 535 l 1
 446 569 407 595 344 595 c 0
 221 595 140 493 140 330 c 0
 140 165 213 61 342 61 c 0
 388 61 431 76 456 100 c 1
 456 271 l 1
 325 271 l 1
 325 340 l 1
 533 340 l 1
 533 64 l 1
 492 22 422 -12 337 -12 c 0
243 -226 m 1
 235 -186 l 1
 319 -180 344 -165 344 -138 c 0
 344 -112 319 -100 273 -96 c 1
 291 -58 l 1
 378 -68 408 -90 408 -135 c 0
 408 -193 349 -221 243 -226 c 1
EndSplineSet
EndChar

StartChar: Gcaron
Encoding: 486 486 116
Width: 600
Flags: MW
HStem: -12 73<277.5 365 277.5 379.5> 271 69<325 456 325 533> 595 73<282.5 375.5> 706 47<287 332 328 332 328 373>
VStem: 53 87<247.5 411.5 247.5 434> 456 77<100 271 271 271>
LayerCount: 2
Fore
SplineSet
337 -12 m 0
 172 -12 53 114 53 328 c 0
 53 540 174 668 344 668 c 0
 431 668 488 627 525 588 c 1
 478 535 l 1
 446 569 407 595 344 595 c 0
 221 595 140 493 140 330 c 0
 140 165 213 61 342 61 c 0
 388 61 431 76 456 100 c 1
 456 271 l 1
 325 271 l 1
 325 340 l 1
 533 340 l 1
 533 64 l 1
 492 22 422 -12 337 -12 c 0
287 706 m 1
 182 819 l 1
 218 845 l 1
 328 753 l 1
 332 753 l 1
 442 845 l 1
 478 819 l 1
 373 706 l 1
 287 706 l 1
EndSplineSet
EndChar

StartChar: uni1E20
Encoding: 7712 7712 117
Width: 600
Flags: MW
HStem: -12 73<277.5 365 277.5 379.5> 271 69<325 456 325 533> 595 73<282.5 375.5> 735 57<196 464 196 464>
VStem: 53 87<247.5 411.5 247.5 434> 196 268<735 792 735 792> 456 77<100 271 271 271>
LayerCount: 2
Fore
SplineSet
337 -12 m 0xfa
 172 -12 53 114 53 328 c 0
 53 540 174 668 344 668 c 0
 431 668 488 627 525 588 c 1
 478 535 l 1
 446 569 407 595 344 595 c 0
 221 595 140 493 140 330 c 0
 140 165 213 61 342 61 c 0
 388 61 431 76 456 100 c 1
 456 271 l 1
 325 271 l 1
 325 340 l 1
 533 340 l 1
 533 64 l 1
 492 22 422 -12 337 -12 c 0xfa
196 735 m 1xfc
 196 792 l 1
 464 792 l 1
 464 735 l 1
 196 735 l 1xfc
EndSplineSet
EndChar

StartChar: uni00470303
Encoding: 1114113 -1 118
Width: 600
GlyphClass: 3
Flags: MW
HStem: -12 73<277.5 365 277.5 379.5> 271 69<325 456 325 533> 595 73<282.5 375.5> 698 20G<153 153> 709 61<379.5 415.5 379.5 435> 780 61<244.5 280.5>
VStem: 53 87<247.5 411.5 247.5 434> 153 56<714 718> 451 56<832 836> 456 77<100 271 271 271>
LayerCount: 2
Fore
SplineSet
337 -12 m 0xf640
 172 -12 53 114 53 328 c 0
 53 540 174 668 344 668 c 0
 431 668 488 627 525 588 c 1
 478 535 l 1
 446 569 407 595 344 595 c 0
 221 595 140 493 140 330 c 0
 140 165 213 61 342 61 c 0
 388 61 431 76 456 100 c 1
 456 271 l 1
 325 271 l 1
 325 340 l 1
 533 340 l 1
 533 64 l 1
 492 22 422 -12 337 -12 c 0xf640
405 709 m 0xee80
 330 709 304 780 257 780 c 0
 232 780 213 757 209 714 c 1
 153 718 l 1xf740
 157 794 195 841 255 841 c 0
 330 841 356 770 403 770 c 0
 428 770 446 793 451 836 c 1
 507 832 l 1
 503 755 465 709 405 709 c 0xee80
EndSplineSet
Ligature2: "'ccmp' Glyph Composition/Decomposition lookup 19 subtable" G uni0303
EndChar

StartChar: uni0193
Encoding: 403 403 119
Width: 600
Flags: MW
HStem: -12 73<277.5 365 277.5 379.5> 271 69<325 456 325 533> 595 73<282.5 358.5 259 375.5> 737 67<522 539.5 493 546>
VStem: 53 87<247.5 411.5 247.5 434> 415 70<691.5 698 665 730> 456 77<100 271 271 271>
LayerCount: 2
Fore
SplineSet
525 588 m 1xfc
 478 535 l 1xfc
 446 569 407 595 344 595 c 0
 221 595 140 493 140 330 c 0
 140 165 213 61 342 61 c 0
 388 61 431 76 456 100 c 1
 456 271 l 1
 325 271 l 1
 325 340 l 1
 533 340 l 1
 533 64 l 1xfa
 492 22 422 -12 337 -12 c 0
 172 -12 53 114 53 328 c 0
 53 540 174 668 344 668 c 0
 373 668 399 663 422 656 c 1
 417 670 415 684 415 699 c 0
 415 761 460 804 526 804 c 0
 553 804 573 797 589 791 c 1
 573 728 l 1
 562 732 553 737 539 737 c 0
 505 737 485 713 485 683 c 0
 485 647 499 626 525 588 c 1xfc
EndSplineSet
EndChar

StartChar: Hcircumflex
Encoding: 292 292 120
Width: 600
Flags: MW
HStem: 0 21G<79 79 79 163 437 437 437 521> 309 72<163 437 163 437> 705 20G<152 152 448 448> 792 46<298 302 298 298>
VStem: 79 84<0 309 381 656> 437 84<0 309 309 309 381 656 0 656>
LayerCount: 2
Fore
SplineSet
79 0 m 1
 79 656 l 1
 163 656 l 1
 163 381 l 1
 437 381 l 1
 437 656 l 1
 521 656 l 1
 521 0 l 1
 437 0 l 1
 437 309 l 1
 163 309 l 1
 163 0 l 1
 79 0 l 1
188 699 m 1
 152 725 l 1
 257 838 l 1
 343 838 l 1
 448 725 l 1
 412 699 l 1
 302 792 l 1
 298 792 l 1
 188 699 l 1
EndSplineSet
EndChar

StartChar: uni1E26
Encoding: 7718 7718 121
Width: 600
Flags: MW
HStem: 0 21G<79 79 79 163 437 437 437 521> 309 72<163 437 163 437> 715 101<194.5 223.5 376.5 405.5>
VStem: 79 84<0 309 381 656> 158 101<751 781> 341 101<751 781> 437 84<0 309 309 309 381 656 0 656>
LayerCount: 2
Fore
SplineSet
79 0 m 1xf2
 79 656 l 1
 163 656 l 1
 163 381 l 1
 437 381 l 1
 437 656 l 1
 521 656 l 1
 521 0 l 1
 437 0 l 1
 437 309 l 1
 163 309 l 1
 163 0 l 1
 79 0 l 1xf2
209 715 m 0xec
 180 715 158 736 158 766 c 0
 158 796 180 816 209 816 c 0
 238 816 259 796 259 766 c 0
 259 736 238 715 209 715 c 0xec
391 715 m 0
 362 715 341 736 341 766 c 0
 341 796 362 816 391 816 c 0
 420 816 442 796 442 766 c 0
 442 736 420 715 391 715 c 0
EndSplineSet
EndChar

StartChar: uni1E24
Encoding: 7716 7716 122
Width: 600
Flags: MW
HStem: -215 128<281.5 318.5> 0 21G<79 79 79 163 437 437 437 521> 309 72<163 437 163 437>
VStem: 79 84<0 309 381 656> 234 132<-170.5 -132> 437 84<0 309 309 309 381 656 0 656>
LayerCount: 2
Fore
SplineSet
79 0 m 1
 79 656 l 1
 163 656 l 1
 163 381 l 1
 437 381 l 1
 437 656 l 1
 521 656 l 1
 521 0 l 1
 437 0 l 1
 437 309 l 1
 163 309 l 1
 163 0 l 1
 79 0 l 1
300 -215 m 0
 263 -215 234 -190 234 -151 c 0
 234 -113 263 -87 300 -87 c 0
 337 -87 366 -113 366 -151 c 0
 366 -190 337 -215 300 -215 c 0
EndSplineSet
EndChar

StartChar: uni1E28
Encoding: 7720 7720 123
Width: 600
Flags: MW
HStem: -226 40<27 35> 0 21G<79 79 79 96 150 150 150 163 437 437 437 521> 309 72<163 437 163 437>
VStem: 79 84<0 309 381 656> 136 64<-150.5 -123> 437 84<0 309 309 309 381 656 0 656>
LayerCount: 2
Fore
SplineSet
79 0 m 1xf4
 79 656 l 1
 163 656 l 1
 163 381 l 1
 437 381 l 1
 437 656 l 1
 521 656 l 1
 521 0 l 1
 437 0 l 1
 437 309 l 1
 163 309 l 1
 163 0 l 1
 150 0 l 1xf4
 127 -64 l 1
 173 -75 200 -94 200 -135 c 0
 200 -193 141 -221 35 -226 c 1
 27 -186 l 1
 111 -180 136 -165 136 -136 c 0
 136 -110 116 -96 59 -88 c 1
 96 0 l 1xec
 79 0 l 1xf4
EndSplineSet
EndChar

StartChar: uni1E2A
Encoding: 7722 7722 124
Width: 600
Flags: MW
HStem: -231 55<267.5 332.5 267.5 353.5> 0 21G<79 79 79 163 437 437 437 521> 309 72<163 437 163 437>
VStem: 79 84<0 309 381 656> 144 51<-80 -72> 405 51<-80 -72> 437 84<0 309 309 309 381 656 0 656>
LayerCount: 2
Fore
SplineSet
79 0 m 1xf2
 79 656 l 1
 163 656 l 1
 163 381 l 1
 437 381 l 1
 437 656 l 1
 521 656 l 1
 521 0 l 1
 437 0 l 1
 437 309 l 1
 163 309 l 1
 163 0 l 1
 79 0 l 1xf2
300 -231 m 0xec
 193 -231 149 -154 144 -80 c 1
 195 -72 l 1
 203 -123 235 -176 300 -176 c 0
 365 -176 397 -123 405 -72 c 1
 456 -80 l 1
 451 -154 407 -231 300 -231 c 0xec
EndSplineSet
EndChar

StartChar: Hbar
Encoding: 294 294 125
Width: 600
Flags: MW
HStem: 0 21G<79 163 79 79 437 521 437 437> 309 72<163 437 163 437> 484 62<10 79 163 437 521 590> 484 172<10 163 10 163 79 163 79 437>
VStem: 79 84<0 309 381 484 546 656> 437 84<0 309 309 309 381 484 0 484 546 656>
LayerCount: 2
Fore
SplineSet
10 484 m 1xec
 10 540 l 1
 79 546 l 1xec
 79 656 l 1
 163 656 l 1xdc
 163 546 l 1
 437 546 l 1xec
 437 656 l 1
 521 656 l 1xdc
 521 546 l 1
 590 546 l 1
 590 484 l 1
 521 484 l 1
 521 0 l 1
 437 0 l 1
 437 309 l 1
 163 309 l 1
 163 0 l 1
 79 0 l 1
 79 484 l 1
 10 484 l 1xec
163 381 m 1
 437 381 l 1
 437 484 l 1
 163 484 l 1
 163 381 l 1
EndSplineSet
EndChar

StartChar: Igrave
Encoding: 204 204 126
Width: 600
Flags: MW
HStem: 0 71<95 258 95 258 342 505> 586 70<95 258 95 505 342 342 342 505>
VStem: 258 84<71 586 71 586>
LayerCount: 2
Fore
SplineSet
95 0 m 1
 95 71 l 1
 258 71 l 1
 258 586 l 1
 95 586 l 1
 95 656 l 1
 505 656 l 1
 505 586 l 1
 342 586 l 1
 342 71 l 1
 505 71 l 1
 505 0 l 1
 95 0 l 1
329 697 m 1
 177 812 l 1
 224 867 l 1
 365 739 l 1
 329 697 l 1
EndSplineSet
EndChar

StartChar: Iacute
Encoding: 205 205 127
Width: 600
Flags: MW
HStem: 0 71<95 258 95 258 342 505> 586 70<95 258 95 505 342 342 342 505>
VStem: 258 84<71 586 71 586>
LayerCount: 2
Fore
SplineSet
95 0 m 1
 95 71 l 1
 258 71 l 1
 258 586 l 1
 95 586 l 1
 95 656 l 1
 505 656 l 1
 505 586 l 1
 342 586 l 1
 342 71 l 1
 505 71 l 1
 505 0 l 1
 95 0 l 1
271 697 m 1
 235 739 l 1
 376 867 l 1
 423 812 l 1
 271 697 l 1
EndSplineSet
EndChar

StartChar: Icircumflex
Encoding: 206 206 128
Width: 600
Flags: MW
HStem: 0 71<95 258 95 258 342 505> 586 70<95 258 95 505 342 342 342 505> 705 20G<152 152 448 448> 792 46<298 302 298 298>
VStem: 258 84<71 586 71 586>
LayerCount: 2
Fore
SplineSet
95 0 m 1
 95 71 l 1
 258 71 l 1
 258 586 l 1
 95 586 l 1
 95 656 l 1
 505 656 l 1
 505 586 l 1
 342 586 l 1
 342 71 l 1
 505 71 l 1
 505 0 l 1
 95 0 l 1
188 699 m 1
 152 725 l 1
 257 838 l 1
 343 838 l 1
 448 725 l 1
 412 699 l 1
 302 792 l 1
 298 792 l 1
 188 699 l 1
EndSplineSet
EndChar

StartChar: Itilde
Encoding: 296 296 129
Width: 600
Flags: MW
HStem: 0 71<95 258 95 258 342 505> 586 70<95 258 95 505 342 342 342 505> 698 20G<123 123> 709 61<349.5 385.5 349.5 405> 780 61<214.5 250.5>
VStem: 95 84<586 714 656 714> 123 56<714 718> 258 84<71 586 71 586> 421 56<832 836>
LayerCount: 2
Fore
SplineSet
95 0 m 1xed
 95 71 l 1
 258 71 l 1
 258 586 l 1
 95 586 l 1
 95 656 l 1
 505 656 l 1
 505 586 l 1
 342 586 l 1
 342 71 l 1
 505 71 l 1
 505 0 l 1
 95 0 l 1xed
375 709 m 0xdd80
 300 709 274 780 227 780 c 0
 202 780 183 757 179 714 c 1
 123 718 l 1xeb
 127 794 165 841 225 841 c 0
 300 841 326 770 373 770 c 0
 398 770 416 793 421 836 c 1
 477 832 l 1
 473 755 435 709 375 709 c 0xdd80
EndSplineSet
EndChar

StartChar: Idieresis
Encoding: 207 207 130
Width: 600
Flags: MW
HStem: 0 71<95 258 95 258 342 505> 586 70<95 258 95 505 342 342 342 505> 715 101<194.5 223.5 376.5 405.5>
VStem: 158 101<751 781> 258 84<71 586 71 586> 341 101<751 781>
LayerCount: 2
Fore
SplineSet
95 0 m 1xc8
 95 71 l 1
 258 71 l 1
 258 586 l 1
 95 586 l 1
 95 656 l 1
 505 656 l 1
 505 586 l 1
 342 586 l 1
 342 71 l 1
 505 71 l 1
 505 0 l 1
 95 0 l 1xc8
209 715 m 0xf4
 180 715 158 736 158 766 c 0
 158 796 180 816 209 816 c 0
 238 816 259 796 259 766 c 0
 259 736 238 715 209 715 c 0xf4
391 715 m 0
 362 715 341 736 341 766 c 0
 341 796 362 816 391 816 c 0
 420 816 442 796 442 766 c 0
 442 736 420 715 391 715 c 0
EndSplineSet
EndChar

StartChar: Imacron
Encoding: 298 298 131
Width: 600
Flags: MW
HStem: 0 71<95 258 95 258 342 505> 586 70<95 258 95 505 342 342 342 505> 735 57<166 434 166 434>
VStem: 258 84<71 586 71 586>
LayerCount: 2
Fore
SplineSet
95 0 m 1
 95 71 l 1
 258 71 l 1
 258 586 l 1
 95 586 l 1
 95 656 l 1
 505 656 l 1
 505 586 l 1
 342 586 l 1
 342 71 l 1
 505 71 l 1
 505 0 l 1
 95 0 l 1
166 735 m 1
 166 792 l 1
 434 792 l 1
 434 735 l 1
 166 735 l 1
EndSplineSet
EndChar

StartChar: Idotaccent
Encoding: 304 304 132
Width: 600
Flags: MW
HStem: 0 71<95 258 95 258 342 505> 586 70<95 258 95 505 342 342 342 505> 714 113<283.5 316.5>
VStem: 241 118<754 787.5> 258 84<71 586 71 586>
LayerCount: 2
Fore
SplineSet
95 0 m 1xc8
 95 71 l 1
 258 71 l 1
 258 586 l 1
 95 586 l 1
 95 656 l 1
 505 656 l 1
 505 586 l 1
 342 586 l 1
 342 71 l 1
 505 71 l 1
 505 0 l 1
 95 0 l 1xc8
300 714 m 0xf0
 267 714 241 737 241 771 c 0
 241 804 267 827 300 827 c 0
 333 827 359 804 359 771 c 0
 359 737 333 714 300 714 c 0xf0
EndSplineSet
EndChar

StartChar: uni01CF
Encoding: 463 463 133
Width: 600
Flags: MW
HStem: 0 71<95 258 95 258 342 505> 586 70<95 258 95 505 342 342 342 505> 706 47<257 302 298 302 298 343>
VStem: 258 84<71 586 71 586>
LayerCount: 2
Fore
SplineSet
95 0 m 1
 95 71 l 1
 258 71 l 1
 258 586 l 1
 95 586 l 1
 95 656 l 1
 505 656 l 1
 505 586 l 1
 342 586 l 1
 342 71 l 1
 505 71 l 1
 505 0 l 1
 95 0 l 1
257 706 m 1
 152 819 l 1
 188 845 l 1
 298 753 l 1
 302 753 l 1
 412 845 l 1
 448 819 l 1
 343 706 l 1
 257 706 l 1
EndSplineSet
EndChar

StartChar: Iogonek
Encoding: 302 302 134
Width: 600
GlyphClass: 2
Flags: MW
HStem: -225 58<313.5 330> 0 71<95 258 95 279 95 258 347 347 347 505> 586 70<95 258 95 505 342 342 342 505>
VStem: 208 65<-133.5 -106> 258 84<71 586 71 586>
AnchorPoint: "Anchor-0" 300 676 basechar 0
LayerCount: 2
Fore
SplineSet
311 -225 m 0xf0
 253 -225 208 -195 208 -134 c 0
 208 -78 246 -32 279 0 c 1xf0
 95 0 l 1
 95 71 l 1
 258 71 l 1
 258 586 l 1
 95 586 l 1
 95 656 l 1
 505 656 l 1
 505 586 l 1
 342 586 l 1
 342 71 l 1x68
 505 71 l 1
 505 0 l 1
 347 0 l 1
 296 -38 273 -79 273 -116 c 0
 273 -151 300 -167 327 -167 c 0
 349 -167 365 -157 377 -146 c 1
 402 -189 l 1
 379 -209 349 -225 311 -225 c 0xf0
EndSplineSet
Ligature2: "'ccmp' Glyph Composition/Decomposition lookup 19 subtable" I uni0328
EndChar

StartChar: uni1EC8
Encoding: 7880 7880 135
Width: 600
Flags: MW
HStem: 0 71<95 258 95 258 342 505> 586 70<95 258 95 505 342 342 342 505> 824 48<232 241>
VStem: 258 84<71 586 71 586> 315 64<769.5 795>
LayerCount: 2
Fore
SplineSet
95 0 m 1xd0
 95 71 l 1
 258 71 l 1
 258 586 l 1
 95 586 l 1
 95 656 l 1
 505 656 l 1
 505 586 l 1
 342 586 l 1
 342 71 l 1
 505 71 l 1
 505 0 l 1
 95 0 l 1xd0
268 698 m 1
 259 736 l 1
 291 745 315 757 315 782 c 0
 315 808 288 822 232 824 c 1
 241 872 l 1
 328 869 379 842 379 791 c 0xe8
 379 733 326 708 268 698 c 1
EndSplineSet
EndChar

StartChar: uni1ECA
Encoding: 7882 7882 136
Width: 600
Flags: MW
HStem: -215 128<281.5 318.5> 0 71<95 258 95 258 342 505> 586 70<95 258 95 505 342 342 342 505>
VStem: 234 132<-170.5 -132> 258 84<71 586 71 586>
LayerCount: 2
Fore
SplineSet
95 0 m 1xe8
 95 71 l 1
 258 71 l 1
 258 586 l 1
 95 586 l 1
 95 656 l 1
 505 656 l 1
 505 586 l 1
 342 586 l 1
 342 71 l 1
 505 71 l 1
 505 0 l 1
 95 0 l 1xe8
300 -215 m 0xf0
 263 -215 234 -190 234 -151 c 0
 234 -113 263 -87 300 -87 c 0
 337 -87 366 -113 366 -151 c 0
 366 -190 337 -215 300 -215 c 0xf0
EndSplineSet
EndChar

StartChar: Ibreve
Encoding: 300 300 137
Width: 600
Flags: MW
HStem: 0 71<95 258 95 258 342 505> 586 70<95 258 95 505 342 342 342 505> 705 53<271.5 328.5 271.5 346.5>
VStem: 154 50<834 842> 258 84<71 586 71 586> 396 50<834 842>
LayerCount: 2
Fore
SplineSet
95 0 m 1
 95 71 l 1
 258 71 l 1
 258 586 l 1
 95 586 l 1
 95 656 l 1
 505 656 l 1
 505 586 l 1
 342 586 l 1
 342 71 l 1
 505 71 l 1
 505 0 l 1
 95 0 l 1
300 705 m 0
 207 705 162 764 154 834 c 1
 204 842 l 1
 212 795 243 758 300 758 c 0
 357 758 388 795 396 842 c 1
 446 834 l 1
 438 764 393 705 300 705 c 0
EndSplineSet
EndChar

StartChar: Jcircumflex
Encoding: 308 308 138
Width: 600
Flags: MW
HStem: -12 73<248.5 321 248.5 357.5> 587 70<135 410 135 493> 705 20G<176 176 472 472> 792 46<322 326 322 322>
VStem: 410 83<217 587 587 587>
LayerCount: 2
Fore
SplineSet
276 -12 m 0
 203 -12 126 22 81 97 c 1
 133 148 l 1
 170 89 223 61 274 61 c 0
 368 61 410 109 410 217 c 2
 410 587 l 1
 135 587 l 1
 135 657 l 1
 493 657 l 1
 493 210 l 2
 493 88 439 -12 276 -12 c 0
212 699 m 1
 176 725 l 1
 281 838 l 1
 367 838 l 1
 472 725 l 1
 436 699 l 1
 326 792 l 1
 322 792 l 1
 212 699 l 1
EndSplineSet
EndChar

StartChar: uni0136
Encoding: 310 310 139
Width: 600
Flags: MW
HStem: -226 40<243 251> -96 38<281 299> 0 21G<98 98 98 182 486 486 486 580>
VStem: 98 84<0 209 327 656> 352 64<-151.5 -125>
LayerCount: 2
Fore
SplineSet
98 0 m 1
 98 656 l 1
 182 656 l 1
 182 327 l 1
 185 327 l 1
 461 656 l 1
 556 656 l 1
 348 407 l 1
 580 0 l 1
 486 0 l 1
 295 344 l 1
 182 209 l 1
 182 0 l 1
 98 0 l 1
251 -226 m 1
 243 -186 l 1
 327 -180 352 -165 352 -138 c 0
 352 -112 327 -100 281 -96 c 1
 299 -58 l 1
 386 -68 416 -90 416 -135 c 0
 416 -193 357 -221 251 -226 c 1
EndSplineSet
EndChar

StartChar: uni1E32
Encoding: 7730 7730 140
Width: 600
Flags: MW
HStem: -215 128<319.5 356.5> 0 21G<98 98 98 182 486 486 486 580>
VStem: 98 84<0 209 327 656> 272 132<-170.5 -132>
LayerCount: 2
Fore
SplineSet
98 0 m 1
 98 656 l 1
 182 656 l 1
 182 327 l 1
 185 327 l 1
 461 656 l 1
 556 656 l 1
 348 407 l 1
 580 0 l 1
 486 0 l 1
 295 344 l 1
 182 209 l 1
 182 0 l 1
 98 0 l 1
338 -215 m 0
 301 -215 272 -190 272 -151 c 0
 272 -113 301 -87 338 -87 c 0
 375 -87 404 -113 404 -151 c 0
 404 -190 375 -215 338 -215 c 0
EndSplineSet
EndChar

StartChar: uni1E34
Encoding: 7732 7732 141
Width: 600
Flags: MW
HStem: -170 57<205 471 205 471> 0 21G<98 98 98 182 486 486 486 580>
VStem: 98 84<0 209 327 656> 205 266<-170 -113 -170 -113>
LayerCount: 2
Fore
SplineSet
98 0 m 1
 98 656 l 1
 182 656 l 1
 182 327 l 1
 185 327 l 1
 461 656 l 1
 556 656 l 1
 348 407 l 1
 580 0 l 1
 486 0 l 1
 295 344 l 1
 182 209 l 1
 182 0 l 1
 98 0 l 1
205 -170 m 1xf0
 205 -113 l 1
 471 -113 l 1
 471 -170 l 1
 205 -170 l 1xf0
EndSplineSet
EndChar

StartChar: Lacute
Encoding: 313 313 142
Width: 600
Flags: MW
HStem: 0 71<216 541 216 541>
VStem: 134 82<71 656 71 656 71 656>
LayerCount: 2
Fore
SplineSet
134 0 m 1
 134 656 l 1
 216 656 l 1
 216 71 l 1
 541 71 l 1
 541 0 l 1
 134 0 l 1
160 697 m 1
 124 739 l 1
 265 867 l 1
 312 812 l 1
 160 697 l 1
EndSplineSet
EndChar

StartChar: Lcaron
Encoding: 317 317 143
Width: 600
Flags: MW
HStem: 0 71<216 541 216 541>
VStem: 134 82<71 656 71 656 71 656> 380.5 72.5
LayerCount: 2
Fore
SplineSet
134 0 m 1
 134 656 l 1
 216 656 l 1
 216 71 l 1
 541 71 l 1
 541 0 l 1
 134 0 l 1
382 514 m 1
 379 782 l 1
 453 782 l 1
 453 701 l 1
 439 514 l 1
 382 514 l 1
EndSplineSet
EndChar

StartChar: uni013B
Encoding: 315 315 144
Width: 600
Flags: MW
HStem: -226 40<254 262> -96 38<292 310> 0 71<216 541 216 541>
VStem: 134 82<71 656 71 656 71 656> 363 64<-151.5 -125>
LayerCount: 2
Fore
SplineSet
134 0 m 1
 134 656 l 1
 216 656 l 1
 216 71 l 1
 541 71 l 1
 541 0 l 1
 134 0 l 1
262 -226 m 1
 254 -186 l 1
 338 -180 363 -165 363 -138 c 0
 363 -112 338 -100 292 -96 c 1
 310 -58 l 1
 397 -68 427 -90 427 -135 c 0
 427 -193 368 -221 262 -226 c 1
EndSplineSet
EndChar

StartChar: uni1E36
Encoding: 7734 7734 145
Width: 600
Flags: MW
HStem: -215 128<330.5 367.5> 0 71<216 541 216 541>
VStem: 134 82<71 656 71 656 71 656> 283 132<-170.5 -132>
LayerCount: 2
Fore
SplineSet
134 0 m 1
 134 656 l 1
 216 656 l 1
 216 71 l 1
 541 71 l 1
 541 0 l 1
 134 0 l 1
349 -215 m 0
 312 -215 283 -190 283 -151 c 0
 283 -113 312 -87 349 -87 c 0
 386 -87 415 -113 415 -151 c 0
 415 -190 386 -215 349 -215 c 0
EndSplineSet
EndChar

StartChar: uni1E38
Encoding: 7736 7736 146
Width: 600
Flags: MW
HStem: -215 128<330.5 367.5> 0 71<216 541 216 541> 735 57<55 323 55 323>
VStem: 134 82<71 656 71 656 71 656> 283 132<-170.5 -132>
LayerCount: 2
Fore
SplineSet
134 0 m 1
 134 656 l 1
 216 656 l 1
 216 71 l 1
 541 71 l 1
 541 0 l 1
 134 0 l 1
55 735 m 1
 55 792 l 1
 323 792 l 1
 323 735 l 1
 55 735 l 1
349 -215 m 0
 312 -215 283 -190 283 -151 c 0
 283 -113 312 -87 349 -87 c 0
 386 -87 415 -113 415 -151 c 0
 415 -190 386 -215 349 -215 c 0
EndSplineSet
EndChar

StartChar: uni1E3A
Encoding: 7738 7738 147
Width: 600
Flags: MW
HStem: -170 57<216 482 216 482> 0 71<216 541 216 541>
VStem: 134 82<71 656> 216 266<-170 -113 -170 -113 -170 656 -170 71>
LayerCount: 2
Fore
SplineSet
134 0 m 1xe0
 134 656 l 1
 216 656 l 1
 216 71 l 1
 541 71 l 1
 541 0 l 1
 134 0 l 1xe0
216 -170 m 1xd0
 216 -113 l 1
 482 -113 l 1
 482 -170 l 1
 216 -170 l 1xd0
EndSplineSet
EndChar

StartChar: Lslash
Encoding: 321 321 148
Width: 600
GlyphClass: 2
Flags: MW
HStem: 0 71<216 541 216 541>
VStem: 134 82<71 233 233 233 337 656>
AnchorPoint: "Anchor-3" 349 -20 basechar 0
AnchorPoint: "Anchor-0" 189 676 basechar 0
LayerCount: 2
Fore
SplineSet
39 181 m 1
 10 234 l 1
 134 300 l 1
 134 656 l 1
 216 656 l 1
 216 337 l 1
 427 450 l 1
 456 397 l 1
 216 269 l 1
 216 71 l 1
 541 71 l 1
 541 0 l 1
 134 0 l 1
 134 233 l 1
 39 181 l 1
EndSplineSet
EndChar

StartChar: Ldot
Encoding: 319 319 149
Width: 600
Flags: MW
HStem: 0 71<216 541 216 541> 286 128<448.5 485.5>
VStem: 134 82<71 656 71 656 71 656> 401 132<330.5 369>
LayerCount: 2
Fore
SplineSet
134 0 m 1
 134 656 l 1
 216 656 l 1
 216 71 l 1
 541 71 l 1
 541 0 l 1
 134 0 l 1
467 286 m 0
 430 286 401 311 401 350 c 0
 401 388 430 414 467 414 c 0
 504 414 533 388 533 350 c 0
 533 311 504 286 467 286 c 0
EndSplineSet
EndChar

StartChar: uni1E3E
Encoding: 7742 7742 150
Width: 600
Flags: MW
HStem: 0 21G<72 72 72 150 448 448 448 528> 174 96<298 302 298 328 268 302> 560 96<136 138 136 136 459 462 459 459>
VStem: 72 78<0 328 0 656> 448 80<0 328 328 360>
LayerCount: 2
Fore
SplineSet
72 0 m 1
 72 656 l 1
 174 656 l 1
 266 376 l 1
 298 270 l 1
 302 270 l 1
 333 376 l 1
 426 656 l 1
 528 656 l 1
 528 0 l 1
 448 0 l 1
 448 328 l 2
 448 392 458 504 462 560 c 1
 459 560 l 1
 422 432 l 1
 328 174 l 1
 268 174 l 1
 176 432 l 1
 138 560 l 1
 136 560 l 1
 142 504 150 392 150 328 c 2
 150 0 l 1
 72 0 l 1
271 697 m 1
 235 739 l 1
 376 867 l 1
 423 812 l 1
 271 697 l 1
EndSplineSet
EndChar

StartChar: uni1E40
Encoding: 7744 7744 151
Width: 600
Flags: MW
HStem: 0 21G<72 72 72 150 448 448 448 528> 174 96<298 302 298 328 268 302> 560 96<136 138 136 136 459 462 459 459> 714 113<283.5 316.5>
VStem: 72 78<0 328 0 656> 241 118<754 787.5> 448 80<0 328 328 360>
LayerCount: 2
Fore
SplineSet
72 0 m 1
 72 656 l 1
 174 656 l 1
 266 376 l 1
 298 270 l 1
 302 270 l 1
 333 376 l 1
 426 656 l 1
 528 656 l 1
 528 0 l 1
 448 0 l 1
 448 328 l 2
 448 392 458 504 462 560 c 1
 459 560 l 1
 422 432 l 1
 328 174 l 1
 268 174 l 1
 176 432 l 1
 138 560 l 1
 136 560 l 1
 142 504 150 392 150 328 c 2
 150 0 l 1
 72 0 l 1
300 714 m 0
 267 714 241 737 241 771 c 0
 241 804 267 827 300 827 c 0
 333 827 359 804 359 771 c 0
 359 737 333 714 300 714 c 0
EndSplineSet
EndChar

StartChar: uni1E42
Encoding: 7746 7746 152
Width: 600
Flags: MW
HStem: -215 128<281.5 318.5> 0 21G<72 72 72 150 448 448 448 528> 174 96<298 302 298 328 268 302> 560 96<136 138 136 136 459 462 459 459>
VStem: 72 78<0 328 0 656> 234 132<-170.5 -132> 448 80<0 328 328 360>
LayerCount: 2
Fore
SplineSet
72 0 m 1
 72 656 l 1
 174 656 l 1
 266 376 l 1
 298 270 l 1
 302 270 l 1
 333 376 l 1
 426 656 l 1
 528 656 l 1
 528 0 l 1
 448 0 l 1
 448 328 l 2
 448 392 458 504 462 560 c 1
 459 560 l 1
 422 432 l 1
 328 174 l 1
 268 174 l 1
 176 432 l 1
 138 560 l 1
 136 560 l 1
 142 504 150 392 150 328 c 2
 150 0 l 1
 72 0 l 1
300 -215 m 0
 263 -215 234 -190 234 -151 c 0
 234 -113 263 -87 300 -87 c 0
 337 -87 366 -113 366 -151 c 0
 366 -190 337 -215 300 -215 c 0
EndSplineSet
EndChar

StartChar: Nacute
Encoding: 323 323 153
Width: 600
Flags: MW
HStem: 0 21G<82 82 82 162 426 426 426 518> 0 108<426 449 447 449 447 518>
VStem: 82 80<0 343 0 656> 438 80<316 656 0 656>
LayerCount: 2
Fore
SplineSet
82 0 m 1xb0
 82 656 l 1
 174 656 l 1
 384 244 l 1
 447 108 l 1
 449 108 l 1x70
 446 173 438 247 438 316 c 2
 438 656 l 1
 518 656 l 1
 518 0 l 1
 426 0 l 1
 216 412 l 1
 153 548 l 1
 151 548 l 1
 154 481 162 411 162 343 c 2
 162 0 l 1
 82 0 l 1xb0
281 697 m 1
 245 739 l 1
 386 867 l 1
 433 812 l 1
 281 697 l 1
EndSplineSet
EndChar

StartChar: uni01F8
Encoding: 504 504 154
Width: 600
Flags: MW
HStem: 0 21G<82 82 82 162 426 426 426 518> 0 108<426 449 447 449 447 518>
VStem: 82 80<0 343 0 656> 438 80<316 656 0 656>
LayerCount: 2
Fore
SplineSet
82 0 m 1xb0
 82 656 l 1
 174 656 l 1
 384 244 l 1
 447 108 l 1
 449 108 l 1x70
 446 173 438 247 438 316 c 2
 438 656 l 1
 518 656 l 1
 518 0 l 1
 426 0 l 1
 216 412 l 1
 153 548 l 1
 151 548 l 1
 154 481 162 411 162 343 c 2
 162 0 l 1
 82 0 l 1xb0
339 697 m 1
 187 812 l 1
 234 867 l 1
 375 739 l 1
 339 697 l 1
EndSplineSet
EndChar

StartChar: Ncaron
Encoding: 327 327 155
Width: 600
Flags: MW
HStem: 0 21G<82 82 82 162 426 426 426 518> 0 108<426 449 447 449 447 518> 706 47<267 312 308 312 308 353>
VStem: 82 80<0 343 0 656> 438 80<316 656 0 656>
LayerCount: 2
Fore
SplineSet
82 0 m 1xb8
 82 656 l 1
 174 656 l 1
 384 244 l 1
 447 108 l 1
 449 108 l 1x78
 446 173 438 247 438 316 c 2
 438 656 l 1
 518 656 l 1
 518 0 l 1
 426 0 l 1
 216 412 l 1
 153 548 l 1
 151 548 l 1
 154 481 162 411 162 343 c 2
 162 0 l 1
 82 0 l 1xb8
267 706 m 1
 162 819 l 1
 198 845 l 1
 308 753 l 1
 312 753 l 1
 422 845 l 1
 458 819 l 1
 353 706 l 1
 267 706 l 1
EndSplineSet
EndChar

StartChar: Ntilde
Encoding: 209 209 156
Width: 600
Flags: MW
HStem: 0 21G<82 82 82 162 426 426 426 518> 0 108<426 449 447 449 447 518> 698 20G<133 133> 709 61<359.5 395.5 359.5 415> 780 61<224.5 260.5>
VStem: 82 80<0 343 0 656> 133 56<714 718> 431 56<832 836> 438 80<316 656 0 656>
LayerCount: 2
Fore
SplineSet
82 0 m 1xac80
 82 656 l 1
 174 656 l 1
 384 244 l 1
 447 108 l 1
 449 108 l 1x5c80
 446 173 438 247 438 316 c 2
 438 656 l 1
 518 656 l 1
 518 0 l 1
 426 0 l 1
 216 412 l 1
 153 548 l 1
 151 548 l 1
 154 481 162 411 162 343 c 2
 162 0 l 1
 82 0 l 1xac80
385 709 m 0
 310 709 284 780 237 780 c 0
 212 780 193 757 189 714 c 1
 133 718 l 1xaa80
 137 794 175 841 235 841 c 0
 310 841 336 770 383 770 c 0
 408 770 426 793 431 836 c 1
 487 832 l 1x9d
 483 755 445 709 385 709 c 0
EndSplineSet
EndChar

StartChar: uni0145
Encoding: 325 325 157
Width: 600
Flags: MW
HStem: -226 40<205 213> -96 38<243 261> 0 21G<82 82 82 162 426 426 426 518> 0 108<426 449 447 449 447 518>
VStem: 82 80<0 343 0 656> 314 64<-151.5 -125> 438 80<316 656 0 656>
LayerCount: 2
Fore
SplineSet
82 0 m 1xaa
 82 656 l 1
 174 656 l 1
 384 244 l 1
 447 108 l 1
 449 108 l 1xde
 446 173 438 247 438 316 c 2
 438 656 l 1
 518 656 l 1
 518 0 l 1
 426 0 l 1
 216 412 l 1
 153 548 l 1
 151 548 l 1
 154 481 162 411 162 343 c 2
 162 0 l 1
 82 0 l 1xaa
213 -226 m 1
 205 -186 l 1
 289 -180 314 -165 314 -138 c 0
 314 -112 289 -100 243 -96 c 1
 261 -58 l 1
 348 -68 378 -90 378 -135 c 0
 378 -193 319 -221 213 -226 c 1
EndSplineSet
EndChar

StartChar: uni1E44
Encoding: 7748 7748 158
Width: 600
Flags: MW
HStem: 0 21G<82 82 82 162 426 426 426 518> 0 108<426 449 447 449 447 518> 714 113<293.5 326.5>
VStem: 82 80<0 343 0 656> 251 118<754 787.5> 438 80<316 656 0 656>
LayerCount: 2
Fore
SplineSet
82 0 m 1xb4
 82 656 l 1
 174 656 l 1
 384 244 l 1
 447 108 l 1
 449 108 l 1x7c
 446 173 438 247 438 316 c 2
 438 656 l 1
 518 656 l 1
 518 0 l 1
 426 0 l 1
 216 412 l 1
 153 548 l 1
 151 548 l 1
 154 481 162 411 162 343 c 2
 162 0 l 1
 82 0 l 1xb4
310 714 m 0
 277 714 251 737 251 771 c 0
 251 804 277 827 310 827 c 0
 343 827 369 804 369 771 c 0
 369 737 343 714 310 714 c 0
EndSplineSet
EndChar

StartChar: uni1E46
Encoding: 7750 7750 159
Width: 600
Flags: MW
HStem: -215 128<281.5 318.5> 0 21G<82 82 82 162 426 426 426 518> 0 108<426 449 447 449 447 518>
VStem: 82 80<0 343 0 656> 234 132<-170.5 -132> 438 80<316 656 0 656>
LayerCount: 2
Fore
SplineSet
82 0 m 1xd4
 82 656 l 1
 174 656 l 1
 384 244 l 1
 447 108 l 1
 449 108 l 1xbc
 446 173 438 247 438 316 c 2
 438 656 l 1
 518 656 l 1
 518 0 l 1
 426 0 l 1
 216 412 l 1
 153 548 l 1
 151 548 l 1
 154 481 162 411 162 343 c 2
 162 0 l 1
 82 0 l 1xd4
300 -215 m 0
 263 -215 234 -190 234 -151 c 0
 234 -113 263 -87 300 -87 c 0
 337 -87 366 -113 366 -151 c 0
 366 -190 337 -215 300 -215 c 0
EndSplineSet
EndChar

StartChar: uni1E48
Encoding: 7752 7752 160
Width: 600
Flags: MW
HStem: -170 57<167 433 167 433> 0 21G<82 82 82 162 426 426 426 518> 0 108<426 449 447 449 447 518>
VStem: 82 80<0 343 0 656> 167 266<-170 -113 -170 -113> 438 80<316 656 0 656>
LayerCount: 2
Fore
SplineSet
82 0 m 1xd4
 82 656 l 1
 174 656 l 1
 384 244 l 1
 447 108 l 1
 449 108 l 1xb4
 446 173 438 247 438 316 c 2
 438 656 l 1
 518 656 l 1
 518 0 l 1
 426 0 l 1
 216 412 l 1
 153 548 l 1
 151 548 l 1
 154 481 162 411 162 343 c 2
 162 0 l 1
 82 0 l 1xd4
167 -170 m 1xc8
 167 -113 l 1
 433 -113 l 1
 433 -170 l 1
 167 -170 l 1xc8
EndSplineSet
EndChar

StartChar: Ograve
Encoding: 210 210 161
Width: 600
Flags: MW
HStem: -12 73<250 350 250 374> 595 73<250 350>
VStem: 48 86<247 413.5 247 437> 466 86<247 413.5>
LayerCount: 2
Fore
SplineSet
300 -12 m 0
 152 -12 48 116 48 331 c 0
 48 543 152 668 300 668 c 0
 448 668 552 543 552 331 c 0
 552 116 448 -12 300 -12 c 0
300 61 m 0
 400 61 466 163 466 331 c 0
 466 496 400 595 300 595 c 0
 200 595 134 496 134 331 c 0
 134 163 200 61 300 61 c 0
329 697 m 1
 177 812 l 1
 224 867 l 1
 365 739 l 1
 329 697 l 1
EndSplineSet
EndChar

StartChar: Oacute
Encoding: 211 211 162
Width: 600
Flags: MW
HStem: -12 73<250 350 250 374> 595 73<250 350>
VStem: 48 86<247 413.5 247 437> 466 86<247 413.5>
LayerCount: 2
Fore
SplineSet
300 -12 m 0
 152 -12 48 116 48 331 c 0
 48 543 152 668 300 668 c 0
 448 668 552 543 552 331 c 0
 552 116 448 -12 300 -12 c 0
300 61 m 0
 400 61 466 163 466 331 c 0
 466 496 400 595 300 595 c 0
 200 595 134 496 134 331 c 0
 134 163 200 61 300 61 c 0
271 697 m 1
 235 739 l 1
 376 867 l 1
 423 812 l 1
 271 697 l 1
EndSplineSet
EndChar

StartChar: Ocircumflex
Encoding: 212 212 163
Width: 600
Flags: MW
HStem: -12 73<250 350 250 374> 595 73<250 350> 705 20G<152 152 448 448> 792 46<298 302 298 298>
VStem: 48 86<247 413.5 247 437> 466 86<247 413.5>
LayerCount: 2
Fore
SplineSet
300 -12 m 0
 152 -12 48 116 48 331 c 0
 48 543 152 668 300 668 c 0
 448 668 552 543 552 331 c 0
 552 116 448 -12 300 -12 c 0
300 61 m 0
 400 61 466 163 466 331 c 0
 466 496 400 595 300 595 c 0
 200 595 134 496 134 331 c 0
 134 163 200 61 300 61 c 0
188 699 m 1
 152 725 l 1
 257 838 l 1
 343 838 l 1
 448 725 l 1
 412 699 l 1
 302 792 l 1
 298 792 l 1
 188 699 l 1
EndSplineSet
MultipleSubs2: "Multiple Substitution lookup 15 subtable" O uni0302
EndChar

StartChar: Otilde
Encoding: 213 213 164
Width: 600
Flags: MW
HStem: -12 73<250 350 250 374> 595 73<250 350> 698 20G<123 123> 709 61<349.5 385.5 349.5 405> 780 61<214.5 250.5>
VStem: 48 86<247 413.5 247 437> 123 56<714 718> 421 56<832 836> 466 86<247 413.5>
LayerCount: 2
Fore
SplineSet
300 -12 m 0xec80
 152 -12 48 116 48 331 c 0
 48 543 152 668 300 668 c 0
 448 668 552 543 552 331 c 0
 552 116 448 -12 300 -12 c 0xec80
300 61 m 0
 400 61 466 163 466 331 c 0
 466 496 400 595 300 595 c 0
 200 595 134 496 134 331 c 0
 134 163 200 61 300 61 c 0
375 709 m 0xdd
 300 709 274 780 227 780 c 0
 202 780 183 757 179 714 c 1
 123 718 l 1xea80
 127 794 165 841 225 841 c 0
 300 841 326 770 373 770 c 0
 398 770 416 793 421 836 c 1
 477 832 l 1
 473 755 435 709 375 709 c 0xdd
EndSplineSet
EndChar

StartChar: Odieresis
Encoding: 214 214 165
Width: 600
GlyphClass: 2
Flags: MW
HStem: -12 73<250 350 250 374> 595 73<250 350> 715 101<194.5 223.5 376.5 405.5>
VStem: 48 86<247 413.5 247 437> 158 101<751 781> 341 101<751 781> 466 86<247 413.5>
AnchorPoint: "Anchor-6" 300 0 basechar 0
LayerCount: 2
Fore
SplineSet
300 -12 m 0
 152 -12 48 116 48 331 c 0
 48 543 152 668 300 668 c 0
 448 668 552 543 552 331 c 0
 552 116 448 -12 300 -12 c 0
300 61 m 0
 400 61 466 163 466 331 c 0
 466 496 400 595 300 595 c 0
 200 595 134 496 134 331 c 0
 134 163 200 61 300 61 c 0
209 715 m 0xfe
 180 715 158 736 158 766 c 0
 158 796 180 816 209 816 c 0
 238 816 259 796 259 766 c 0
 259 736 238 715 209 715 c 0xfe
391 715 m 0
 362 715 341 736 341 766 c 0
 341 796 362 816 391 816 c 0
 420 816 442 796 442 766 c 0
 442 736 420 715 391 715 c 0
EndSplineSet
EndChar

StartChar: Omacron
Encoding: 332 332 166
Width: 600
Flags: MW
HStem: -12 73<250 350 250 374> 595 73<250 350> 735 57<166 434 166 434>
VStem: 48 86<247 413.5 247 437> 166 268<735 792 735 792> 466 86<247 413.5>
LayerCount: 2
Fore
SplineSet
300 -12 m 0
 152 -12 48 116 48 331 c 0
 48 543 152 668 300 668 c 0
 448 668 552 543 552 331 c 0
 552 116 448 -12 300 -12 c 0
300 61 m 0
 400 61 466 163 466 331 c 0
 466 496 400 595 300 595 c 0
 200 595 134 496 134 331 c 0
 134 163 200 61 300 61 c 0
166 735 m 1
 166 792 l 1
 434 792 l 1
 434 735 l 1
 166 735 l 1
EndSplineSet
MultipleSubs2: "Multiple Substitution lookup 15 subtable" O uni0304
EndChar

StartChar: Ohungarumlaut
Encoding: 336 336 167
Width: 600
Flags: MW
HStem: -12 73<250 350 250 374> 595 73<250 350> 704 20G<185 185 345 345>
VStem: 48 86<247 413.5 247 437> 466 86<247 413.5>
LayerCount: 2
Fore
SplineSet
300 -12 m 0
 152 -12 48 116 48 331 c 0
 48 543 152 668 300 668 c 0
 448 668 552 543 552 331 c 0
 552 116 448 -12 300 -12 c 0
300 61 m 0
 400 61 466 163 466 331 c 0
 466 496 400 595 300 595 c 0
 200 595 134 496 134 331 c 0
 134 163 200 61 300 61 c 0
228 703 m 1
 185 724 l 1
 277 876 l 1
 334 844 l 1
 228 703 l 1
388 703 m 1
 345 724 l 1
 438 876 l 1
 494 844 l 1
 388 703 l 1
EndSplineSet
EndChar

StartChar: Obreve
Encoding: 334 334 168
Width: 600
Flags: MW
HStem: -12 73<250 350 250 374> 595 73<250 350> 705 53<271.5 328.5 271.5 346.5>
VStem: 48 86<247 413.5 247 437> 154 50<834 842> 396 50<834 842> 466 86<247 413.5>
LayerCount: 2
Fore
SplineSet
300 -12 m 0
 152 -12 48 116 48 331 c 0
 48 543 152 668 300 668 c 0
 448 668 552 543 552 331 c 0
 552 116 448 -12 300 -12 c 0
300 61 m 0
 400 61 466 163 466 331 c 0
 466 496 400 595 300 595 c 0
 200 595 134 496 134 331 c 0
 134 163 200 61 300 61 c 0
300 705 m 0xfe
 207 705 162 764 154 834 c 1
 204 842 l 1
 212 795 243 758 300 758 c 0
 357 758 388 795 396 842 c 1
 446 834 l 1
 438 764 393 705 300 705 c 0xfe
EndSplineSet
EndChar

StartChar: uni01D1
Encoding: 465 465 169
Width: 600
Flags: MW
HStem: -12 73<250 350 250 374> 595 73<250 350> 706 47<257 302 298 302 298 343>
VStem: 48 86<247 413.5 247 437> 466 86<247 413.5>
LayerCount: 2
Fore
SplineSet
300 -12 m 0
 152 -12 48 116 48 331 c 0
 48 543 152 668 300 668 c 0
 448 668 552 543 552 331 c 0
 552 116 448 -12 300 -12 c 0
300 61 m 0
 400 61 466 163 466 331 c 0
 466 496 400 595 300 595 c 0
 200 595 134 496 134 331 c 0
 134 163 200 61 300 61 c 0
257 706 m 1
 152 819 l 1
 188 845 l 1
 298 753 l 1
 302 753 l 1
 412 845 l 1
 448 819 l 1
 343 706 l 1
 257 706 l 1
EndSplineSet
EndChar

StartChar: uni01EA
Encoding: 490 490 170
Width: 600
GlyphClass: 2
Flags: MW
HStem: -225 58<320 337> -11 71 595 73<250 350>
VStem: 48 86<245 413.5 245 436> 215 64<-133.5 -107.5> 466 86<245 413.5>
AnchorPoint: "Anchor-0" 300 676 basechar 0
LayerCount: 2
Fore
SplineSet
318 -225 m 0
 259 -225 215 -195 215 -134 c 0
 215 -81 249 -42 286 -11 c 1
 131 1 48 143 48 331 c 0
 48 541 152 668 300 668 c 0
 448 668 552 540 552 331 c 0
 552 156 487 47 371 -2 c 0
 310 -28 279 -75 279 -116 c 0
 279 -151 306 -167 334 -167 c 0
 355 -167 371 -157 384 -146 c 1
 409 -189 l 1
 386 -209 356 -225 318 -225 c 0
300 60 m 0
 400 60 466 159 466 331 c 0
 466 496 400 595 300 595 c 0
 200 595 134 496 134 331 c 0
 134 159 200 60 300 60 c 0
EndSplineSet
Ligature2: "'ccmp' Glyph Composition/Decomposition lookup 19 subtable" O uni0328
EndChar

StartChar: uni1ECC
Encoding: 7884 7884 171
Width: 600
Flags: MW
HStem: -215 128<281.5 318.5> -12 73<250 350 250 374> 595 73<250 350>
VStem: 48 86<247 413.5 247 437> 234 132<-170.5 -132> 466 86<247 413.5>
LayerCount: 2
Fore
SplineSet
300 -12 m 0
 152 -12 48 116 48 331 c 0
 48 543 152 668 300 668 c 0
 448 668 552 543 552 331 c 0
 552 116 448 -12 300 -12 c 0
300 61 m 0
 400 61 466 163 466 331 c 0
 466 496 400 595 300 595 c 0
 200 595 134 496 134 331 c 0
 134 163 200 61 300 61 c 0
300 -215 m 0
 263 -215 234 -190 234 -151 c 0
 234 -113 263 -87 300 -87 c 0
 337 -87 366 -113 366 -151 c 0
 366 -190 337 -215 300 -215 c 0
EndSplineSet
EndChar

StartChar: uni1ECE
Encoding: 7886 7886 172
Width: 600
Flags: MW
HStem: -12 73<250 350 250 374> 595 73<250 350> 824 48<232 241>
VStem: 48 86<247 413.5 247 437> 315 64<769.5 795> 466 86<247 413.5>
LayerCount: 2
Fore
SplineSet
300 -12 m 0
 152 -12 48 116 48 331 c 0
 48 543 152 668 300 668 c 0
 448 668 552 543 552 331 c 0
 552 116 448 -12 300 -12 c 0
300 61 m 0
 400 61 466 163 466 331 c 0
 466 496 400 595 300 595 c 0
 200 595 134 496 134 331 c 0
 134 163 200 61 300 61 c 0
268 698 m 1
 259 736 l 1
 291 745 315 757 315 782 c 0
 315 808 288 822 232 824 c 1
 241 872 l 1
 328 869 379 842 379 791 c 0
 379 733 326 708 268 698 c 1
EndSplineSet
EndChar

StartChar: uni1ED0
Encoding: 7888 7888 173
Width: 600
Flags: MW
HStem: -12 73<250 350 250 374> 595 73<250 350> 705 20G<171 171 429 429> 768 47<298 302 298 298>
VStem: 48 86<247 413.5 247 437> 466 86<247 413.5>
LayerCount: 2
Fore
SplineSet
300 -12 m 0
 152 -12 48 116 48 331 c 0
 48 543 152 668 300 668 c 0
 448 668 552 543 552 331 c 0
 552 116 448 -12 300 -12 c 0
300 61 m 0
 400 61 466 163 466 331 c 0
 466 496 400 595 300 595 c 0
 200 595 134 496 134 331 c 0
 134 163 200 61 300 61 c 0
205 699 m 1
 171 725 l 1
 264 815 l 1
 336 815 l 1
 429 725 l 1
 395 699 l 1
 302 768 l 1
 298 768 l 1
 205 699 l 1
421 763 m 1
 391 795 l 1
 488 888 l 1
 523 849 l 1
 421 763 l 1
EndSplineSet
EndChar

StartChar: uni1ED2
Encoding: 7890 7890 174
Width: 600
Flags: MW
HStem: -12 73<250 350 250 374> 595 73<250 350> 705 20G<171 171 429 429> 768 47<298 302 298 298>
VStem: 48 86<247 413.5 247 437> 466 86<247 413.5>
LayerCount: 2
Fore
SplineSet
300 -12 m 0
 152 -12 48 116 48 331 c 0
 48 543 152 668 300 668 c 0
 448 668 552 543 552 331 c 0
 552 116 448 -12 300 -12 c 0
300 61 m 0
 400 61 466 163 466 331 c 0
 466 496 400 595 300 595 c 0
 200 595 134 496 134 331 c 0
 134 163 200 61 300 61 c 0
205 699 m 1
 171 725 l 1
 264 815 l 1
 336 815 l 1
 429 725 l 1
 395 699 l 1
 302 768 l 1
 298 768 l 1
 205 699 l 1
179 763 m 1
 89 851 l 1
 124 888 l 1
 209 793 l 1
 179 763 l 1
EndSplineSet
EndChar

StartChar: uni1ED4
Encoding: 7892 7892 175
Width: 600
Flags: MW
HStem: -12 73<250 350 250 374> 595 73<250 350> 705 20G<171 171 429 429> 768 47<298 302 298 298> 864 42<378 387>
VStem: 48 86<247 413.5 247 437> 449 58<814.5 838> 466 86<247 413.5>
LayerCount: 2
Fore
SplineSet
300 -12 m 0xf5
 152 -12 48 116 48 331 c 0
 48 543 152 668 300 668 c 0
 448 668 552 543 552 331 c 0
 552 116 448 -12 300 -12 c 0xf5
300 61 m 0
 400 61 466 163 466 331 c 0
 466 496 400 595 300 595 c 0
 200 595 134 496 134 331 c 0
 134 163 200 61 300 61 c 0
205 699 m 1
 171 725 l 1
 264 815 l 1
 336 815 l 1
 429 725 l 1
 395 699 l 1
 302 768 l 1
 298 768 l 1
 205 699 l 1
415 754 m 1xfe
 404 789 l 1
 429 795 449 804 449 825 c 0
 449 851 428 861 378 864 c 1
 387 906 l 1
 465 903 507 879 507 833 c 0
 507 782 463 762 415 754 c 1xfe
EndSplineSet
EndChar

StartChar: uni1ED6
Encoding: 7894 7894 176
Width: 600
Flags: MW
HStem: -12 73<250 350 250 374> 595 73<250 350> 705 20G<171 171 429 429> 765 47<298 302 298 298> 839 51<341.5 374 341.5 393> 889 50<226 258.5>
VStem: 48 86<247 413.5 247 437> 155 45<843 848> 400 45<931 936> 466 86<247 413.5>
LayerCount: 2
Fore
SplineSet
300 -12 m 0xf640
 152 -12 48 116 48 331 c 0
 48 543 152 668 300 668 c 0
 448 668 552 543 552 331 c 0
 552 116 448 -12 300 -12 c 0xf640
300 61 m 0
 400 61 466 163 466 331 c 0
 466 496 400 595 300 595 c 0
 200 595 134 496 134 331 c 0
 134 163 200 61 300 61 c 0
205 699 m 1
 171 725 l 1
 264 812 l 1
 336 812 l 1
 429 725 l 1
 395 699 l 1
 302 765 l 1
 298 765 l 1
 205 699 l 1
366 839 m 0xfac0
 302 839 279 889 238 889 c 0
 214 889 204 872 200 843 c 1
 155 848 l 1
 158 899 180 939 234 939 c 0xf740
 298 939 321 890 362 890 c 0
 386 890 396 907 400 936 c 1
 445 931 l 1
 442 879 420 839 366 839 c 0xfac0
EndSplineSet
EndChar

StartChar: uni1ED8
Encoding: 7896 7896 177
Width: 600
Flags: MW
HStem: -215 128<281.5 318.5> -12 73<250 350 250 374> 595 73<250 350> 705 20G<152 152 448 448> 792 46<298 302 298 298>
VStem: 48 86<247 413.5 247 437> 234 132<-170.5 -132> 466 86<247 413.5>
LayerCount: 2
Fore
SplineSet
300 -12 m 0
 152 -12 48 116 48 331 c 0
 48 543 152 668 300 668 c 0
 448 668 552 543 552 331 c 0
 552 116 448 -12 300 -12 c 0
300 61 m 0
 400 61 466 163 466 331 c 0
 466 496 400 595 300 595 c 0
 200 595 134 496 134 331 c 0
 134 163 200 61 300 61 c 0
188 699 m 1
 152 725 l 1
 257 838 l 1
 343 838 l 1
 448 725 l 1
 412 699 l 1
 302 792 l 1
 298 792 l 1
 188 699 l 1
300 -215 m 0
 263 -215 234 -190 234 -151 c 0
 234 -113 263 -87 300 -87 c 0
 337 -87 366 -113 366 -151 c 0
 366 -190 337 -215 300 -215 c 0
EndSplineSet
EndChar

StartChar: Ohorn
Encoding: 416 416 178
Width: 600
GlyphClass: 2
Flags: MW
HStem: -12 73<250 350 250 374> 595 73<250 320.5 226 350>
VStem: 48 86<247 413.5 247 437> 466 86<247 393 223.5 413.5> 489 73<703 736>
AnchorPoint: "Anchor-3" 300 -20 basechar 0
AnchorPoint: "Anchor-0" 300 676 basechar 0
LayerCount: 2
Fore
SplineSet
300 -12 m 0xf0
 152 -12 48 116 48 331 c 0
 48 543 152 668 300 668 c 0
 341 668 378 659 411 640 c 1
 464 651 489 680 489 726 c 0
 489 746 483 768 474 784 c 1
 539 813 l 1
 553 791 562 762 562 732 c 0xe8
 562 664 522 622 458 606 c 1
 517 549 552 455 552 331 c 0
 552 116 448 -12 300 -12 c 0xf0
300 61 m 0
 400 61 466 163 466 331 c 0
 466 496 400 595 300 595 c 0
 200 595 134 496 134 331 c 0
 134 163 200 61 300 61 c 0
EndSplineSet
EndChar

StartChar: uni1EDA
Encoding: 7898 7898 179
Width: 600
Flags: MW
HStem: -12 73<250 350 250 374> 595 73<250 320.5 226 350>
VStem: 48 86<247 413.5 247 437> 466 86<247 393 223.5 413.5> 489 73<703 736>
LayerCount: 2
Fore
SplineSet
300 -12 m 0xf0
 152 -12 48 116 48 331 c 0
 48 543 152 668 300 668 c 0
 341 668 378 659 411 640 c 1
 464 651 489 680 489 726 c 0
 489 746 483 768 474 784 c 1
 539 813 l 1
 553 791 562 762 562 732 c 0xe8
 562 664 522 622 458 606 c 1
 517 549 552 455 552 331 c 0
 552 116 448 -12 300 -12 c 0xf0
300 61 m 0
 400 61 466 163 466 331 c 0
 466 496 400 595 300 595 c 0
 200 595 134 496 134 331 c 0
 134 163 200 61 300 61 c 0
271 697 m 1
 235 739 l 1
 376 867 l 1
 423 812 l 1
 271 697 l 1
EndSplineSet
EndChar

StartChar: uni1EDC
Encoding: 7900 7900 180
Width: 600
Flags: MW
HStem: -12 73<250 350 250 374> 595 73<250 320.5 226 350>
VStem: 48 86<247 413.5 247 437> 466 86<247 393 223.5 413.5> 489 73<703 736>
LayerCount: 2
Fore
SplineSet
300 -12 m 0xf0
 152 -12 48 116 48 331 c 0
 48 543 152 668 300 668 c 0
 341 668 378 659 411 640 c 1
 464 651 489 680 489 726 c 0
 489 746 483 768 474 784 c 1
 539 813 l 1
 553 791 562 762 562 732 c 0xe8
 562 664 522 622 458 606 c 1
 517 549 552 455 552 331 c 0
 552 116 448 -12 300 -12 c 0xf0
300 61 m 0
 400 61 466 163 466 331 c 0
 466 496 400 595 300 595 c 0
 200 595 134 496 134 331 c 0
 134 163 200 61 300 61 c 0
329 697 m 1
 177 812 l 1
 224 867 l 1
 365 739 l 1
 329 697 l 1
EndSplineSet
EndChar

StartChar: uni1EDE
Encoding: 7902 7902 181
Width: 600
Flags: MW
HStem: -12 73<250 350 250 374> 595 73<250 320.5 226 350> 824 48<232 241>
VStem: 48 86<247 413.5 247 437> 315 64<769.5 795> 466 86<247 393 223.5 413.5> 489 73<703 736>
LayerCount: 2
Fore
SplineSet
300 -12 m 0xf4
 152 -12 48 116 48 331 c 0
 48 543 152 668 300 668 c 0
 341 668 378 659 411 640 c 1
 464 651 489 680 489 726 c 0
 489 746 483 768 474 784 c 1
 539 813 l 1
 553 791 562 762 562 732 c 0xf2
 562 664 522 622 458 606 c 1
 517 549 552 455 552 331 c 0
 552 116 448 -12 300 -12 c 0xf4
300 61 m 0
 400 61 466 163 466 331 c 0
 466 496 400 595 300 595 c 0
 200 595 134 496 134 331 c 0
 134 163 200 61 300 61 c 0
268 698 m 1
 259 736 l 1
 291 745 315 757 315 782 c 0
 315 808 288 822 232 824 c 1
 241 872 l 1
 328 869 379 842 379 791 c 0xfc
 379 733 326 708 268 698 c 1
EndSplineSet
EndChar

StartChar: uni1EE0
Encoding: 7904 7904 182
Width: 600
Flags: MW
HStem: -12 73<250 350 250 374> 595 73<250 320.5 226 350> 698 20G<103 103> 709 61<329.5 365.5 329.5 385> 780 61<194.5 230.5>
VStem: 48 86<247 413.5 247 437> 103 56<714 718> 401 56<832 836> 466 86<247 393 223.5 413.5> 489 73<703 736>
LayerCount: 2
Fore
SplineSet
300 -12 m 0xec80
 152 -12 48 116 48 331 c 0
 48 543 152 668 300 668 c 0
 341 668 378 659 411 640 c 1
 464 651 489 680 489 726 c 0
 489 746 483 768 474 784 c 1
 539 813 l 1
 553 791 562 762 562 732 c 0xec40
 562 664 522 622 458 606 c 1
 517 549 552 455 552 331 c 0
 552 116 448 -12 300 -12 c 0xec80
300 61 m 0
 400 61 466 163 466 331 c 0
 466 496 400 595 300 595 c 0
 200 595 134 496 134 331 c 0
 134 163 200 61 300 61 c 0
355 709 m 0xdd80
 280 709 254 780 207 780 c 0
 182 780 163 757 159 714 c 1
 103 718 l 1xea80
 107 794 145 841 205 841 c 0
 280 841 306 770 353 770 c 0
 378 770 396 793 401 836 c 1
 457 832 l 1
 453 755 415 709 355 709 c 0xdd80
EndSplineSet
EndChar

StartChar: uni1EE2
Encoding: 7906 7906 183
Width: 600
Flags: MW
HStem: -215 128<281.5 318.5> -12 73<250 350 250 374> 595 73<250 320.5 226 350>
VStem: 48 86<247 413.5 247 437> 234 132<-170.5 -132> 466 86<247 393 223.5 413.5> 489 73<703 736>
LayerCount: 2
Fore
SplineSet
300 -12 m 0xf4
 152 -12 48 116 48 331 c 0
 48 543 152 668 300 668 c 0
 341 668 378 659 411 640 c 1
 464 651 489 680 489 726 c 0
 489 746 483 768 474 784 c 1
 539 813 l 1
 553 791 562 762 562 732 c 0xf2
 562 664 522 622 458 606 c 1
 517 549 552 455 552 331 c 0
 552 116 448 -12 300 -12 c 0xf4
300 61 m 0
 400 61 466 163 466 331 c 0
 466 496 400 595 300 595 c 0
 200 595 134 496 134 331 c 0
 134 163 200 61 300 61 c 0
300 -215 m 0xfc
 263 -215 234 -190 234 -151 c 0
 234 -113 263 -87 300 -87 c 0
 337 -87 366 -113 366 -151 c 0
 366 -190 337 -215 300 -215 c 0xfc
EndSplineSet
EndChar

StartChar: uni1E52
Encoding: 7762 7762 184
Width: 600
Flags: MW
HStem: -12 73<250 350 250 374> 595 73<250 350> 735 57<166 434 166 434>
VStem: 48 86<247 413.5 247 437> 166 268<735 792 735 792> 466 86<247 413.5>
LayerCount: 2
Fore
SplineSet
300 -12 m 0
 152 -12 48 116 48 331 c 0
 48 543 152 668 300 668 c 0
 448 668 552 543 552 331 c 0
 552 116 448 -12 300 -12 c 0
300 61 m 0
 400 61 466 163 466 331 c 0
 466 496 400 595 300 595 c 0
 200 595 134 496 134 331 c 0
 134 163 200 61 300 61 c 0
166 735 m 1
 166 792 l 1
 434 792 l 1
 434 735 l 1
 166 735 l 1
282 827 m 1
 251 865 l 1
 372 968 l 1
 411 920 l 1
 282 827 l 1
EndSplineSet
EndChar

StartChar: Oslash
Encoding: 216 216 185
Width: 600
GlyphClass: 2
Flags: MW
HStem: -12 73<278.5 350 278.5 374> 595 73<250 321>
VStem: 48 86<301.5 413.5 301.5 437> 466 86<247 360.5>
AnchorPoint: "Anchor-2" 300 0 basechar 0
AnchorPoint: "Anchor-0" 300 676 basechar 0
LayerCount: 2
Fore
SplineSet
300 -12 m 0
 240 -12 188 9 146 48 c 1
 92 -32 l 1
 36 4 l 1
 103 102 l 1
 68 159 48 237 48 331 c 0
 48 543 152 668 300 668 c 0
 359 668 410 648 452 611 c 1
 504 688 l 1
 560 652 l 1
 496 558 l 1
 532 502 552 425 552 331 c 0
 552 116 448 -12 300 -12 c 0
134 331 m 0
 134 272 142 222 157 181 c 1
 406 545 l 1
 378 577 342 595 300 595 c 0
 200 595 134 496 134 331 c 0
300 61 m 0
 400 61 466 163 466 331 c 0
 466 390 458 440 442 480 c 1
 192 115 l 1
 220 80 257 61 300 61 c 0
EndSplineSet
EndChar

StartChar: Oslashacute
Encoding: 510 510 186
Width: 600
Flags: MW
HStem: -12 73<278.5 350 278.5 374> 595 73<250 321>
VStem: 48 86<301.5 413.5 301.5 437> 466 86<247 360.5>
LayerCount: 2
Fore
SplineSet
300 -12 m 0
 240 -12 188 9 146 48 c 1
 92 -32 l 1
 36 4 l 1
 103 102 l 1
 68 159 48 237 48 331 c 0
 48 543 152 668 300 668 c 0
 359 668 410 648 452 611 c 1
 504 688 l 1
 560 652 l 1
 496 558 l 1
 532 502 552 425 552 331 c 0
 552 116 448 -12 300 -12 c 0
134 331 m 0
 134 272 142 222 157 181 c 1
 406 545 l 1
 378 577 342 595 300 595 c 0
 200 595 134 496 134 331 c 0
300 61 m 0
 400 61 466 163 466 331 c 0
 466 390 458 440 442 480 c 1
 192 115 l 1
 220 80 257 61 300 61 c 0
271 697 m 1
 235 739 l 1
 376 867 l 1
 423 812 l 1
 271 697 l 1
EndSplineSet
EndChar

StartChar: OE
Encoding: 338 338 187
Width: 600
GlyphClass: 2
Flags: MW
HStem: 0 68<289 296 296 311 289 591> 0 71<387 591 387 591> 309 71<387 535 387 535> 587 70<387 581 387 387> 588 69<232 581 299 311>
VStem: 33 86<247.5 414 247.5 435> 311 76<71 309 380 587>
AnchorPoint: "Anchor-2" 452 0 basechar 0
AnchorPoint: "Anchor-0" 383 676 basechar 0
LayerCount: 2
Fore
SplineSet
296 0 m 2x76
 131 0 33 122 33 331 c 0
 33 539 133 657 299 657 c 2
 581 657 l 1
 581 587 l 1
 387 587 l 1
 387 380 l 1
 535 380 l 1
 535 309 l 1
 387 309 l 1
 387 71 l 1
 591 71 l 1
 591 0 l 1
 296 0 l 2x76
289 68 m 2xae
 311 68 l 1
 311 588 l 1
 289 588 l 2
 175 588 119 497 119 331 c 0
 119 164 175 68 289 68 c 2xae
EndSplineSet
EndChar

StartChar: Racute
Encoding: 340 340 188
Width: 600
Flags: MW
HStem: 0 21G<100 100 100 183 458 458 458 553> 277 68<183 292 292 300 183 292> 589 67<183 292 183 183>
VStem: 100 83<0 277 345 589> 450 83<429.5 515>
LayerCount: 2
Fore
SplineSet
100 0 m 1
 100 656 l 1
 304 656 l 2
 437 656 533 608 533 472 c 0
 533 370 475 309 386 286 c 1
 553 0 l 1
 458 0 l 1
 300 277 l 1
 183 277 l 1
 183 0 l 1
 100 0 l 1
183 345 m 1
 292 345 l 2
 394 345 450 387 450 472 c 0
 450 558 394 589 292 589 c 2
 183 589 l 1
 183 345 l 1
275 697 m 1
 239 739 l 1
 380 867 l 1
 427 812 l 1
 275 697 l 1
EndSplineSet
EndChar

StartChar: Rcaron
Encoding: 344 344 189
Width: 600
Flags: MW
HStem: 0 21G<100 100 100 183 458 458 458 553> 277 68<183 292 292 300 183 292> 589 67<183 292 183 183> 706 47<261 306 302 306 302 347>
VStem: 100 83<0 277 345 589> 450 83<429.5 515>
LayerCount: 2
Fore
SplineSet
100 0 m 1
 100 656 l 1
 304 656 l 2
 437 656 533 608 533 472 c 0
 533 370 475 309 386 286 c 1
 553 0 l 1
 458 0 l 1
 300 277 l 1
 183 277 l 1
 183 0 l 1
 100 0 l 1
183 345 m 1
 292 345 l 2
 394 345 450 387 450 472 c 0
 450 558 394 589 292 589 c 2
 183 589 l 1
 183 345 l 1
261 706 m 1
 156 819 l 1
 192 845 l 1
 302 753 l 1
 306 753 l 1
 416 845 l 1
 452 819 l 1
 347 706 l 1
 261 706 l 1
EndSplineSet
EndChar

StartChar: uni1E58
Encoding: 7768 7768 190
Width: 600
Flags: MW
HStem: 0 21G<100 100 100 183 458 458 458 553> 277 68<183 292 292 300 183 292> 589 67<183 292 183 183> 714 113<287.5 320.5>
VStem: 100 83<0 277 345 589> 245 118<754 787.5> 450 83<429.5 515>
LayerCount: 2
Fore
SplineSet
100 0 m 1
 100 656 l 1
 304 656 l 2
 437 656 533 608 533 472 c 0
 533 370 475 309 386 286 c 1
 553 0 l 1
 458 0 l 1
 300 277 l 1
 183 277 l 1
 183 0 l 1
 100 0 l 1
183 345 m 1
 292 345 l 2
 394 345 450 387 450 472 c 0
 450 558 394 589 292 589 c 2
 183 589 l 1
 183 345 l 1
304 714 m 0
 271 714 245 737 245 771 c 0
 245 804 271 827 304 827 c 0
 337 827 363 804 363 771 c 0
 363 737 337 714 304 714 c 0
EndSplineSet
EndChar

StartChar: uni0156
Encoding: 342 342 191
Width: 600
Flags: MW
HStem: -226 40<225 233> -96 38<263 281> 0 21G<100 100 100 183 458 458 458 553> 277 68<183 292 292 300 183 292> 589 67<183 292 183 183>
VStem: 100 83<0 277 345 589> 334 64<-151.5 -125> 450 83<429.5 515>
LayerCount: 2
Fore
SplineSet
100 0 m 1
 100 656 l 1
 304 656 l 2
 437 656 533 608 533 472 c 0
 533 370 475 309 386 286 c 1
 553 0 l 1
 458 0 l 1
 300 277 l 1
 183 277 l 1
 183 0 l 1
 100 0 l 1
183 345 m 1
 292 345 l 2
 394 345 450 387 450 472 c 0
 450 558 394 589 292 589 c 2
 183 589 l 1
 183 345 l 1
233 -226 m 1
 225 -186 l 1
 309 -180 334 -165 334 -138 c 0
 334 -112 309 -100 263 -96 c 1
 281 -58 l 1
 368 -68 398 -90 398 -135 c 0
 398 -193 339 -221 233 -226 c 1
EndSplineSet
EndChar

StartChar: uni1E5A
Encoding: 7770 7770 192
Width: 600
Flags: MW
HStem: -215 128<301.5 338.5> 0 21G<100 100 100 183 458 458 458 553> 277 68<183 292 292 300 183 292> 589 67<183 292 183 183>
VStem: 100 83<0 277 345 589> 254 132<-170.5 -132> 450 83<429.5 515>
LayerCount: 2
Fore
SplineSet
100 0 m 1
 100 656 l 1
 304 656 l 2
 437 656 533 608 533 472 c 0
 533 370 475 309 386 286 c 1
 553 0 l 1
 458 0 l 1
 300 277 l 1
 183 277 l 1
 183 0 l 1
 100 0 l 1
183 345 m 1
 292 345 l 2
 394 345 450 387 450 472 c 0
 450 558 394 589 292 589 c 2
 183 589 l 1
 183 345 l 1
320 -215 m 0
 283 -215 254 -190 254 -151 c 0
 254 -113 283 -87 320 -87 c 0
 357 -87 386 -113 386 -151 c 0
 386 -190 357 -215 320 -215 c 0
EndSplineSet
EndChar

StartChar: uni1E5C
Encoding: 7772 7772 193
Width: 600
Flags: MW
HStem: -215 128<301.5 338.5> 0 21G<100 100 100 183 458 458 458 553> 277 68<183 292 292 300 183 292> 589 67<183 292 183 183> 735 57<170 438 170 438>
VStem: 100 83<0 277 345 589> 170 268<735 792 735 792> 254 132<-170.5 -132> 450 83<429.5 515>
LayerCount: 2
Fore
SplineSet
100 0 m 1xfc80
 100 656 l 1
 304 656 l 2
 437 656 533 608 533 472 c 0
 533 370 475 309 386 286 c 1
 553 0 l 1
 458 0 l 1
 300 277 l 1
 183 277 l 1
 183 0 l 1
 100 0 l 1xfc80
183 345 m 1
 292 345 l 2
 394 345 450 387 450 472 c 0
 450 558 394 589 292 589 c 2
 183 589 l 1
 183 345 l 1
170 735 m 1xfa80
 170 792 l 1
 438 792 l 1
 438 735 l 1
 170 735 l 1xfa80
320 -215 m 0xfd80
 283 -215 254 -190 254 -151 c 0
 254 -113 283 -87 320 -87 c 0
 357 -87 386 -113 386 -151 c 0
 386 -190 357 -215 320 -215 c 0xfd80
EndSplineSet
EndChar

StartChar: uni1E5E
Encoding: 7774 7774 194
Width: 600
Flags: MW
HStem: -170 57<187 453 187 453> 0 21G<100 100 100 183 458 458 458 553> 277 68<183 292 292 300 183 292> 589 67<183 292 183 183>
VStem: 100 83<0 277 345 589> 187 266<-170 -113 -170 -113> 450 83<429.5 515>
LayerCount: 2
Fore
SplineSet
100 0 m 1xfa
 100 656 l 1
 304 656 l 2
 437 656 533 608 533 472 c 0
 533 370 475 309 386 286 c 1
 553 0 l 1
 458 0 l 1
 300 277 l 1
 183 277 l 1
 183 0 l 1
 100 0 l 1xfa
183 345 m 1
 292 345 l 2
 394 345 450 387 450 472 c 0
 450 558 394 589 292 589 c 2
 183 589 l 1
 183 345 l 1
187 -170 m 1xf4
 187 -113 l 1
 453 -113 l 1
 453 -170 l 1
 187 -170 l 1xf4
EndSplineSet
EndChar

StartChar: Sacute
Encoding: 346 346 195
Width: 600
Flags: MW
HStem: -12 73<271.5 354 271.5 377> 595 73<272 344>
VStem: 98 85<467.5 528.5 467.5 544> 452 85<134.5 200>
LayerCount: 2
Fore
SplineSet
305 -12 m 0
 209 -12 126 26 67 85 c 1
 117 143 l 1
 166 94 234 61 309 61 c 0
 399 61 452 104 452 165 c 0
 452 235 401 255 334 284 c 2
 240 325 l 2
 174 351 98 398 98 494 c 0
 98 594 188 668 313 668 c 0
 395 668 467 635 515 587 c 1
 471 533 l 1
 428 571 378 595 310 595 c 0
 234 595 183 558 183 499 c 0
 183 436 244 413 300 390 c 2
 392 350 l 2
 473 317 537 272 537 175 c 0
 537 71 449 -12 305 -12 c 0
287 697 m 1
 251 739 l 1
 392 867 l 1
 439 812 l 1
 287 697 l 1
EndSplineSet
EndChar

StartChar: Scircumflex
Encoding: 348 348 196
Width: 600
Flags: MW
HStem: -12 73<271.5 354 271.5 377> 595 73<272 344> 705 20G<168 168 464 464> 792 46<314 318 314 314>
VStem: 98 85<467.5 528.5 467.5 544> 452 85<134.5 200>
LayerCount: 2
Fore
SplineSet
305 -12 m 0
 209 -12 126 26 67 85 c 1
 117 143 l 1
 166 94 234 61 309 61 c 0
 399 61 452 104 452 165 c 0
 452 235 401 255 334 284 c 2
 240 325 l 2
 174 351 98 398 98 494 c 0
 98 594 188 668 313 668 c 0
 395 668 467 635 515 587 c 1
 471 533 l 1
 428 571 378 595 310 595 c 0
 234 595 183 558 183 499 c 0
 183 436 244 413 300 390 c 2
 392 350 l 2
 473 317 537 272 537 175 c 0
 537 71 449 -12 305 -12 c 0
204 699 m 1
 168 725 l 1
 273 838 l 1
 359 838 l 1
 464 725 l 1
 428 699 l 1
 318 792 l 1
 314 792 l 1
 204 699 l 1
EndSplineSet
EndChar

StartChar: Scaron
Encoding: 352 352 197
Width: 600
Flags: MW
HStem: -12 73<271.5 354 271.5 377> 595 73<272 344> 706 47<273 318 314 318 314 359>
VStem: 98 85<467.5 528.5 467.5 544> 452 85<134.5 200>
LayerCount: 2
Fore
SplineSet
305 -12 m 0
 209 -12 126 26 67 85 c 1
 117 143 l 1
 166 94 234 61 309 61 c 0
 399 61 452 104 452 165 c 0
 452 235 401 255 334 284 c 2
 240 325 l 2
 174 351 98 398 98 494 c 0
 98 594 188 668 313 668 c 0
 395 668 467 635 515 587 c 1
 471 533 l 1
 428 571 378 595 310 595 c 0
 234 595 183 558 183 499 c 0
 183 436 244 413 300 390 c 2
 392 350 l 2
 473 317 537 272 537 175 c 0
 537 71 449 -12 305 -12 c 0
273 706 m 1
 168 819 l 1
 204 845 l 1
 314 753 l 1
 318 753 l 1
 428 845 l 1
 464 819 l 1
 359 706 l 1
 273 706 l 1
EndSplineSet
EndChar

StartChar: Scarondot
Encoding: 1114114 -1 198
Width: 600
Flags: MW
HStem: -12 73<271.5 354 271.5 377> 595 73<272 344> 706 47<273 318 314 318 314 359> 821 104<301.5 330.5>
VStem: 98 85<467.5 528.5 467.5 544> 264 104<857.5 888.5> 452 85<134.5 200>
LayerCount: 2
Fore
SplineSet
305 -12 m 0
 209 -12 126 26 67 85 c 1
 117 143 l 1
 166 94 234 61 309 61 c 0
 399 61 452 104 452 165 c 0
 452 235 401 255 334 284 c 2
 240 325 l 2
 174 351 98 398 98 494 c 0
 98 594 188 668 313 668 c 0
 395 668 467 635 515 587 c 1
 471 533 l 1
 428 571 378 595 310 595 c 0
 234 595 183 558 183 499 c 0
 183 436 244 413 300 390 c 2
 392 350 l 2
 473 317 537 272 537 175 c 0
 537 71 449 -12 305 -12 c 0
316 821 m 0
 287 821 264 842 264 873 c 0
 264 904 287 925 316 925 c 0
 345 925 368 904 368 873 c 0
 368 842 345 821 316 821 c 0
273 706 m 1
 165 815 l 1
 193 845 l 1
 314 753 l 1
 318 753 l 1
 439 845 l 1
 467 815 l 1
 359 706 l 1
 273 706 l 1
EndSplineSet
EndChar

StartChar: uni015E
Encoding: 350 350 199
Width: 600
Flags: MW
HStem: -226 40<224 232> -12 73<288 288> 595 73<272 344>
VStem: 98 85<467.5 528.5 467.5 544> 333 64<-150.5 -123> 452 85<134.5 200>
LayerCount: 2
Fore
SplineSet
232 -226 m 1
 224 -186 l 1
 308 -180 333 -165 333 -136 c 0
 333 -110 313 -96 256 -88 c 1
 288 -12 l 1
 199 -7 122 30 67 85 c 1
 117 143 l 1
 166 94 234 61 309 61 c 0
 399 61 452 104 452 165 c 0
 452 235 401 255 334 284 c 2
 240 325 l 2
 174 351 98 398 98 494 c 0
 98 594 188 668 313 668 c 0
 395 668 467 635 515 587 c 1
 471 533 l 1
 428 571 378 595 310 595 c 0
 234 595 183 558 183 499 c 0
 183 436 244 413 300 390 c 2
 392 350 l 2
 473 317 537 272 537 175 c 0
 537 81 465 4 344 -10 c 1
 324 -64 l 1
 370 -75 397 -94 397 -135 c 0
 397 -193 338 -221 232 -226 c 1
EndSplineSet
EndChar

StartChar: uni0218
Encoding: 536 536 200
Width: 600
Flags: MW
HStem: -226 40<218 226> -96 38<256 274> -12 73<271.5 354 271.5 377> 595 73<272 344>
VStem: 98 85<467.5 528.5 467.5 544> 327 64<-151.5 -125> 452 85<134.5 200>
LayerCount: 2
Fore
SplineSet
305 -12 m 0
 209 -12 126 26 67 85 c 1
 117 143 l 1
 166 94 234 61 309 61 c 0
 399 61 452 104 452 165 c 0
 452 235 401 255 334 284 c 2
 240 325 l 2
 174 351 98 398 98 494 c 0
 98 594 188 668 313 668 c 0
 395 668 467 635 515 587 c 1
 471 533 l 1
 428 571 378 595 310 595 c 0
 234 595 183 558 183 499 c 0
 183 436 244 413 300 390 c 2
 392 350 l 2
 473 317 537 272 537 175 c 0
 537 71 449 -12 305 -12 c 0
226 -226 m 1
 218 -186 l 1
 302 -180 327 -165 327 -138 c 0
 327 -112 302 -100 256 -96 c 1
 274 -58 l 1
 361 -68 391 -90 391 -135 c 0
 391 -193 332 -221 226 -226 c 1
EndSplineSet
EndChar

StartChar: uni1E60
Encoding: 7776 7776 201
Width: 600
Flags: MW
HStem: -12 73<271.5 354 271.5 377> 595 73<272 344> 714 113<299.5 332.5>
VStem: 98 85<467.5 528.5 467.5 544> 257 118<754 787.5> 452 85<134.5 200>
LayerCount: 2
Fore
SplineSet
305 -12 m 0
 209 -12 126 26 67 85 c 1
 117 143 l 1
 166 94 234 61 309 61 c 0
 399 61 452 104 452 165 c 0
 452 235 401 255 334 284 c 2
 240 325 l 2
 174 351 98 398 98 494 c 0
 98 594 188 668 313 668 c 0
 395 668 467 635 515 587 c 1
 471 533 l 1
 428 571 378 595 310 595 c 0
 234 595 183 558 183 499 c 0
 183 436 244 413 300 390 c 2
 392 350 l 2
 473 317 537 272 537 175 c 0
 537 71 449 -12 305 -12 c 0
316 714 m 0
 283 714 257 737 257 771 c 0
 257 804 283 827 316 827 c 0
 349 827 375 804 375 771 c 0
 375 737 349 714 316 714 c 0
EndSplineSet
EndChar

StartChar: uni1E62
Encoding: 7778 7778 202
Width: 600
Flags: MW
HStem: -215 128<294.5 331.5> -12 73<271.5 354 271.5 377> 595 73<272 344>
VStem: 98 85<467.5 528.5 467.5 544> 247 132<-170.5 -132> 452 85<134.5 200>
LayerCount: 2
Fore
SplineSet
305 -12 m 0
 209 -12 126 26 67 85 c 1
 117 143 l 1
 166 94 234 61 309 61 c 0
 399 61 452 104 452 165 c 0
 452 235 401 255 334 284 c 2
 240 325 l 2
 174 351 98 398 98 494 c 0
 98 594 188 668 313 668 c 0
 395 668 467 635 515 587 c 1
 471 533 l 1
 428 571 378 595 310 595 c 0
 234 595 183 558 183 499 c 0
 183 436 244 413 300 390 c 2
 392 350 l 2
 473 317 537 272 537 175 c 0
 537 71 449 -12 305 -12 c 0
313 -215 m 0
 276 -215 247 -190 247 -151 c 0
 247 -113 276 -87 313 -87 c 0
 350 -87 379 -113 379 -151 c 0
 379 -190 350 -215 313 -215 c 0
EndSplineSet
EndChar

StartChar: uni1E9E
Encoding: 7838 7838 203
Width: 600
Flags: MW
HStem: -12 70<359.5 413.5 359.5 446> 0 21G<78 162 78 78> 599 69<262 333.5>
VStem: 78 84<0 413 0 428 0 501.5> 482 87<135.5 199>
LayerCount: 2
Fore
SplineSet
390 -12 m 0xb8
 325 -12 266 15 229 61 c 1
 269 114 l 1
 302 76 336 58 383 58 c 0xb8
 444 58 482 104 482 167 c 0
 482 231 447 284 310 310 c 1
 304 364 l 1
 428 518 l 1
 405 573 362 599 305 599 c 0
 219 599 162 540 162 413 c 2
 162 0 l 1
 78 0 l 1x78
 78 428 l 2
 78 575 165 668 305 668 c 0
 416 668 483 607 515 514 c 1
 394 363 l 1
 526 323 569 258 569 167 c 0
 569 65 502 -12 390 -12 c 0xb8
EndSplineSet
EndChar

StartChar: Tcaron
Encoding: 356 356 204
Width: 600
Flags: MW
HStem: 0 21G<258 258 258 342> 586 70<42 258 42 558 342 342 342 558> 706 47<257 302 298 302 298 343>
VStem: 258 84<0 586 0 586>
LayerCount: 2
Fore
SplineSet
258 0 m 1
 258 586 l 1
 42 586 l 1
 42 656 l 1
 558 656 l 1
 558 586 l 1
 342 586 l 1
 342 0 l 1
 258 0 l 1
257 706 m 1
 152 819 l 1
 188 845 l 1
 298 753 l 1
 302 753 l 1
 412 845 l 1
 448 819 l 1
 343 706 l 1
 257 706 l 1
EndSplineSet
EndChar

StartChar: uni0162
Encoding: 354 354 205
Width: 600
Flags: MW
HStem: -226 40<205 213> 0 21G<258 258 258 274 328 328 328 342> 586 70<42 258 42 558 342 342 342 558>
VStem: 258 84<0 586 0 586> 314 64<-150.5 -123>
LayerCount: 2
Fore
SplineSet
258 0 m 1xf0
 258 586 l 1
 42 586 l 1
 42 656 l 1
 558 656 l 1
 558 586 l 1
 342 586 l 1
 342 0 l 1
 328 0 l 1xf0
 305 -64 l 1
 351 -75 378 -94 378 -135 c 0
 378 -193 319 -221 213 -226 c 1
 205 -186 l 1
 289 -180 314 -165 314 -136 c 0
 314 -110 294 -96 237 -88 c 1
 274 0 l 1xe8
 258 0 l 1xf0
EndSplineSet
EndChar

StartChar: uni021A
Encoding: 538 538 206
Width: 600
Flags: MW
HStem: -226 40<205 213> -96 38<243 261> 0 21G<258 258 258 342> 586 70<42 258 42 558 342 342 342 558>
VStem: 258 84<0 586 0 586> 314 64<-151.5 -125>
LayerCount: 2
Fore
SplineSet
258 0 m 1xb8
 258 586 l 1
 42 586 l 1
 42 656 l 1
 558 656 l 1
 558 586 l 1
 342 586 l 1
 342 0 l 1
 258 0 l 1xb8
213 -226 m 1
 205 -186 l 1
 289 -180 314 -165 314 -138 c 0
 314 -112 289 -100 243 -96 c 1
 261 -58 l 1
 348 -68 378 -90 378 -135 c 0xf4
 378 -193 319 -221 213 -226 c 1
EndSplineSet
EndChar

StartChar: uni1E6C
Encoding: 7788 7788 207
Width: 600
Flags: MW
HStem: -215 128<281.5 318.5> 0 21G<258 258 258 342> 586 70<42 258 42 558 342 342 342 558>
VStem: 234 132<-170.5 -132> 258 84<0 586 0 586>
LayerCount: 2
Fore
SplineSet
258 0 m 1xe8
 258 586 l 1
 42 586 l 1
 42 656 l 1
 558 656 l 1
 558 586 l 1
 342 586 l 1
 342 0 l 1
 258 0 l 1xe8
300 -215 m 0xf0
 263 -215 234 -190 234 -151 c 0
 234 -113 263 -87 300 -87 c 0
 337 -87 366 -113 366 -151 c 0
 366 -190 337 -215 300 -215 c 0xf0
EndSplineSet
EndChar

StartChar: uni1E6E
Encoding: 7790 7790 208
Width: 600
Flags: MW
HStem: -170 57<167 433 167 433> 0 21G<258 258 258 342> 586 70<42 258 42 558 342 342 342 558>
VStem: 258 84<0 586 0 586>
LayerCount: 2
Fore
SplineSet
258 0 m 1
 258 586 l 1
 42 586 l 1
 42 656 l 1
 558 656 l 1
 558 586 l 1
 342 586 l 1
 342 0 l 1
 258 0 l 1
167 -170 m 1
 167 -113 l 1
 433 -113 l 1
 433 -170 l 1
 167 -170 l 1
EndSplineSet
EndChar

StartChar: Tbar
Encoding: 358 358 209
Width: 600
GlyphClass: 2
Flags: MW
HStem: 0 21G<258 342 258 258> 306 62<206 258 206 258 342 484> 586 70<42 258 42 558 342 342 342 558>
VStem: 258 84<0 306 0 306 368 586>
AnchorPoint: "Anchor-3" 300 -20 basechar 0
AnchorPoint: "Anchor-0" 300 676 basechar 0
LayerCount: 2
Fore
SplineSet
116 306 m 1
 116 364 l 1
 206 368 l 1
 258 368 l 1
 258 586 l 1
 42 586 l 1
 42 656 l 1
 558 656 l 1
 558 586 l 1
 342 586 l 1
 342 368 l 1
 484 368 l 1
 484 306 l 1
 342 306 l 1
 342 0 l 1
 258 0 l 1
 258 306 l 1
 116 306 l 1
EndSplineSet
EndChar

StartChar: Ugrave
Encoding: 217 217 210
Width: 600
Flags: MW
HStem: -12 73<261.5 340.5 261.5 365>
VStem: 79 84<248 656> 440 81<246 248 248 656>
LayerCount: 2
Fore
SplineSet
301 -12 m 0
 172 -12 79 60 79 248 c 2
 79 656 l 1
 163 656 l 1
 163 246 l 2
 163 110 222 61 301 61 c 0
 380 61 440 110 440 246 c 2
 440 656 l 1
 521 656 l 1
 521 248 l 2
 521 60 429 -12 301 -12 c 0
329 697 m 1
 177 812 l 1
 224 867 l 1
 365 739 l 1
 329 697 l 1
EndSplineSet
EndChar

StartChar: Uacute
Encoding: 218 218 211
Width: 600
Flags: MW
HStem: -12 73<261.5 340.5 261.5 365>
VStem: 79 84<248 656> 440 81<246 248 248 656>
LayerCount: 2
Fore
SplineSet
301 -12 m 0
 172 -12 79 60 79 248 c 2
 79 656 l 1
 163 656 l 1
 163 246 l 2
 163 110 222 61 301 61 c 0
 380 61 440 110 440 246 c 2
 440 656 l 1
 521 656 l 1
 521 248 l 2
 521 60 429 -12 301 -12 c 0
271 697 m 1
 235 739 l 1
 376 867 l 1
 423 812 l 1
 271 697 l 1
EndSplineSet
EndChar

StartChar: Ucircumflex
Encoding: 219 219 212
Width: 600
Flags: MW
HStem: -12 73<261.5 340.5 261.5 365> 705 20G<152 152 448 448> 792 46<298 302 298 298>
VStem: 79 84<248 656> 440 81<246 248 248 656>
LayerCount: 2
Fore
SplineSet
301 -12 m 0
 172 -12 79 60 79 248 c 2
 79 656 l 1
 163 656 l 1
 163 246 l 2
 163 110 222 61 301 61 c 0
 380 61 440 110 440 246 c 2
 440 656 l 1
 521 656 l 1
 521 248 l 2
 521 60 429 -12 301 -12 c 0
188 699 m 1
 152 725 l 1
 257 838 l 1
 343 838 l 1
 448 725 l 1
 412 699 l 1
 302 792 l 1
 298 792 l 1
 188 699 l 1
EndSplineSet
EndChar

StartChar: Utilde
Encoding: 360 360 213
Width: 600
Flags: MW
HStem: -12 73<261.5 340.5 261.5 365> 698 20G<123 123> 709 61<349.5 385.5 349.5 405> 780 61<214.5 250.5>
VStem: 79 84<248 656> 123 40 123 56<714 718> 421 56<832 836> 440 81<246 248 248 656>
LayerCount: 2
Fore
SplineSet
301 -12 m 0xd880
 172 -12 79 60 79 248 c 2
 79 656 l 1
 163 656 l 1
 163 246 l 2
 163 110 222 61 301 61 c 0
 380 61 440 110 440 246 c 2
 440 656 l 1
 521 656 l 1
 521 248 l 2
 521 60 429 -12 301 -12 c 0xd880
375 709 m 0xb9
 300 709 274 780 227 780 c 0
 202 780 183 757 179 714 c 1xd280
 123 718 l 1xd480
 127 794 165 841 225 841 c 0
 300 841 326 770 373 770 c 0
 398 770 416 793 421 836 c 1
 477 832 l 1
 473 755 435 709 375 709 c 0xb9
EndSplineSet
EndChar

StartChar: Udieresis
Encoding: 220 220 214
Width: 600
Flags: MW
HStem: -12 73<261.5 340.5 261.5 365> 715 101<194.5 223.5 376.5 405.5>
VStem: 79 84<248 656> 158 101<751 781> 341 101<751 781> 440 81<246 248 248 656>
LayerCount: 2
Fore
SplineSet
301 -12 m 0xa4
 172 -12 79 60 79 248 c 2
 79 656 l 1
 163 656 l 1
 163 246 l 2
 163 110 222 61 301 61 c 0
 380 61 440 110 440 246 c 2
 440 656 l 1
 521 656 l 1
 521 248 l 2
 521 60 429 -12 301 -12 c 0xa4
209 715 m 0xd8
 180 715 158 736 158 766 c 0
 158 796 180 816 209 816 c 0
 238 816 259 796 259 766 c 0
 259 736 238 715 209 715 c 0xd8
391 715 m 0
 362 715 341 736 341 766 c 0
 341 796 362 816 391 816 c 0
 420 816 442 796 442 766 c 0
 442 736 420 715 391 715 c 0
EndSplineSet
EndChar

StartChar: Umacron
Encoding: 362 362 215
Width: 600
Flags: MW
HStem: -12 73<261.5 340.5 261.5 365> 735 57<166 434 166 434>
VStem: 79 84<248 656> 166 268<735 792 735 792> 440 81<246 248 248 656>
LayerCount: 2
Fore
SplineSet
301 -12 m 0
 172 -12 79 60 79 248 c 2
 79 656 l 1
 163 656 l 1
 163 246 l 2
 163 110 222 61 301 61 c 0
 380 61 440 110 440 246 c 2
 440 656 l 1
 521 656 l 1
 521 248 l 2
 521 60 429 -12 301 -12 c 0
166 735 m 1xd0
 166 792 l 1
 434 792 l 1
 434 735 l 1
 166 735 l 1xd0
EndSplineSet
EndChar

StartChar: Ubreve
Encoding: 364 364 216
Width: 600
Flags: MW
HStem: -12 73<261.5 340.5 261.5 365> 705 53<271.5 328.5 271.5 346.5>
VStem: 79 84<248 656> 154 50<834 842> 396 50<834 842> 440 81<246 248 248 656>
LayerCount: 2
Fore
SplineSet
301 -12 m 0xe4
 172 -12 79 60 79 248 c 2
 79 656 l 1
 163 656 l 1
 163 246 l 2
 163 110 222 61 301 61 c 0
 380 61 440 110 440 246 c 2
 440 656 l 1
 521 656 l 1
 521 248 l 2
 521 60 429 -12 301 -12 c 0xe4
300 705 m 0xd8
 207 705 162 764 154 834 c 1
 204 842 l 1
 212 795 243 758 300 758 c 0
 357 758 388 795 396 842 c 1
 446 834 l 1
 438 764 393 705 300 705 c 0xd8
EndSplineSet
EndChar

StartChar: Uring
Encoding: 366 366 217
Width: 600
Flags: MW
HStem: -12 73<261.5 340.5 261.5 365> 699 36<285.5 313.5 285.5 327.5> 843 37<285.5 313.5>
VStem: 79 84<248 656> 203 45<771.5 806 771.5 816.5> 351 46<771.5 806> 440 81<246 248 248 656>
LayerCount: 2
Fore
SplineSet
301 -12 m 0
 172 -12 79 60 79 248 c 2
 79 656 l 1
 163 656 l 1
 163 246 l 2
 163 110 222 61 301 61 c 0
 380 61 440 110 440 246 c 2
 440 656 l 1
 521 656 l 1
 521 248 l 2
 521 60 429 -12 301 -12 c 0
300 699 m 0
 244 699 203 735 203 789 c 0
 203 844 244 880 300 880 c 0
 355 880 397 844 397 789 c 0
 397 735 355 699 300 699 c 0
300 735 m 0
 327 735 351 754 351 789 c 0
 351 823 327 843 300 843 c 0
 271 843 248 823 248 789 c 0
 248 754 271 735 300 735 c 0
EndSplineSet
EndChar

StartChar: Uhungarumlaut
Encoding: 368 368 218
Width: 600
Flags: MW
HStem: -12 73<261.5 340.5 261.5 365> 704 20G<185 185 345 345>
VStem: 79 84<248 656> 440 81<246 248 248 656>
LayerCount: 2
Fore
SplineSet
301 -12 m 0
 172 -12 79 60 79 248 c 2
 79 656 l 1
 163 656 l 1
 163 246 l 2
 163 110 222 61 301 61 c 0
 380 61 440 110 440 246 c 2
 440 656 l 1
 521 656 l 1
 521 248 l 2
 521 60 429 -12 301 -12 c 0
228 703 m 1
 185 724 l 1
 277 876 l 1
 334 844 l 1
 228 703 l 1
388 703 m 1
 345 724 l 1
 438 876 l 1
 494 844 l 1
 388 703 l 1
EndSplineSet
EndChar

StartChar: uni01D3
Encoding: 467 467 219
Width: 600
Flags: MW
HStem: -12 73<261.5 340.5 261.5 365> 706 47<257 302 298 302 298 343>
VStem: 79 84<248 656> 440 81<246 248 248 656>
LayerCount: 2
Fore
SplineSet
301 -12 m 0
 172 -12 79 60 79 248 c 2
 79 656 l 1
 163 656 l 1
 163 246 l 2
 163 110 222 61 301 61 c 0
 380 61 440 110 440 246 c 2
 440 656 l 1
 521 656 l 1
 521 248 l 2
 521 60 429 -12 301 -12 c 0
257 706 m 1
 152 819 l 1
 188 845 l 1
 298 753 l 1
 302 753 l 1
 412 845 l 1
 448 819 l 1
 343 706 l 1
 257 706 l 1
EndSplineSet
EndChar

StartChar: Uogonek
Encoding: 370 370 220
Width: 600
GlyphClass: 2
Flags: MW
HStem: -225 58<320 337> -11 72
VStem: 79 84<248 656> 215 64<-133.5 -105.5> 440 81<246 248 248 656>
AnchorPoint: "Anchor-0" 300 676 basechar 0
LayerCount: 2
Fore
SplineSet
318 -225 m 0
 259 -225 215 -195 215 -134 c 0
 215 -77 255 -35 282 -11 c 1
 158 -4 79 77 79 248 c 2
 79 656 l 1
 163 656 l 1
 163 246 l 2
 163 110 221 61 300 61 c 0
 379 61 440 110 440 246 c 2
 440 656 l 1
 521 656 l 1
 521 248 l 2
 521 107 473 36 383 0 c 0
 304 -32 279 -76 279 -116 c 0
 279 -151 306 -167 334 -167 c 0
 355 -167 371 -157 384 -146 c 1
 409 -189 l 1
 386 -209 356 -225 318 -225 c 0
EndSplineSet
Ligature2: "'ccmp' Glyph Composition/Decomposition lookup 19 subtable" U uni0328
EndChar

StartChar: uni01D5
Encoding: 469 469 221
Width: 600
Flags: MW
HStem: -12 73<261.5 340.5 261.5 365> 715 91<184 210 390 416> 861 46<166 434 166 434>
VStem: 79 84<248 656> 152 91<747.5 774> 357 91<747.5 774> 440 81<246 248 248 656>
LayerCount: 2
Fore
SplineSet
301 -12 m 0xb2
 172 -12 79 60 79 248 c 2
 79 656 l 1
 163 656 l 1
 163 246 l 2
 163 110 222 61 301 61 c 0
 380 61 440 110 440 246 c 2
 440 656 l 1
 521 656 l 1
 521 248 l 2
 521 60 429 -12 301 -12 c 0xb2
197 715 m 0xec
 171 715 152 734 152 761 c 0
 152 787 171 806 197 806 c 0
 223 806 243 787 243 761 c 0
 243 734 223 715 197 715 c 0xec
403 715 m 0
 377 715 357 734 357 761 c 0
 357 787 377 806 403 806 c 0
 429 806 448 787 448 761 c 0
 448 734 429 715 403 715 c 0
166 861 m 1
 166 907 l 1
 434 907 l 1
 434 861 l 1
 166 861 l 1
EndSplineSet
EndChar

StartChar: uni01D7
Encoding: 471 471 222
Width: 600
Flags: MW
HStem: -12 73<261.5 340.5 261.5 365> 715 91<184 210 390 416>
VStem: 79 84<248 656> 152 91<747.5 774> 357 91<747.5 774> 440 81<246 248 248 656>
LayerCount: 2
Fore
SplineSet
301 -12 m 0xa4
 172 -12 79 60 79 248 c 2
 79 656 l 1
 163 656 l 1
 163 246 l 2
 163 110 222 61 301 61 c 0
 380 61 440 110 440 246 c 2
 440 656 l 1
 521 656 l 1
 521 248 l 2
 521 60 429 -12 301 -12 c 0xa4
197 715 m 0xd8
 171 715 152 734 152 761 c 0
 152 787 171 806 197 806 c 0
 223 806 243 787 243 761 c 0
 243 734 223 715 197 715 c 0xd8
403 715 m 0
 377 715 357 734 357 761 c 0
 357 787 377 806 403 806 c 0
 429 806 448 787 448 761 c 0
 448 734 429 715 403 715 c 0
299 823 m 1
 262 849 l 1
 357 968 l 1
 410 932 l 1
 299 823 l 1
EndSplineSet
EndChar

StartChar: uni01D9
Encoding: 473 473 223
Width: 600
Flags: MW
HStem: -12 73<261.5 340.5 261.5 365> 715 91<184 210 390 416> 839 48<264 302 298 302 298 336>
VStem: 79 84<248 656> 152 91<747.5 774> 357 91<747.5 774> 440 81<246 248 248 656>
LayerCount: 2
Fore
SplineSet
301 -12 m 0xf2
 172 -12 79 60 79 248 c 2
 79 656 l 1
 163 656 l 1
 163 246 l 2
 163 110 222 61 301 61 c 0
 380 61 440 110 440 246 c 2
 440 656 l 1
 521 656 l 1
 521 248 l 2
 521 60 429 -12 301 -12 c 0xf2
197 715 m 0xec
 171 715 152 734 152 761 c 0
 152 787 171 806 197 806 c 0
 223 806 243 787 243 761 c 0
 243 734 223 715 197 715 c 0xec
403 715 m 0
 377 715 357 734 357 761 c 0
 357 787 377 806 403 806 c 0
 429 806 448 787 448 761 c 0
 448 734 429 715 403 715 c 0
264 839 m 1
 165 935 l 1
 198 962 l 1
 298 887 l 1
 302 887 l 1
 402 962 l 1
 435 935 l 1
 336 839 l 1
 264 839 l 1
EndSplineSet
EndChar

StartChar: uni01DB
Encoding: 475 475 224
Width: 600
Flags: MW
HStem: -12 73<261.5 340.5 261.5 365> 715 91<184 210 390 416>
VStem: 79 84<248 656> 152 91<747.5 774> 357 91<747.5 774> 440 81<246 248 248 656>
LayerCount: 2
Fore
SplineSet
301 -12 m 0xa4
 172 -12 79 60 79 248 c 2
 79 656 l 1
 163 656 l 1
 163 246 l 2
 163 110 222 61 301 61 c 0
 380 61 440 110 440 246 c 2
 440 656 l 1
 521 656 l 1
 521 248 l 2
 521 60 429 -12 301 -12 c 0xa4
197 715 m 0xd8
 171 715 152 734 152 761 c 0
 152 787 171 806 197 806 c 0
 223 806 243 787 243 761 c 0
 243 734 223 715 197 715 c 0xd8
403 715 m 0
 377 715 357 734 357 761 c 0
 357 787 377 806 403 806 c 0
 429 806 448 787 448 761 c 0
 448 734 429 715 403 715 c 0
301 823 m 1
 190 932 l 1
 243 968 l 1
 338 849 l 1
 301 823 l 1
EndSplineSet
EndChar

StartChar: uni1EE4
Encoding: 7908 7908 225
Width: 600
Flags: MW
HStem: -215 128<281.5 318.5> -12 73<261.5 340.5 261.5 365>
VStem: 79 84<248 656> 234 132<-170.5 -132> 440 81<246 248 248 656>
LayerCount: 2
Fore
SplineSet
301 -12 m 0
 172 -12 79 60 79 248 c 2
 79 656 l 1
 163 656 l 1
 163 246 l 2
 163 110 222 61 301 61 c 0
 380 61 440 110 440 246 c 2
 440 656 l 1
 521 656 l 1
 521 248 l 2
 521 60 429 -12 301 -12 c 0
300 -215 m 0
 263 -215 234 -190 234 -151 c 0
 234 -113 263 -87 300 -87 c 0
 337 -87 366 -113 366 -151 c 0
 366 -190 337 -215 300 -215 c 0
EndSplineSet
EndChar

StartChar: uni1EE6
Encoding: 7910 7910 226
Width: 600
Flags: MW
HStem: -12 73<261.5 340.5 261.5 365> 824 48<232 241>
VStem: 79 84<248 656> 315 64<769.5 795> 440 81<246 248 248 656>
LayerCount: 2
Fore
SplineSet
301 -12 m 0
 172 -12 79 60 79 248 c 2
 79 656 l 1
 163 656 l 1
 163 246 l 2
 163 110 222 61 301 61 c 0
 380 61 440 110 440 246 c 2
 440 656 l 1
 521 656 l 1
 521 248 l 2
 521 60 429 -12 301 -12 c 0
268 698 m 1
 259 736 l 1
 291 745 315 757 315 782 c 0
 315 808 288 822 232 824 c 1
 241 872 l 1
 328 869 379 842 379 791 c 0
 379 733 326 708 268 698 c 1
EndSplineSet
EndChar

StartChar: Uhorn
Encoding: 431 431 227
Width: 600
GlyphClass: 2
Flags: MW
HStem: -12 73<261.5 340.5 261.5 365>
VStem: 79 84<248 656> 440 81<246 248 248 620> 557 73<711 749>
AnchorPoint: "Anchor-3" 300 -20 basechar 0
AnchorPoint: "Anchor-0" 300 676 basechar 0
LayerCount: 2
Fore
SplineSet
301 -12 m 0
 172 -12 79 60 79 248 c 2
 79 656 l 1
 163 656 l 1
 163 246 l 2
 163 110 222 61 301 61 c 0
 380 61 440 110 440 246 c 2
 440 656 l 1
 473 656 l 1
 527 663 557 683 557 739 c 0
 557 759 551 781 542 797 c 1
 607 825 l 1
 621 803 630 775 630 745 c 0
 630 668 582 634 521 620 c 1
 521 248 l 2
 521 60 429 -12 301 -12 c 0
EndSplineSet
EndChar

StartChar: uni1EE8
Encoding: 7912 7912 228
Width: 600
Flags: MW
HStem: -12 73<261.5 340.5 261.5 365>
VStem: 79 84<248 656> 440 81<246 248 248 620> 557 73<711 749>
LayerCount: 2
Fore
SplineSet
301 -12 m 0
 172 -12 79 60 79 248 c 2
 79 656 l 1
 163 656 l 1
 163 246 l 2
 163 110 222 61 301 61 c 0
 380 61 440 110 440 246 c 2
 440 656 l 1
 473 656 l 1
 527 663 557 683 557 739 c 0
 557 759 551 781 542 797 c 1
 607 825 l 1
 621 803 630 775 630 745 c 0
 630 668 582 634 521 620 c 1
 521 248 l 2
 521 60 429 -12 301 -12 c 0
271 697 m 1
 235 739 l 1
 376 867 l 1
 423 812 l 1
 271 697 l 1
EndSplineSet
EndChar

StartChar: uni1EEA
Encoding: 7914 7914 229
Width: 600
Flags: MW
HStem: -12 73<261.5 340.5 261.5 365>
VStem: 79 84<248 656> 440 81<246 248 248 620> 557 73<711 749>
LayerCount: 2
Fore
SplineSet
301 -12 m 0
 172 -12 79 60 79 248 c 2
 79 656 l 1
 163 656 l 1
 163 246 l 2
 163 110 222 61 301 61 c 0
 380 61 440 110 440 246 c 2
 440 656 l 1
 473 656 l 1
 527 663 557 683 557 739 c 0
 557 759 551 781 542 797 c 1
 607 825 l 1
 621 803 630 775 630 745 c 0
 630 668 582 634 521 620 c 1
 521 248 l 2
 521 60 429 -12 301 -12 c 0
329 697 m 1
 177 812 l 1
 224 867 l 1
 365 739 l 1
 329 697 l 1
EndSplineSet
EndChar

StartChar: uni1EEC
Encoding: 7916 7916 230
Width: 600
Flags: MW
HStem: -12 73<261.5 340.5 261.5 365> 824 48<232 241>
VStem: 79 84<248 656> 315 64<769.5 795> 440 81<246 248 248 620> 557 73<711 749>
LayerCount: 2
Fore
SplineSet
301 -12 m 0
 172 -12 79 60 79 248 c 2
 79 656 l 1
 163 656 l 1
 163 246 l 2
 163 110 222 61 301 61 c 0
 380 61 440 110 440 246 c 2
 440 656 l 1
 473 656 l 1
 527 663 557 683 557 739 c 0
 557 759 551 781 542 797 c 1
 607 825 l 1
 621 803 630 775 630 745 c 0
 630 668 582 634 521 620 c 1
 521 248 l 2
 521 60 429 -12 301 -12 c 0
268 698 m 1
 259 736 l 1
 291 745 315 757 315 782 c 0
 315 808 288 822 232 824 c 1
 241 872 l 1
 328 869 379 842 379 791 c 0
 379 733 326 708 268 698 c 1
EndSplineSet
EndChar

StartChar: uni1EEE
Encoding: 7918 7918 231
Width: 600
Flags: MW
HStem: -12 73<261.5 340.5 261.5 365> 698 20G<123 123> 709 61<349.5 385.5 349.5 405> 780 61<214.5 250.5>
VStem: 79 84<248 656> 123 40 123 56<714 718> 421 56<832 836> 440 81<246 248 248 620> 557 73<711 749>
LayerCount: 2
Fore
SplineSet
301 -12 m 0xd8c0
 172 -12 79 60 79 248 c 2
 79 656 l 1
 163 656 l 1
 163 246 l 2
 163 110 222 61 301 61 c 0
 380 61 440 110 440 246 c 2
 440 656 l 1
 473 656 l 1
 527 663 557 683 557 739 c 0
 557 759 551 781 542 797 c 1
 607 825 l 1
 621 803 630 775 630 745 c 0
 630 668 582 634 521 620 c 1
 521 248 l 2
 521 60 429 -12 301 -12 c 0xd8c0
375 709 m 0xb940
 300 709 274 780 227 780 c 0
 202 780 183 757 179 714 c 1xd2c0
 123 718 l 1xd4c0
 127 794 165 841 225 841 c 0
 300 841 326 770 373 770 c 0
 398 770 416 793 421 836 c 1
 477 832 l 1
 473 755 435 709 375 709 c 0xb940
EndSplineSet
EndChar

StartChar: uni1EF0
Encoding: 7920 7920 232
Width: 600
Flags: MW
HStem: -215 128<281.5 318.5> -12 73<261.5 340.5 261.5 365>
VStem: 79 84<248 656> 234 132<-170.5 -132> 440 81<246 248 248 620> 557 73<711 749>
LayerCount: 2
Fore
SplineSet
301 -12 m 0
 172 -12 79 60 79 248 c 2
 79 656 l 1
 163 656 l 1
 163 246 l 2
 163 110 222 61 301 61 c 0
 380 61 440 110 440 246 c 2
 440 656 l 1
 473 656 l 1
 527 663 557 683 557 739 c 0
 557 759 551 781 542 797 c 1
 607 825 l 1
 621 803 630 775 630 745 c 0
 630 668 582 634 521 620 c 1
 521 248 l 2
 521 60 429 -12 301 -12 c 0
300 -215 m 0
 263 -215 234 -190 234 -151 c 0
 234 -113 263 -87 300 -87 c 0
 337 -87 366 -113 366 -151 c 0
 366 -190 337 -215 300 -215 c 0
EndSplineSet
EndChar

StartChar: uni1E7E
Encoding: 7806 7806 233
Width: 600
Flags: MW
HStem: -215 128<283.5 320.5> 0 85<252 304 300 304 300 349>
VStem: 236 132<-170.5 -132>
LayerCount: 2
Fore
SplineSet
252 0 m 1
 43 656 l 1
 131 656 l 1
 237 302 l 2
 260 224 276 162 300 85 c 1
 304 85 l 1
 328 162 345 224 367 302 c 2
 472 656 l 1
 557 656 l 1
 349 0 l 1
 252 0 l 1
302 -215 m 0
 265 -215 236 -190 236 -151 c 0
 236 -113 265 -87 302 -87 c 0
 339 -87 368 -113 368 -151 c 0
 368 -190 339 -215 302 -215 c 0
EndSplineSet
EndChar

StartChar: Wgrave
Encoding: 7808 7808 234
Width: 600
Flags: MW
HStem: 0 93<110 168 165 168 165 212 438 442> 382 106<299 302 299 299> 468 20G<264 344 344 344>
VStem: 10 580<657 657>
LayerCount: 2
Fore
SplineSet
110 0 m 1xb0
 10 657 l 1
 104 657 l 1
 152 245 l 2
 158 190 162 158 165 93 c 1
 168 93 l 1
 180 158 187 190 200 244 c 2
 264 488 l 1
 344 488 l 1
 406 244 l 2
 420 190 426 158 438 93 c 1
 442 93 l 1
 446 158 448 190 454 244 c 2
 500 657 l 1
 590 657 l 1
 494 0 l 1
 390 0 l 1
 326 264 l 2
 316 304 308 342 302 382 c 1
 299 382 l 1xd0
 292 342 286 304 276 264 c 2
 212 0 l 1
 110 0 l 1xb0
329 697 m 1
 177 812 l 1
 224 867 l 1
 365 739 l 1
 329 697 l 1
EndSplineSet
EndChar

StartChar: Wacute
Encoding: 7810 7810 235
Width: 600
Flags: MW
HStem: 0 93<110 168 165 168 165 212 438 442> 382 106<299 302 299 299> 468 20G<264 344 344 344>
VStem: 10 580<657 657>
LayerCount: 2
Fore
SplineSet
110 0 m 1xb0
 10 657 l 1
 104 657 l 1
 152 245 l 2
 158 190 162 158 165 93 c 1
 168 93 l 1
 180 158 187 190 200 244 c 2
 264 488 l 1
 344 488 l 1
 406 244 l 2
 420 190 426 158 438 93 c 1
 442 93 l 1
 446 158 448 190 454 244 c 2
 500 657 l 1
 590 657 l 1
 494 0 l 1
 390 0 l 1
 326 264 l 2
 316 304 308 342 302 382 c 1
 299 382 l 1xd0
 292 342 286 304 276 264 c 2
 212 0 l 1
 110 0 l 1xb0
271 697 m 1
 235 739 l 1
 376 867 l 1
 423 812 l 1
 271 697 l 1
EndSplineSet
EndChar

StartChar: Wcircumflex
Encoding: 372 372 236
Width: 600
Flags: MW
HStem: 0 93<110 168 165 168 165 212 438 442> 382 106<299 302 299 299> 468 20G<264 344 344 344> 705 20G<152 152 448 448> 792 46<298 302 298 298>
VStem: 10 580<657 657>
LayerCount: 2
Fore
SplineSet
110 0 m 1xbc
 10 657 l 1
 104 657 l 1
 152 245 l 2
 158 190 162 158 165 93 c 1
 168 93 l 1
 180 158 187 190 200 244 c 2
 264 488 l 1
 344 488 l 1
 406 244 l 2
 420 190 426 158 438 93 c 1
 442 93 l 1
 446 158 448 190 454 244 c 2
 500 657 l 1
 590 657 l 1
 494 0 l 1
 390 0 l 1
 326 264 l 2
 316 304 308 342 302 382 c 1
 299 382 l 1xdc
 292 342 286 304 276 264 c 2
 212 0 l 1
 110 0 l 1xbc
188 699 m 1
 152 725 l 1
 257 838 l 1
 343 838 l 1
 448 725 l 1
 412 699 l 1
 302 792 l 1
 298 792 l 1
 188 699 l 1
EndSplineSet
EndChar

StartChar: Wdieresis
Encoding: 7812 7812 237
Width: 600
Flags: MW
HStem: 0 93<110 168 165 168 165 212 438 442> 382 106<299 302 299 299> 468 20G<264 344 344 344> 715 101<194.5 223.5 376.5 405.5>
VStem: 158 101<751 781> 341 101<751 781>
LayerCount: 2
Fore
SplineSet
110 0 m 1xbc
 10 657 l 1
 104 657 l 1
 152 245 l 2
 158 190 162 158 165 93 c 1
 168 93 l 1
 180 158 187 190 200 244 c 2
 264 488 l 1
 344 488 l 1
 406 244 l 2
 420 190 426 158 438 93 c 1
 442 93 l 1
 446 158 448 190 454 244 c 2
 500 657 l 1
 590 657 l 1
 494 0 l 1
 390 0 l 1
 326 264 l 2
 316 304 308 342 302 382 c 1
 299 382 l 1xdc
 292 342 286 304 276 264 c 2
 212 0 l 1
 110 0 l 1xbc
209 715 m 0
 180 715 158 736 158 766 c 0
 158 796 180 816 209 816 c 0
 238 816 259 796 259 766 c 0
 259 736 238 715 209 715 c 0
391 715 m 0
 362 715 341 736 341 766 c 0
 341 796 362 816 391 816 c 0
 420 816 442 796 442 766 c 0
 442 736 420 715 391 715 c 0
EndSplineSet
EndChar

StartChar: Ygrave
Encoding: 7922 7922 238
Width: 600
Flags: MW
HStem: 0 21G<258 258 258 342>
VStem: 258 84<0 234 0 234>
LayerCount: 2
Fore
SplineSet
258 0 m 1
 258 234 l 1
 38 656 l 1
 126 656 l 1
 225 461 l 2
 250 411 273 361 300 308 c 1
 304 308 l 1
 330 361 356 411 381 462 c 2
 476 656 l 1
 562 656 l 1
 342 234 l 1
 342 0 l 1
 258 0 l 1
329 697 m 1
 177 812 l 1
 224 867 l 1
 365 739 l 1
 329 697 l 1
EndSplineSet
EndChar

StartChar: Yacute
Encoding: 221 221 239
Width: 600
Flags: MW
HStem: 0 21G<258 258 258 342>
VStem: 258 84<0 234 0 234>
LayerCount: 2
Fore
SplineSet
258 0 m 1
 258 234 l 1
 38 656 l 1
 126 656 l 1
 225 461 l 2
 250 411 273 361 300 308 c 1
 304 308 l 1
 330 361 356 411 381 462 c 2
 476 656 l 1
 562 656 l 1
 342 234 l 1
 342 0 l 1
 258 0 l 1
271 697 m 1
 235 739 l 1
 376 867 l 1
 423 812 l 1
 271 697 l 1
EndSplineSet
EndChar

StartChar: Ycircumflex
Encoding: 374 374 240
Width: 600
Flags: MW
HStem: 0 21G<258 258 258 342> 705 20G<152 152 448 448> 792 46<298 302 298 298>
VStem: 258 84<0 234 0 234>
LayerCount: 2
Fore
SplineSet
258 0 m 1
 258 234 l 1
 38 656 l 1
 126 656 l 1
 225 461 l 2
 250 411 273 361 300 308 c 1
 304 308 l 1
 330 361 356 411 381 462 c 2
 476 656 l 1
 562 656 l 1
 342 234 l 1
 342 0 l 1
 258 0 l 1
188 699 m 1
 152 725 l 1
 257 838 l 1
 343 838 l 1
 448 725 l 1
 412 699 l 1
 302 792 l 1
 298 792 l 1
 188 699 l 1
EndSplineSet
EndChar

StartChar: Ydieresis
Encoding: 376 376 241
Width: 600
Flags: MW
HStem: 0 21G<258 258 258 342> 715 101<194.5 223.5 376.5 405.5>
VStem: 158 101<751 781> 258 84<0 234 0 234> 341 101<751 781>
LayerCount: 2
Fore
SplineSet
258 0 m 1xd0
 258 234 l 1
 38 656 l 1
 126 656 l 1
 225 461 l 2
 250 411 273 361 300 308 c 1
 304 308 l 1
 330 361 356 411 381 462 c 2
 476 656 l 1
 562 656 l 1
 342 234 l 1
 342 0 l 1
 258 0 l 1xd0
209 715 m 0xe8
 180 715 158 736 158 766 c 0
 158 796 180 816 209 816 c 0
 238 816 259 796 259 766 c 0
 259 736 238 715 209 715 c 0xe8
391 715 m 0
 362 715 341 736 341 766 c 0
 341 796 362 816 391 816 c 0
 420 816 442 796 442 766 c 0
 442 736 420 715 391 715 c 0
EndSplineSet
EndChar

StartChar: uni1E8E
Encoding: 7822 7822 242
Width: 600
Flags: MW
HStem: 0 21G<258 258 258 342> 714 113<283.5 316.5>
VStem: 241 118<754 787.5> 258 84<0 234 0 234>
LayerCount: 2
Fore
SplineSet
258 0 m 1xd0
 258 234 l 1
 38 656 l 1
 126 656 l 1
 225 461 l 2
 250 411 273 361 300 308 c 1
 304 308 l 1
 330 361 356 411 381 462 c 2
 476 656 l 1
 562 656 l 1
 342 234 l 1
 342 0 l 1
 258 0 l 1xd0
300 714 m 0xe0
 267 714 241 737 241 771 c 0
 241 804 267 827 300 827 c 0
 333 827 359 804 359 771 c 0
 359 737 333 714 300 714 c 0xe0
EndSplineSet
EndChar

StartChar: uni1EF4
Encoding: 7924 7924 243
Width: 600
Flags: MW
HStem: -215 128<281.5 318.5> 0 21G<258 258 258 342>
VStem: 234 132<-170.5 -132> 258 84<0 234 0 234>
LayerCount: 2
Fore
SplineSet
258 0 m 1xd0
 258 234 l 1
 38 656 l 1
 126 656 l 1
 225 461 l 2
 250 411 273 361 300 308 c 1
 304 308 l 1
 330 361 356 411 381 462 c 2
 476 656 l 1
 562 656 l 1
 342 234 l 1
 342 0 l 1
 258 0 l 1xd0
300 -215 m 0xe0
 263 -215 234 -190 234 -151 c 0
 234 -113 263 -87 300 -87 c 0
 337 -87 366 -113 366 -151 c 0
 366 -190 337 -215 300 -215 c 0xe0
EndSplineSet
EndChar

StartChar: uni1EF6
Encoding: 7926 7926 244
Width: 600
Flags: MW
HStem: 0 21G<258 258 258 342> 824 48<232 241>
VStem: 258 84<0 234 0 234> 315 64<769.5 795>
LayerCount: 2
Fore
SplineSet
258 0 m 1xe0
 258 234 l 1
 38 656 l 1
 126 656 l 1
 225 461 l 2
 250 411 273 361 300 308 c 1
 304 308 l 1
 330 361 356 411 381 462 c 2
 476 656 l 1
 562 656 l 1
 342 234 l 1
 342 0 l 1
 258 0 l 1xe0
268 698 m 1
 259 736 l 1
 291 745 315 757 315 782 c 0
 315 808 288 822 232 824 c 1
 241 872 l 1
 328 869 379 842 379 791 c 0xd0
 379 733 326 708 268 698 c 1
EndSplineSet
EndChar

StartChar: uni1EF8
Encoding: 7928 7928 245
Width: 600
Flags: MW
HStem: 0 21G<258 258 258 342> 698 20G<123 123> 709 61<349.5 385.5 349.5 405> 780 61<214.5 250.5>
VStem: 123 56<714 718> 258 84<0 234 0 234> 421 56<832 836>
LayerCount: 2
Fore
SplineSet
258 0 m 1xd4
 258 234 l 1
 38 656 l 1
 126 656 l 1
 225 461 l 2
 250 411 273 361 300 308 c 1
 304 308 l 1
 330 361 356 411 381 462 c 2
 476 656 l 1
 562 656 l 1
 342 234 l 1
 342 0 l 1
 258 0 l 1xd4
375 709 m 0xb6
 300 709 274 780 227 780 c 0
 202 780 183 757 179 714 c 1
 123 718 l 1xdc
 127 794 165 841 225 841 c 0
 300 841 326 770 373 770 c 0
 398 770 416 793 421 836 c 1
 477 832 l 1
 473 755 435 709 375 709 c 0xb6
EndSplineSet
EndChar

StartChar: Zacute
Encoding: 377 377 246
Width: 600
Flags: MW
HStem: 0 71<167 539 167 539> 587 70<97 431 97 534>
VStem: 65 474<0 50 50 50>
LayerCount: 2
Fore
SplineSet
65 0 m 1
 65 50 l 1
 431 587 l 1
 97 587 l 1
 97 657 l 1
 534 657 l 1
 534 607 l 1
 167 71 l 1
 539 71 l 1
 539 0 l 1
 65 0 l 1
288 697 m 1
 252 739 l 1
 393 867 l 1
 440 812 l 1
 288 697 l 1
EndSplineSet
EndChar

StartChar: Zcaron
Encoding: 381 381 247
Width: 600
Flags: MW
HStem: 0 71<167 539 167 539> 587 70<97 431 97 534> 706 47<274 319 315 319 315 360>
VStem: 65 474<0 50 50 50>
LayerCount: 2
Fore
SplineSet
65 0 m 1
 65 50 l 1
 431 587 l 1
 97 587 l 1
 97 657 l 1
 534 657 l 1
 534 607 l 1
 167 71 l 1
 539 71 l 1
 539 0 l 1
 65 0 l 1
274 706 m 1
 169 819 l 1
 205 845 l 1
 315 753 l 1
 319 753 l 1
 429 845 l 1
 465 819 l 1
 360 706 l 1
 274 706 l 1
EndSplineSet
EndChar

StartChar: Zdotaccent
Encoding: 379 379 248
Width: 600
Flags: MW
HStem: 0 71<167 539 167 539> 587 70<97 431 97 534> 714 113<300.5 333.5>
VStem: 258 118<754 787.5>
LayerCount: 2
Fore
SplineSet
65 0 m 1
 65 50 l 1
 431 587 l 1
 97 587 l 1
 97 657 l 1
 534 657 l 1
 534 607 l 1
 167 71 l 1
 539 71 l 1
 539 0 l 1
 65 0 l 1
317 714 m 0
 284 714 258 737 258 771 c 0
 258 804 284 827 317 827 c 0
 350 827 376 804 376 771 c 0
 376 737 350 714 317 714 c 0
EndSplineSet
EndChar

StartChar: uni1E90
Encoding: 7824 7824 249
Width: 600
Flags: MW
HStem: 0 71<167 539 167 539> 587 70<97 431 97 534> 705 20G<169 169 465 465> 792 46<315 319 315 315>
VStem: 65 474<0 50 50 50>
LayerCount: 2
Fore
SplineSet
65 0 m 1
 65 50 l 1
 431 587 l 1
 97 587 l 1
 97 657 l 1
 534 657 l 1
 534 607 l 1
 167 71 l 1
 539 71 l 1
 539 0 l 1
 65 0 l 1
205 699 m 1
 169 725 l 1
 274 838 l 1
 360 838 l 1
 465 725 l 1
 429 699 l 1
 319 792 l 1
 315 792 l 1
 205 699 l 1
EndSplineSet
EndChar

StartChar: uni1E92
Encoding: 7826 7826 250
Width: 600
Flags: MW
HStem: -215 128<291.5 328.5> 0 71<167 539 167 539> 587 70<97 431 97 534>
VStem: 244 132<-170.5 -132>
LayerCount: 2
Fore
SplineSet
65 0 m 1
 65 50 l 1
 431 587 l 1
 97 587 l 1
 97 657 l 1
 534 657 l 1
 534 607 l 1
 167 71 l 1
 539 71 l 1
 539 0 l 1
 65 0 l 1
310 -215 m 0
 273 -215 244 -190 244 -151 c 0
 244 -113 273 -87 310 -87 c 0
 347 -87 376 -113 376 -151 c 0
 376 -190 347 -215 310 -215 c 0
EndSplineSet
EndChar

StartChar: uni1E94
Encoding: 7828 7828 251
Width: 600
Flags: MW
HStem: -170 57<177 443 177 443> 0 71<167 539 167 539> 587 70<97 431 97 534>
VStem: 65 474<0 50 50 50> 177 266<-170 -113 -170 -113>
LayerCount: 2
Fore
SplineSet
65 0 m 1xf0
 65 50 l 1
 431 587 l 1
 97 587 l 1
 97 657 l 1
 534 657 l 1
 534 607 l 1
 167 71 l 1
 539 71 l 1
 539 0 l 1
 65 0 l 1xf0
177 -170 m 1xe8
 177 -113 l 1
 443 -113 l 1
 443 -170 l 1
 177 -170 l 1xe8
EndSplineSet
EndChar

StartChar: Eth
Encoding: 208 208 252
Width: 600
GlyphClass: 2
Flags: MW
HStem: 0 68<170 243 243 253> 314 62<12 87 170 314> 588 68<170 243 170 170>
VStem: 87 83<68 68 68 314 376 588> 466 87<248 413.5>
AnchorPoint: "Anchor-3" 290 -20 basechar 0
AnchorPoint: "Anchor-0" 299 676 basechar 0
LayerCount: 2
Fore
SplineSet
87 0 m 1
 87 314 l 1
 12 314 l 1
 12 370 l 1
 87 376 l 1
 87 656 l 1
 249 656 l 2
 446 656 553 539 553 331 c 0
 553 122 446 0 253 0 c 2
 87 0 l 1
170 68 m 1
 243 68 l 2
 392 68 466 165 466 331 c 0
 466 496 392 588 243 588 c 2
 170 588 l 1
 170 376 l 1
 314 376 l 1
 314 314 l 1
 170 314 l 1
 170 68 l 1
EndSplineSet
EndChar

StartChar: Thorn
Encoding: 222 222 253
Width: 600
Flags: MW
HStem: 0 21G<101 101 101 185> 150 68<185 292 292 303 185 292> 478 68<185 292 185 303>
VStem: 101 84<0 150 218 478 546 656> 462 83<306 400>
LayerCount: 2
Fore
SplineSet
101 0 m 1
 101 656 l 1
 185 656 l 1
 185 546 l 1
 303 546 l 2
 448 546 545 496 545 353 c 0
 545 214 446 150 303 150 c 2
 185 150 l 1
 185 0 l 1
 101 0 l 1
185 218 m 1
 292 218 l 2
 407 218 462 259 462 353 c 0
 462 447 405 478 292 478 c 2
 185 478 l 1
 185 218 l 1
EndSplineSet
EndChar

StartChar: uni018F
Encoding: 399 399 254
Width: 600
GlyphClass: 2
Flags: MW
HStem: -12 72<254.5 346 254.5 374> 286 64<141 466 141 141> 596 72<270 350>
VStem: 59 82<286 286 286 331> 466 84<286 286> 467 83<350 350>
AnchorPoint: "Anchor-6" 310 0 basechar 0
AnchorPoint: "Anchor-3" 304 -20 basechar 0
AnchorPoint: "Anchor-2" 310 0 basechar 0
AnchorPoint: "Anchor-0" 317 676 basechar 0
LayerCount: 2
Fore
SplineSet
300 -12 m 0xf4
 153 -12 59 123 59 327 c 0
 59 335 59 342 60 350 c 1
 467 350 l 1
 462 507 403 596 297 596 c 0
 243 596 198 572 165 538 c 1
 125 595 l 1
 166 637 224 668 301 668 c 0
 456 668 550 540 550 330 c 0
 550 120 448 -12 300 -12 c 0xf4
300 60 m 0xf8
 392 60 455 138 466 286 c 1
 141 286 l 1
 151 135 209 60 300 60 c 0xf8
EndSplineSet
EndChar

StartChar: Eng
Encoding: 330 330 255
Width: 600
GlyphClass: 2
Flags: MW
HStem: -12 79<365.5 396 359.5 432> 0 21G<85 168 85 85> 595 73<301 359.5>
VStem: 85 81<579 656 579 656 579 656> 85 83<0 501 0 656> 463 86<231 433.5>
AnchorPoint: "Anchor-3" 306 -20 basechar 0
AnchorPoint: "Anchor-0" 322 676 basechar 0
LayerCount: 2
Fore
SplineSet
378 -12 m 0xac
 353 -12 321 -7 303 2 c 1
 324 77 l 1
 336 71 350 67 369 67 c 0xac
 423 67 463 127 463 335 c 0
 463 532 404 595 315 595 c 0
 266 595 205 554 168 501 c 1
 168 0 l 1
 85 0 l 1
 85 656 l 1x6c
 166 656 l 1
 166 579 l 1xb4
 209 628 269 668 333 668 c 0
 457 668 549 580 549 335 c 0
 549 83 486 -12 378 -12 c 0xac
EndSplineSet
Substitution2: "'ss05' Style Set 5 lookup 3 subtable" uni014A.a
EndChar

StartChar: IJ
Encoding: 306 306 256
Width: 600
GlyphClass: 5
Flags: MW
HStem: -165 69<335.5 367 333.5 400.5> 0 21G<112 112 112 195 405 405> 636 20G<112 195 195 195 405 488 488 488>
VStem: 112 83<0 656 0 656> 405 83<0 656>
LayerCount: 2
Fore
SplineSet
112 0 m 1
 112 656 l 1
 195 656 l 1
 195 0 l 1
 112 0 l 1
351 -165 m 0
 320 -165 295 -159 277 -152 c 1
 293 -86 l 1
 307 -91 325 -96 342 -96 c 0
 392 -96 405 -59 405 0 c 2
 405 656 l 1
 488 656 l 1
 488 -3 l 2
 488 -102 450 -165 351 -165 c 0
EndSplineSet
EndChar

StartChar: uni004C00B7004C
Encoding: 1114115 -1 257
Width: 600
GlyphClass: 3
Flags: MW
HStem: 0 71<144 275 144 275 424 554> 272 166<224 268>
VStem: 68 76<71 656 71 656 71 656> 68 207<0 71 0 656> 168 158<330 382> 348 76<71 656 71 656 71 656> 348 206<0 71 0 656>
LayerCount: 2
Fore
SplineSet
68 0 m 1xa4
 68 656 l 1
 144 656 l 1
 144 71 l 1xa4
 275 71 l 1
 275 0 l 1x94
 68 0 l 1xa4
246 272 m 0xec
 202 272 168 304 168 356 c 0
 168 408 202 438 246 438 c 0
 290 438 326 408 326 356 c 0
 326 304 290 272 246 272 c 0xec
348 0 m 1xa4
 348 656 l 1
 424 656 l 1
 424 71 l 1xa4
 554 71 l 1
 554 0 l 1xa2
 348 0 l 1xa4
EndSplineSet
Ligature2: "'ccmp' Glyph Composition/Decomposition lookup 19 subtable" L periodcentered L
EndChar

StartChar: uni01320301
Encoding: 1114116 -1 258
Width: 600
GlyphClass: 3
Flags: MW
HStem: -165 69<335.5 367 333.5 400.5> 0 21G<112 112 112 195 405 405>
VStem: 112 83<0 656 0 656> 405 83<0 656>
LayerCount: 2
Fore
SplineSet
112 0 m 1
 112 656 l 1
 195 656 l 1
 195 0 l 1
 112 0 l 1
351 -165 m 0
 320 -165 295 -159 277 -152 c 1
 293 -86 l 1
 307 -91 325 -96 342 -96 c 0
 392 -96 405 -59 405 0 c 2
 405 656 l 1
 488 656 l 1
 488 -3 l 2
 488 -102 450 -165 351 -165 c 0
125 697 m 1
 89 739 l 1
 230 867 l 1
 277 812 l 1
 125 697 l 1
417 697 m 1
 381 739 l 1
 522 867 l 1
 569 812 l 1
 417 697 l 1
EndSplineSet
Ligature2: "'ccmp' Glyph Composition/Decomposition lookup 19 subtable" IJ uni0301
EndChar

StartChar: agrave
Encoding: 224 224 259
Width: 600
Flags: MW
HStem: -12 66<240 280.5> 0 21G<448 515 448 448> 430 68<275.5 351> 701 20G<184 184>
VStem: 81 80<104.5 164 104.5 180.5> 433 82<126 254 254 254> 444.5 70.5
LayerCount: 2
Fore
SplineSet
246 -12 m 0xbc
 155 -12 81 39 81 126 c 0
 81 235 182 288 433 308 c 1
 431 374 398 430 304 430 c 0
 241 430 179 400 134 372 c 1
 102 428 l 1
 151 460 233 498 318 498 c 0
 451 498 515 419 515 298 c 2
 515 0 l 1x7c
 448 0 l 1x7a
 441 66 l 1
 438 66 l 1xba
 384 24 315 -12 246 -12 c 0xbc
268 54 m 0
 323 54 378 80 433 126 c 1
 433 254 l 1
 225 237 161 196 161 132 c 0
 161 77 212 54 268 54 c 0
341 568 m 1
 184 721 l 1
 242 777 l 1
 384 609 l 1
 341 568 l 1
EndSplineSet
Substitution2: "'ss02' Style Set 2 lookup 0 subtable" agrave.a
EndChar

StartChar: aacute
Encoding: 225 225 260
Width: 600
GlyphClass: 2
Flags: MW
HStem: -12 66<240 280.5> 0 21G<448 515 448 448> 430 68<275.5 351> 701 20G<456 456>
VStem: 81 80<104.5 164 104.5 180.5> 433 82<126 254 254 254> 444.5 70.5
AnchorPoint: "Anchor-6" 436 0 basechar 0
LayerCount: 2
Fore
SplineSet
246 -12 m 0xbc
 155 -12 81 39 81 126 c 0
 81 235 182 288 433 308 c 1
 431 374 398 430 304 430 c 0
 241 430 179 400 134 372 c 1
 102 428 l 1
 151 460 233 498 318 498 c 0
 451 498 515 419 515 298 c 2
 515 0 l 1x7c
 448 0 l 1x7a
 441 66 l 1
 438 66 l 1xba
 384 24 315 -12 246 -12 c 0xbc
268 54 m 0
 323 54 378 80 433 126 c 1
 433 254 l 1
 225 237 161 196 161 132 c 0
 161 77 212 54 268 54 c 0
299 568 m 1
 256 609 l 1
 398 777 l 1
 456 721 l 1
 299 568 l 1
EndSplineSet
Substitution2: "'ss02' Style Set 2 lookup 0 subtable" aacute.a
EndChar

StartChar: acircumflex
Encoding: 226 226 261
Width: 600
Flags: MW
HStem: -12 66<240 280.5> 0 21G<448 515 448 448> 430 68<275.5 351> 681 59<318 322 318 318>
VStem: 81 80<104.5 164 104.5 180.5> 433 82<126 254 254 254> 444.5 70.5
LayerCount: 2
Fore
SplineSet
246 -12 m 0xbc
 155 -12 81 39 81 126 c 0
 81 235 182 288 433 308 c 1
 431 374 398 430 304 430 c 0
 241 430 179 400 134 372 c 1
 102 428 l 1
 151 460 233 498 318 498 c 0
 451 498 515 419 515 298 c 2
 515 0 l 1x7c
 448 0 l 1x7a
 441 66 l 1
 438 66 l 1xba
 384 24 315 -12 246 -12 c 0xbc
268 54 m 0
 323 54 378 80 433 126 c 1
 433 254 l 1
 225 237 161 196 161 132 c 0
 161 77 212 54 268 54 c 0
200 568 m 1
 165 600 l 1
 279 740 l 1
 361 740 l 1
 475 600 l 1
 440 568 l 1
 322 681 l 1
 318 681 l 1
 200 568 l 1
EndSplineSet
Substitution2: "'ss02' Style Set 2 lookup 0 subtable" acircumflex.a
EndChar

StartChar: atilde
Encoding: 227 227 262
Width: 600
Flags: MW
HStem: -12 66<240 280.5> 0 21G<448 515 448 448> 430 68<275.5 351> 577 60<368.5 406.5 368.5 426.5> 661 60<234 272> 692 20G<493 493> 696 20G<438 438>
VStem: 81 80<104.5 164 104.5 180.5> 147 55<582 585> 433 82<126 254 254 254> 438 55<712 716> 444.5 70.5
LayerCount: 2
Fore
SplineSet
246 -12 m 0xa940
 155 -12 81 39 81 126 c 0
 81 235 182 288 433 308 c 1
 431 374 398 430 304 430 c 0
 241 430 179 400 134 372 c 1
 102 428 l 1
 151 460 233 498 318 498 c 0
 451 498 515 419 515 298 c 2
 515 0 l 1x6940
 448 0 l 1x6910
 441 66 l 1
 438 66 l 1xa910
 384 24 315 -12 246 -12 c 0xa940
268 54 m 0
 323 54 378 80 433 126 c 1
 433 254 l 1
 225 237 161 196 161 132 c 0
 161 77 212 54 268 54 c 0
392 577 m 0xb520
 321 577 295 661 249 661 c 0
 219 661 205 629 202 582 c 1
 147 585 l 1xa8c0
 150 663 179 721 248 721 c 0
 319 721 345 637 392 637 c 0
 421 637 435 670 438 716 c 1xb320
 493 712 l 1
 490 635 461 577 392 577 c 0xb520
EndSplineSet
Substitution2: "'ss02' Style Set 2 lookup 0 subtable" atilde.a
EndChar

StartChar: adieresis
Encoding: 228 228 263
Width: 600
GlyphClass: 2
Flags: MW
HStem: -12 66<240 280.5> 0 21G<448 515 448 448> 430 68<275.5 351> 588 112<207 239 401 433>
VStem: 81 80<104.5 164 104.5 180.5> 168 110<628 659.5> 362 110<628 659.5> 433 82<126 254 254 254> 444.5 70.5
AnchorPoint: "Anchor-6" 436 0 basechar 0
LayerCount: 2
Fore
SplineSet
246 -12 m 0xb9
 155 -12 81 39 81 126 c 0
 81 235 182 288 433 308 c 1
 431 374 398 430 304 430 c 0
 241 430 179 400 134 372 c 1
 102 428 l 1
 151 460 233 498 318 498 c 0
 451 498 515 419 515 298 c 2
 515 0 l 1x79
 448 0 l 1x7880
 441 66 l 1
 438 66 l 1xb880
 384 24 315 -12 246 -12 c 0xb9
268 54 m 0
 323 54 378 80 433 126 c 1
 433 254 l 1
 225 237 161 196 161 132 c 0
 161 77 212 54 268 54 c 0
223 588 m 0xb6
 191 588 168 612 168 644 c 0
 168 675 191 700 223 700 c 0
 255 700 278 675 278 644 c 0
 278 612 255 588 223 588 c 0xb6
417 588 m 0
 385 588 362 612 362 644 c 0
 362 675 385 700 417 700 c 0
 449 700 472 675 472 644 c 0
 472 612 449 588 417 588 c 0
EndSplineSet
Substitution2: "'ss02' Style Set 2 lookup 0 subtable" adieresis.a
EndChar

StartChar: amacron
Encoding: 257 257 264
Width: 600
Flags: MW
HStem: -12 66<240 280.5> 0 21G<448 515 448 448> 430 68<275.5 351> 601 57<187 453 187 453>
VStem: 81 80<104.5 164 104.5 180.5> 187 266<601 658 601 658> 433 82<126 254 254 254> 444.5 70.5
LayerCount: 2
Fore
SplineSet
246 -12 m 0xba
 155 -12 81 39 81 126 c 0
 81 235 182 288 433 308 c 1
 431 374 398 430 304 430 c 0
 241 430 179 400 134 372 c 1
 102 428 l 1
 151 460 233 498 318 498 c 0
 451 498 515 419 515 298 c 2
 515 0 l 1x7a
 448 0 l 1x79
 441 66 l 1
 438 66 l 1xb9
 384 24 315 -12 246 -12 c 0xba
268 54 m 0
 323 54 378 80 433 126 c 1
 433 254 l 1
 225 237 161 196 161 132 c 0
 161 77 212 54 268 54 c 0
187 601 m 1xbc
 187 658 l 1
 453 658 l 1
 453 601 l 1
 187 601 l 1xbc
EndSplineSet
Substitution2: "'ss02' Style Set 2 lookup 0 subtable" amacron.a
EndChar

StartChar: abreve
Encoding: 259 259 265
Width: 600
Flags: MW
HStem: -12 66<240 280.5> 0 21G<448 515 448 448> 430 68<275.5 351> 571 55<287.5 352.5 287.5 373.5> 702 20G<164 164 476 476>
VStem: 81 80<104.5 164 104.5 180.5> 164 51<722 730> 425 51<722 730> 433 82<126 254 254 254> 444.5 70.5
LayerCount: 2
Fore
SplineSet
246 -12 m 0xbc80
 155 -12 81 39 81 126 c 0
 81 235 182 288 433 308 c 1
 431 374 398 430 304 430 c 0
 241 430 179 400 134 372 c 1
 102 428 l 1
 151 460 233 498 318 498 c 0
 451 498 515 419 515 298 c 2
 515 0 l 1x7c80
 448 0 l 1x7c40
 441 66 l 1
 438 66 l 1xbc40
 384 24 315 -12 246 -12 c 0xbc80
268 54 m 0
 323 54 378 80 433 126 c 1
 433 254 l 1
 225 237 161 196 161 132 c 0
 161 77 212 54 268 54 c 0
320 571 m 0xbb
 213 571 169 648 164 722 c 1
 215 730 l 1
 223 679 255 626 320 626 c 0
 385 626 417 679 425 730 c 1
 476 722 l 1
 471 648 427 571 320 571 c 0xbb
EndSplineSet
Substitution2: "'ss02' Style Set 2 lookup 0 subtable" abreve.a
EndChar

StartChar: aring
Encoding: 229 229 266
Width: 600
GlyphClass: 2
Flags: MW
HStem: -12 66<240 280.5> 0 21G<448 515 448 448> 430 68<275.5 351> 569 37<304 336 304 354.5> 724 37<304 336>
VStem: 81 80<104.5 164 104.5 180.5> 210 53<648.5 682 648.5 692> 377 53<648.5 682> 433 82<126 254 254 254> 444.5 70.5
AnchorPoint: "Anchor-6" 436 0 basechar 0
LayerCount: 2
Fore
SplineSet
246 -12 m 0xbe80
 155 -12 81 39 81 126 c 0
 81 235 182 288 433 308 c 1
 431 374 398 430 304 430 c 0
 241 430 179 400 134 372 c 1
 102 428 l 1
 151 460 233 498 318 498 c 0
 451 498 515 419 515 298 c 2
 515 0 l 1x7e80
 448 0 l 1x7e40
 441 66 l 1
 438 66 l 1xbe40
 384 24 315 -12 246 -12 c 0xbe80
268 54 m 0
 323 54 378 80 433 126 c 1
 433 254 l 1
 225 237 161 196 161 132 c 0
 161 77 212 54 268 54 c 0
320 569 m 0
 251 569 210 611 210 665 c 0
 210 719 251 761 320 761 c 0
 389 761 430 719 430 665 c 0xbf
 430 611 389 569 320 569 c 0
320 606 m 0xbf
 352 606 377 632 377 665 c 0
 377 699 352 724 320 724 c 0
 288 724 263 699 263 665 c 0
 263 632 288 606 320 606 c 0xbf
EndSplineSet
Substitution2: "'ss02' Style Set 2 lookup 0 subtable" aring.a
EndChar

StartChar: aringacute
Encoding: 507 507 267
Width: 600
Flags: MW
HStem: -12 66<240 280.5> 0 21G<448 515 448 448> 430 68<275.5 351> 569 37<304 336 304 354.5>
VStem: 81 80<104.5 164 104.5 180.5> 210 53<648.5 682 648.5 682> 377 53<648.5 682> 433 82<126 254 254 254> 444.5 70.5
LayerCount: 2
Fore
SplineSet
246 -12 m 0xbd
 155 -12 81 39 81 126 c 0
 81 235 182 288 433 308 c 1
 431 374 398 430 304 430 c 0
 241 430 179 400 134 372 c 1
 102 428 l 1
 151 460 233 498 318 498 c 0
 451 498 515 419 515 298 c 2
 515 0 l 1x7d
 448 0 l 1x7c80
 441 66 l 1
 438 66 l 1xbc80
 384 24 315 -12 246 -12 c 0xbd
268 54 m 0
 323 54 378 80 433 126 c 1
 433 254 l 1
 225 237 161 196 161 132 c 0
 161 77 212 54 268 54 c 0
320 569 m 0
 251 569 210 611 210 665 c 0
 210 699 227 729 257 746 c 2
 390 843 l 1
 425 793 l 1
 352 758 l 1
 401 747 430 710 430 665 c 0xbe
 430 611 389 569 320 569 c 0
320 606 m 0xbe
 352 606 377 632 377 665 c 0
 377 699 352 724 320 724 c 0
 288 724 263 699 263 665 c 0
 263 632 288 606 320 606 c 0xbe
EndSplineSet
Substitution2: "'ss02' Style Set 2 lookup 0 subtable" aringacute.a
EndChar

StartChar: uni01CE
Encoding: 462 462 268
Width: 600
Flags: MW
HStem: -12 66<240 280.5> 0 21G<448 515 448 448> 430 68<275.5 351> 574 59<279 322 318 322 318 361> 694 20G<165 165 475 475>
VStem: 81 80<104.5 164 104.5 180.5> 433 82<126 254 254 254> 444.5 70.5
LayerCount: 2
Fore
SplineSet
246 -12 m 0xbe
 155 -12 81 39 81 126 c 0
 81 235 182 288 433 308 c 1
 431 374 398 430 304 430 c 0
 241 430 179 400 134 372 c 1
 102 428 l 1
 151 460 233 498 318 498 c 0
 451 498 515 419 515 298 c 2
 515 0 l 1x7e
 448 0 l 1x7d
 441 66 l 1
 438 66 l 1xbd
 384 24 315 -12 246 -12 c 0xbe
268 54 m 0
 323 54 378 80 433 126 c 1
 433 254 l 1
 225 237 161 196 161 132 c 0
 161 77 212 54 268 54 c 0
279 574 m 1
 165 714 l 1
 200 746 l 1
 318 633 l 1
 322 633 l 1
 440 746 l 1
 475 714 l 1
 361 574 l 1
 279 574 l 1
EndSplineSet
Substitution2: "'ss02' Style Set 2 lookup 0 subtable" uni01CE.a
EndChar

StartChar: aogonek
Encoding: 261 261 269
Width: 600
GlyphClass: 2
Flags: MW
HStem: -225 54<458 475> -12 66<240 280.5> 0 21G<515 515> 430 68<275.5 351>
VStem: 81 80<104.5 164 104.5 180.5> 353 61<-135 -102> 433 82<126 254 254 254> 444.5 70.5
AnchorPoint: "Anchor-0" 320 507 basechar 0
LayerCount: 2
Fore
SplineSet
456 -225 m 0xde
 398 -225 353 -195 353 -132 c 0
 353 -72 396 -27 448 5 c 1
 441 66 l 1
 438 66 l 1
 384 24 315 -12 246 -12 c 0xdd
 155 -12 81 39 81 126 c 0
 81 235 182 288 433 308 c 1
 431 374 398 430 304 430 c 0
 241 430 179 400 134 372 c 1
 102 428 l 1
 151 460 233 498 318 498 c 0
 451 498 515 419 515 298 c 2
 515 0 l 1xba
 443 -32 414 -75 414 -116 c 0
 414 -154 443 -171 473 -171 c 0
 495 -171 513 -162 525 -150 c 1
 549 -189 l 1
 526 -211 494 -225 456 -225 c 0xde
268 54 m 0xda
 323 54 378 80 433 126 c 1
 433 254 l 1
 225 237 161 196 161 132 c 0
 161 77 212 54 268 54 c 0xda
EndSplineSet
Ligature2: "'ccmp' Glyph Composition/Decomposition lookup 19 subtable" a uni0328
Substitution2: "'ss02' Style Set 2 lookup 0 subtable" aogonek.a
EndChar

StartChar: uni1EA1
Encoding: 7841 7841 270
Width: 600
Flags: MW
HStem: -215 128<281.5 318.5> -12 66<240 280.5> 0 21G<448 515 448 448> 430 68<275.5 351>
VStem: 81 80<104.5 164 104.5 180.5> 234 132<-170.5 -132> 433 82<126 254 254 254> 444.5 70.5
LayerCount: 2
Fore
SplineSet
246 -12 m 0xda
 155 -12 81 39 81 126 c 0
 81 235 182 288 433 308 c 1
 431 374 398 430 304 430 c 0
 241 430 179 400 134 372 c 1
 102 428 l 1
 151 460 233 498 318 498 c 0
 451 498 515 419 515 298 c 2
 515 0 l 1xba
 448 0 l 1xb9
 441 66 l 1
 438 66 l 1xd9
 384 24 315 -12 246 -12 c 0xda
268 54 m 0
 323 54 378 80 433 126 c 1
 433 254 l 1
 225 237 161 196 161 132 c 0
 161 77 212 54 268 54 c 0
300 -215 m 0xde
 263 -215 234 -190 234 -151 c 0
 234 -113 263 -87 300 -87 c 0
 337 -87 366 -113 366 -151 c 0
 366 -190 337 -215 300 -215 c 0xde
EndSplineSet
Substitution2: "'ss02' Style Set 2 lookup 0 subtable" uni1EA1.a
EndChar

StartChar: uni1EA3
Encoding: 7843 7843 271
Width: 600
Flags: MW
HStem: -12 66<240 280.5> 0 21G<448 515 448 448> 430 68<275.5 351> 706 54<252 257>
VStem: 81 80<104.5 164 104.5 180.5> 335 65<646 673.5> 433 82<126 254 254 254> 444.5 70.5
LayerCount: 2
Fore
SplineSet
246 -12 m 0xbe
 155 -12 81 39 81 126 c 0
 81 235 182 288 433 308 c 1
 431 374 398 430 304 430 c 0
 241 430 179 400 134 372 c 1
 102 428 l 1
 151 460 233 498 318 498 c 0
 451 498 515 419 515 298 c 2
 515 0 l 1x7e
 448 0 l 1x7d
 441 66 l 1
 438 66 l 1xbd
 384 24 315 -12 246 -12 c 0xbe
268 54 m 0
 323 54 378 80 433 126 c 1
 433 254 l 1
 225 237 161 196 161 132 c 0
 161 77 212 54 268 54 c 0
288 572 m 1
 279 612 l 1
 311 620 335 633 335 659 c 0
 335 688 308 703 252 706 c 1
 257 760 l 1
 348 758 400 725 400 666 c 0
 400 608 346 583 288 572 c 1
EndSplineSet
Substitution2: "'ss02' Style Set 2 lookup 0 subtable" uni1EA3.a
EndChar

StartChar: uni1EA5
Encoding: 7845 7845 272
Width: 600
Flags: MW
HStem: -12 66<240 280.5> 0 21G<448 515 448 448> 430 68<275.5 351> 642 54<318 322 318 318>
VStem: 81 80<104.5 164 104.5 180.5> 433 82<126 254 254 254> 444.5 70.5
LayerCount: 2
Fore
SplineSet
246 -12 m 0xbc
 155 -12 81 39 81 126 c 0
 81 235 182 288 433 308 c 1
 431 374 398 430 304 430 c 0
 241 430 179 400 134 372 c 1
 102 428 l 1
 151 460 233 498 318 498 c 0
 451 498 515 419 515 298 c 2
 515 0 l 1x7c
 448 0 l 1x7a
 441 66 l 1
 438 66 l 1xba
 384 24 315 -12 246 -12 c 0xbc
268 54 m 0
 323 54 378 80 433 126 c 1
 433 254 l 1
 225 237 161 196 161 132 c 0
 161 77 212 54 268 54 c 0
215 570 m 1
 186 604 l 1
 286 696 l 1
 354 696 l 1
 454 604 l 1
 425 570 l 1
 322 642 l 1
 318 642 l 1
 215 570 l 1
454 637 m 1
 419 665 l 1
 506 785 l 1
 555 751 l 1
 454 637 l 1
EndSplineSet
Substitution2: "'ss02' Style Set 2 lookup 0 subtable" uni1EA5.a
EndChar

StartChar: uni1EA7
Encoding: 7847 7847 273
Width: 600
Flags: MW
HStem: -12 66<240 280.5> 0 21G<448 515 448 448> 430 68<275.5 351> 642 54<318 322 318 318>
VStem: 81 80<104.5 164 104.5 180.5> 433 82<126 254 254 254> 444.5 70.5
LayerCount: 2
Fore
SplineSet
246 -12 m 0xbc
 155 -12 81 39 81 126 c 0
 81 235 182 288 433 308 c 1
 431 374 398 430 304 430 c 0
 241 430 179 400 134 372 c 1
 102 428 l 1
 151 460 233 498 318 498 c 0
 451 498 515 419 515 298 c 2
 515 0 l 1x7c
 448 0 l 1x7a
 441 66 l 1
 438 66 l 1xba
 384 24 315 -12 246 -12 c 0xbc
268 54 m 0
 323 54 378 80 433 126 c 1
 433 254 l 1
 225 237 161 196 161 132 c 0
 161 77 212 54 268 54 c 0
215 570 m 1
 186 604 l 1
 286 696 l 1
 354 696 l 1
 454 604 l 1
 425 570 l 1
 322 642 l 1
 318 642 l 1
 215 570 l 1
186 637 m 1
 73 749 l 1
 121 785 l 1
 221 668 l 1
 186 637 l 1
EndSplineSet
Substitution2: "'ss02' Style Set 2 lookup 0 subtable" uni1EA7.a
EndChar

StartChar: uni1EA9
Encoding: 7849 7849 274
Width: 600
Flags: MW
HStem: -12 66<240 280.5> 0 21G<448 515 448 448> 430 68<275.5 351> 642 54<318 322 318 318> 750 41<400 407>
VStem: 81 80<104.5 164 104.5 180.5> 433 82<126 254 254 254> 444.5 70.5 469 60<698.5 722>
LayerCount: 2
Fore
SplineSet
246 -12 m 0xbe
 155 -12 81 39 81 126 c 0
 81 235 182 288 433 308 c 1
 431 374 398 430 304 430 c 0
 241 430 179 400 134 372 c 1
 102 428 l 1
 151 460 233 498 318 498 c 0
 451 498 515 419 515 298 c 2
 515 0 l 1x7e
 448 0 l 1x7d
 441 66 l 1
 438 66 l 1xbd
 384 24 315 -12 246 -12 c 0xbe
268 54 m 0
 323 54 378 80 433 126 c 1
 433 254 l 1
 225 237 161 196 161 132 c 0
 161 77 212 54 268 54 c 0
215 570 m 1
 186 604 l 1
 286 696 l 1
 354 696 l 1
 454 604 l 1
 425 570 l 1
 322 642 l 1
 318 642 l 1
 215 570 l 1
436 635 m 1xbc80
 427 670 l 1
 452 677 469 688 469 709 c 0
 469 735 449 748 400 750 c 1
 407 791 l 1
 485 789 529 765 529 718 c 0
 529 665 483 646 436 635 c 1xbc80
EndSplineSet
Substitution2: "'ss02' Style Set 2 lookup 0 subtable" uni1EA9.a
EndChar

StartChar: uni1EAB
Encoding: 7851 7851 275
Width: 600
Flags: MW
HStem: -12 66<240 280.5> 0 21G<448 515 448 448> 430 68<275.5 351> 639 53<318 322 318 318> 694 20G<183 183> 710 51<362 391 362 408.5> 752 51<249 278>
VStem: 81 80<104.5 164 104.5 180.5> 183 43<710 714> 414 43<799 803> 433 82<126 254 254 254> 444.5 70.5
LayerCount: 2
Fore
SplineSet
246 -12 m 0xab20
 155 -12 81 39 81 126 c 0
 81 235 182 288 433 308 c 1
 431 374 398 430 304 430 c 0
 241 430 179 400 134 372 c 1
 102 428 l 1
 151 460 233 498 318 498 c 0
 451 498 515 419 515 298 c 2
 515 0 l 1x6b20
 448 0 l 1x6b10
 441 66 l 1
 438 66 l 1xab10
 384 24 315 -12 246 -12 c 0xab20
268 54 m 0
 323 54 378 80 433 126 c 1
 433 254 l 1
 225 237 161 196 161 132 c 0
 161 77 212 54 268 54 c 0
215 570 m 1xb320
 186 604 l 1
 286 692 l 1
 354 692 l 1
 454 604 l 1
 425 570 l 1
 322 639 l 1
 318 639 l 1
 215 570 l 1xb320
385 710 m 0xa540
 327 710 297 752 259 752 c 0
 239 752 231 739 226 710 c 1
 183 714 l 1
 188 766 208 803 255 803 c 0xaba0
 314 803 343 761 381 761 c 0
 401 761 409 774 414 803 c 1
 457 799 l 1
 452 748 432 710 385 710 c 0xa540
EndSplineSet
Substitution2: "'ss02' Style Set 2 lookup 0 subtable" uni1EAB.a
EndChar

StartChar: uni1EAD
Encoding: 7853 7853 276
Width: 600
Flags: MW
HStem: -215 128<281.5 318.5> -12 66<240 280.5> 0 21G<448 515 448 448> 430 68<275.5 351> 681 59<318 322 318 318>
VStem: 81 80<104.5 164 104.5 180.5> 234 132<-170.5 -132> 433 82<126 254 254 254> 444.5 70.5
LayerCount: 2
Fore
SplineSet
246 -12 m 0xdd
 155 -12 81 39 81 126 c 0
 81 235 182 288 433 308 c 1
 431 374 398 430 304 430 c 0
 241 430 179 400 134 372 c 1
 102 428 l 1
 151 460 233 498 318 498 c 0
 451 498 515 419 515 298 c 2
 515 0 l 1xbd
 448 0 l 1xbc80
 441 66 l 1
 438 66 l 1xdc80
 384 24 315 -12 246 -12 c 0xdd
268 54 m 0
 323 54 378 80 433 126 c 1
 433 254 l 1
 225 237 161 196 161 132 c 0
 161 77 212 54 268 54 c 0
200 568 m 1
 165 600 l 1
 279 740 l 1
 361 740 l 1
 475 600 l 1
 440 568 l 1
 322 681 l 1
 318 681 l 1
 200 568 l 1
300 -215 m 0xdf
 263 -215 234 -190 234 -151 c 0
 234 -113 263 -87 300 -87 c 0
 337 -87 366 -113 366 -151 c 0
 366 -190 337 -215 300 -215 c 0xdf
EndSplineSet
Substitution2: "'ss02' Style Set 2 lookup 0 subtable" uni1EAD.a
EndChar

StartChar: uni1EAF
Encoding: 7855 7855 277
Width: 600
Flags: MW
HStem: -12 66<240 280.5> 0 21G<448 515 448 448> 430 68<275.5 351> 571 51<286.5 353.5 286.5 373.5> 702 20G<164 164 476 476>
VStem: 81 80<104.5 164 104.5 180.5> 164 48<722 730> 428 48<722 730> 433 82<126 254 254 254> 444.5 70.5
LayerCount: 2
Fore
SplineSet
246 -12 m 0xbc80
 155 -12 81 39 81 126 c 0
 81 235 182 288 433 308 c 1
 431 374 398 430 304 430 c 0
 241 430 179 400 134 372 c 1
 102 428 l 1
 151 460 233 498 318 498 c 0
 451 498 515 419 515 298 c 2
 515 0 l 1x7c80
 448 0 l 1x7c40
 441 66 l 1
 438 66 l 1xbc40
 384 24 315 -12 246 -12 c 0xbc80
268 54 m 0
 323 54 378 80 433 126 c 1
 433 254 l 1
 225 237 161 196 161 132 c 0
 161 77 212 54 268 54 c 0
320 571 m 0xbb
 213 571 169 648 164 722 c 1
 212 730 l 1
 219 677 253 622 320 622 c 0
 387 622 421 677 428 730 c 1
 476 722 l 1
 471 648 427 571 320 571 c 0xbb
315 679 m 1
 276 708 l 1
 364 832 l 1
 416 792 l 1
 315 679 l 1
EndSplineSet
Substitution2: "'ss02' Style Set 2 lookup 0 subtable" uni1EAF.a
EndChar

StartChar: uni1EB1
Encoding: 7857 7857 278
Width: 600
Flags: MW
HStem: -12 66<240 280.5> 0 21G<448 515 448 448> 430 68<275.5 351> 571 51<286.5 353.5 286.5 373.5> 702 20G<164 164 476 476>
VStem: 81 80<104.5 164 104.5 180.5> 164 48<722 730> 428 48<722 730> 433 82<126 254 254 254> 444.5 70.5
LayerCount: 2
Fore
SplineSet
246 -12 m 0xbc80
 155 -12 81 39 81 126 c 0
 81 235 182 288 433 308 c 1
 431 374 398 430 304 430 c 0
 241 430 179 400 134 372 c 1
 102 428 l 1
 151 460 233 498 318 498 c 0
 451 498 515 419 515 298 c 2
 515 0 l 1x7c80
 448 0 l 1x7c40
 441 66 l 1
 438 66 l 1xbc40
 384 24 315 -12 246 -12 c 0xbc80
268 54 m 0
 323 54 378 80 433 126 c 1
 433 254 l 1
 225 237 161 196 161 132 c 0
 161 77 212 54 268 54 c 0
320 571 m 0xbb
 213 571 169 648 164 722 c 1
 212 730 l 1
 219 677 253 622 320 622 c 0
 387 622 421 677 428 730 c 1
 476 722 l 1
 471 648 427 571 320 571 c 0xbb
325 679 m 1
 224 792 l 1
 276 832 l 1
 364 708 l 1
 325 679 l 1
EndSplineSet
Substitution2: "'ss02' Style Set 2 lookup 0 subtable" uni1EB1.a
EndChar

StartChar: uni1EB3
Encoding: 7859 7859 279
Width: 600
Flags: MW
HStem: -12 66<240 280.5> 0 21G<448 515 448 448> 430 68<275.5 351> 571 51<286.5 353.5 286.5 373.5> 698 20G<285 285> 702 20G<164 164 476 476> 798 50<257 264>
VStem: 81 80<104.5 164 104.5 180.5> 164 48<722 730> 333 60<746.5 770> 428 48<722 730> 433 82<126 254 254 254> 444.5 70.5
LayerCount: 2
Fore
SplineSet
246 -12 m 0xb750
 155 -12 81 39 81 126 c 0
 81 235 182 288 433 308 c 1
 431 374 398 430 304 430 c 0
 241 430 179 400 134 372 c 1
 102 428 l 1
 151 460 233 498 318 498 c 0
 451 498 515 419 515 298 c 2
 515 0 l 1x7750
 448 0 l 1x7748
 441 66 l 1
 438 66 l 1xb748
 384 24 315 -12 246 -12 c 0xb750
268 54 m 0
 323 54 378 80 433 126 c 1
 433 254 l 1
 225 237 161 196 161 132 c 0
 161 77 212 54 268 54 c 0
320 571 m 0xb6e0
 213 571 169 648 164 722 c 1
 212 730 l 1
 219 677 253 622 320 622 c 0
 387 622 421 677 428 730 c 1
 476 722 l 1
 471 648 427 571 320 571 c 0xb6e0
293 682 m 1
 285 718 l 1xbb50
 313 724 333 736 333 757 c 0
 333 783 311 796 257 798 c 1
 264 848 l 1
 345 846 393 819 393 766 c 0
 393 712 343 690 293 682 c 1
EndSplineSet
Substitution2: "'ss02' Style Set 2 lookup 0 subtable" uni1EB3.a
EndChar

StartChar: uni1EB5
Encoding: 7861 7861 280
Width: 600
Flags: MW
HStem: -12 66<240 280.5> 0 21G<448 515 448 448> 430 68<275.5 351> 571 47<289 351 289 369> 694 20G<179 179> 710 50<362 391 362 409.5> 752 50<249 278>
VStem: 81 80<104.5 164 104.5 180.5> 176 47<678 686> 176 50<678 709> 179 47<709 714> 414 47<798 802> 417 47<678 686> 433 82<126 254 254 254> 444.5 70.5
LayerCount: 2
Fore
SplineSet
246 -12 m 0xbb04
 155 -12 81 39 81 126 c 0
 81 235 182 288 433 308 c 1
 431 374 398 430 304 430 c 0
 241 430 179 400 134 372 c 1
 102 428 l 1
 151 460 233 498 318 498 c 0
 451 498 515 419 515 298 c 2
 515 0 l 1x7b04
 448 0 l 1x7b02
 441 66 l 1
 438 66 l 1xbb02
 384 24 315 -12 246 -12 c 0xbb04
268 54 m 0
 323 54 378 80 433 126 c 1
 433 254 l 1
 225 237 161 196 161 132 c 0
 161 77 212 54 268 54 c 0
320 571 m 0xbb48
 222 571 182 627 176 678 c 1xbb44
 223 686 l 1xbb84
 228 653 258 618 320 618 c 0
 382 618 412 653 417 686 c 1
 464 678 l 1
 458 627 418 571 320 571 c 0xbb48
385 710 m 0xb510
 327 710 297 752 259 752 c 0
 239 752 231 738 226 709 c 1
 179 714 l 1
 184 765 206 802 255 802 c 0xbb24
 314 802 343 760 381 760 c 0
 401 760 409 774 414 802 c 1
 461 798 l 1
 456 747 434 710 385 710 c 0xb510
EndSplineSet
Substitution2: "'ss02' Style Set 2 lookup 0 subtable" uni1EB5.a
EndChar

StartChar: uni1EB7
Encoding: 7863 7863 281
Width: 600
Flags: MW
HStem: -215 128<281.5 318.5> -12 66<240 280.5> 0 21G<448 515 448 448> 430 68<275.5 351> 571 55<287.5 352.5 287.5 373.5> 702 20G<164 164 476 476>
VStem: 81 80<104.5 164 104.5 180.5> 164 51<722 730> 234 132<-170.5 -132> 425 51<722 730> 433 82<126 254 254 254> 444.5 70.5
LayerCount: 2
Fore
SplineSet
246 -12 m 0xde20
 155 -12 81 39 81 126 c 0
 81 235 182 288 433 308 c 1
 431 374 398 430 304 430 c 0
 241 430 179 400 134 372 c 1
 102 428 l 1
 151 460 233 498 318 498 c 0
 451 498 515 419 515 298 c 2
 515 0 l 1xbe20
 448 0 l 1xbe10
 441 66 l 1
 438 66 l 1xde10
 384 24 315 -12 246 -12 c 0xde20
268 54 m 0
 323 54 378 80 433 126 c 1
 433 254 l 1
 225 237 161 196 161 132 c 0
 161 77 212 54 268 54 c 0
320 571 m 0xdd40
 213 571 169 648 164 722 c 1
 215 730 l 1
 223 679 255 626 320 626 c 0
 385 626 417 679 425 730 c 1
 476 722 l 1
 471 648 427 571 320 571 c 0xdd40
300 -215 m 0xdea0
 263 -215 234 -190 234 -151 c 0
 234 -113 263 -87 300 -87 c 0
 337 -87 366 -113 366 -151 c 0
 366 -190 337 -215 300 -215 c 0xdea0
EndSplineSet
Substitution2: "'ss02' Style Set 2 lookup 0 subtable" uni1EB7.a
EndChar

StartChar: ae
Encoding: 230 230 282
Width: 600
GlyphClass: 2
Flags: MW
HStem: -12 66<145 174.5> -12 67<420 475.5 419 479> 220 64<333 530 333 593 332 530> 430 68<158 203.5> 433 65<421 471>
VStem: 17 76<104.5 157.5 104.5 169.5> 266 66<220 249 220 249> 266 67<242 284 249 284> 530 67<284 284>
AnchorPoint: "Anchor-3" 309 -20 basechar 0
AnchorPoint: "Anchor-2" 449 0 basechar 0
AnchorPoint: "Anchor-0" 316 507 basechar 0
LayerCount: 2
Fore
SplineSet
145 -12 m 0x6d80
 71 -12 17 38 17 120 c 0
 17 219 90 280 266 302 c 1
 263 397 229 430 178 430 c 0
 138 430 95 411 64 390 c 1x7580
 33 446 l 1
 73 472 128 498 185 498 c 0
 243 498 285 469 308 398 c 1
 341 469 394 498 448 498 c 0
 549 498 597 395 597 276 c 0
 597 257 595 237 593 220 c 1
 332 220 l 1x6e80
 337 118 381 55 457 55 c 0
 494 55 526 69 552 87 c 1
 582 31 l 1
 549 7 504 -12 454 -12 c 0
 386 -12 336 20 304 75 c 1
 257 20 204 -12 145 -12 c 0x6d80
167 54 m 0xad80
 204 54 248 78 283 123 c 1
 272 158 266 198 266 242 c 2
 266 249 l 1
 131 229 93 187 93 128 c 0
 93 81 123 54 167 54 c 0xad80
443 433 m 0
 393 433 343 392 333 284 c 1
 530 284 l 1
 527 384 499 433 443 433 c 0
EndSplineSet
EndChar

StartChar: aeacute
Encoding: 509 509 283
Width: 600
Flags: MW
HStem: -12 66<145 174.5> -12 67<420 475.5 419 479> 220 64<333 530 333 593 332 530> 430 68<158 203.5> 433 65<421 471> 701 20G<452 452>
VStem: 17 76<104.5 157.5 104.5 169.5> 266 66<220 249 220 249> 266 67<242 284 249 284> 530 67<284 284>
LayerCount: 2
Fore
SplineSet
145 -12 m 0x6ec0
 71 -12 17 38 17 120 c 0
 17 219 90 280 266 302 c 1
 263 397 229 430 178 430 c 0
 138 430 95 411 64 390 c 1x76c0
 33 446 l 1
 73 472 128 498 185 498 c 0
 243 498 285 469 308 398 c 1
 341 469 394 498 448 498 c 0
 549 498 597 395 597 276 c 0
 597 257 595 237 593 220 c 1
 332 220 l 1x6f40
 337 118 381 55 457 55 c 0
 494 55 526 69 552 87 c 1
 582 31 l 1
 549 7 504 -12 454 -12 c 0
 386 -12 336 20 304 75 c 1
 257 20 204 -12 145 -12 c 0x6ec0
167 54 m 0xaec0
 204 54 248 78 283 123 c 1
 272 158 266 198 266 242 c 2
 266 249 l 1
 131 229 93 187 93 128 c 0
 93 81 123 54 167 54 c 0xaec0
443 433 m 0
 393 433 343 392 333 284 c 1
 530 284 l 1
 527 384 499 433 443 433 c 0
295 568 m 1
 252 609 l 1
 394 777 l 1
 452 721 l 1
 295 568 l 1
EndSplineSet
EndChar

StartChar: uni01E3
Encoding: 483 483 284
Width: 600
Flags: MW
HStem: -12 66<145 174.5> -12 67<420 475.5 419 479> 220 64<333 530 333 593 332 530> 430 68<158 203.5> 433 65<421 471> 601 57<183 449 183 449>
VStem: 17 76<104.5 157.5 104.5 169.5> 183 266<601 658 601 658> 266 66<220 249 220 249> 266 67<242 284 249 284> 530 67<284 284>
LayerCount: 2
Fore
SplineSet
145 -12 m 0x6e60
 71 -12 17 38 17 120 c 0
 17 219 90 280 266 302 c 1
 263 397 229 430 178 430 c 0
 138 430 95 411 64 390 c 1x7660
 33 446 l 1
 73 472 128 498 185 498 c 0
 243 498 285 469 308 398 c 1
 341 469 394 498 448 498 c 0
 549 498 597 395 597 276 c 0
 597 257 595 237 593 220 c 1
 332 220 l 1x6ea0
 337 118 381 55 457 55 c 0
 494 55 526 69 552 87 c 1
 582 31 l 1
 549 7 504 -12 454 -12 c 0
 386 -12 336 20 304 75 c 1
 257 20 204 -12 145 -12 c 0x6e60
167 54 m 0xae60
 204 54 248 78 283 123 c 1
 272 158 266 198 266 242 c 2
 266 249 l 1
 131 229 93 187 93 128 c 0
 93 81 123 54 167 54 c 0xae60
443 433 m 0
 393 433 343 392 333 284 c 1
 530 284 l 1
 527 384 499 433 443 433 c 0
183 601 m 1x6f20
 183 658 l 1
 449 658 l 1
 449 601 l 1
 183 601 l 1x6f20
EndSplineSet
EndChar

StartChar: uni0180
Encoding: 384 384 285
Width: 600
Flags: MW
HStem: -12 69<296.5 349.5 289.5 378> 0 21G<93 159 93 93> 409 69<309.5 366.5> 562 64<20 93 175 388> 562 150<20 175 20 175 93 175 93 388>
VStem: 93 69.5 93 82<114 336 114 404 495 562 626 712> 455 85<183 290.5>
LayerCount: 2
Fore
SplineSet
320 -12 m 0xab
 273 -12 215 13 169 54 c 1
 166 54 l 1xad
 159 0 l 1x6d
 93 0 l 1
 93 562 l 1
 20 562 l 1
 20 621 l 1x6b
 93 626 l 1xb3
 93 712 l 1
 175 712 l 1xab
 175 626 l 1
 388 626 l 1xb3
 388 562 l 1
 175 562 l 1
 175 495 l 1
 172 404 l 1
 175 404 l 1
 219 449 281 478 338 478 c 0
 469 478 540 385 540 241 c 0
 540 81 436 -12 320 -12 c 0xab
307 57 m 0
 392 57 455 126 455 240 c 0
 455 341 415 409 318 409 c 0
 275 409 225 386 175 336 c 1
 175 114 l 1
 221 73 272 57 307 57 c 0
EndSplineSet
EndChar

